<svg width="1404.000000" height="582.000000" viewBox="0 0 1404 582" fill="none" xmlns="http://www.w3.org/2000/svg" xmlns:xlink="http://www.w3.org/1999/xlink">
	<desc>
			Created with Pixso.
	</desc>
	<defs>
		<clipPath id="clip146_955">
			<rect id="Background element Main Page" rx="0.000000" width="1403.000000" height="581.000000" transform="translate(0.500000 0.500000)" fill="white" fill-opacity="0"/>
		</clipPath>
	</defs>
	<g clip-path="url(#clip146_955)">
		<path id="Vector" d="M1340.95 15.14C1340.73 17.9 1339.69 20.53 1337.96 22.7C1336.24 24.87 1333.92 26.48 1331.28 27.32C1328.64 28.17 1325.82 28.22 1323.15 27.46C1320.49 26.7 1318.12 25.16 1316.32 23.05C1314.53 20.94 1313.41 18.35 1313.09 15.6C1312.78 12.84 1313.28 10.06 1314.55 7.6C1315.81 5.14 1317.78 3.1 1320.2 1.76C1322.62 0.41 1325.38 -0.18 1328.14 0.04C1331.84 0.35 1335.27 2.11 1337.67 4.94C1340.07 7.77 1341.25 11.44 1340.95 15.14Z" fill="#ECF2FF" fill-opacity="1.000000" fill-rule="nonzero"/>
		<path id="Vector" d="M601.95 34.14C601.72 36.9 600.68 39.53 598.96 41.7C597.24 43.87 594.91 45.48 592.28 46.32C589.64 47.17 586.81 47.22 584.15 46.46C581.49 45.7 579.11 44.16 577.32 42.05C575.53 39.94 574.4 37.35 574.09 34.6C573.77 31.84 574.28 29.06 575.54 26.6C576.81 24.14 578.77 22.1 581.19 20.76C583.61 19.41 586.38 18.82 589.14 19.04C592.84 19.35 596.27 21.11 598.67 23.94C601.07 26.77 602.25 30.44 601.95 34.14Z" fill="#ECF2FF" fill-opacity="1.000000" fill-rule="nonzero"/>
		<path id="Vector" d="M65.97 128.73C65.82 130.51 65.15 132.2 64.04 133.59C62.94 134.99 61.44 136.02 59.75 136.56C58.05 137.11 56.23 137.14 54.52 136.65C52.81 136.16 51.28 135.17 50.13 133.82C48.98 132.46 48.26 130.79 48.05 129.02C47.85 127.26 48.18 125.47 48.99 123.88C49.8 122.3 51.07 120.99 52.62 120.13C54.18 119.26 55.96 118.88 57.73 119.03C60.11 119.22 62.31 120.36 63.86 122.18C65.4 124 66.16 126.35 65.97 128.73Z" fill="#ECF2FF" fill-opacity="1.000000" fill-rule="nonzero"/>
		<path id="Vector" d="M102.95 334.14C102.72 336.9 101.68 339.53 99.96 341.7C98.24 343.87 95.91 345.48 93.28 346.33C90.64 347.17 87.81 347.22 85.15 346.46C82.49 345.7 80.11 344.16 78.32 342.05C76.53 339.94 75.4 337.35 75.09 334.6C74.77 331.85 75.28 329.06 76.54 326.6C77.81 324.14 79.77 322.1 82.19 320.76C84.61 319.41 87.38 318.82 90.14 319.04C93.84 319.35 97.27 321.11 99.67 323.94C102.07 326.77 103.25 330.44 102.95 334.14Z" fill="#C6D7FF" fill-opacity="1.000000" fill-rule="nonzero"/>
		<path id="Vector" d="M739.95 522.14C739.72 524.9 738.68 527.53 736.96 529.7C735.24 531.87 732.91 533.48 730.28 534.33C727.64 535.17 724.81 535.22 722.15 534.46C719.49 533.7 717.11 532.16 715.32 530.05C713.53 527.94 712.4 525.35 712.09 522.59C711.77 519.84 712.28 517.06 713.54 514.6C714.81 512.14 716.77 510.1 719.19 508.76C721.61 507.41 724.38 506.82 727.14 507.04C730.84 507.35 734.27 509.11 736.67 511.94C739.07 514.77 740.25 518.44 739.95 522.14Z" fill="#C6D7FF" fill-opacity="1.000000" fill-rule="nonzero"/>
		<path id="Vector" d="M1368.95 509.14C1368.73 511.9 1367.69 514.53 1365.96 516.7C1364.24 518.87 1361.92 520.48 1359.28 521.33C1356.64 522.17 1353.82 522.22 1351.15 521.46C1348.49 520.7 1346.12 519.16 1344.32 517.05C1342.53 514.94 1341.41 512.35 1341.09 509.6C1340.78 506.85 1341.28 504.06 1342.55 501.6C1343.81 499.14 1345.78 497.1 1348.2 495.76C1350.62 494.41 1353.38 493.82 1356.14 494.04C1359.84 494.35 1363.27 496.11 1365.67 498.94C1368.07 501.77 1369.25 505.44 1368.95 509.14Z" fill="#C6D7FF" fill-opacity="1.000000" fill-rule="nonzero"/>
		<g opacity="0.700000">
			<path id="Vector" d="M714.19 120.83L712.62 120.83C710.11 120.66 707.65 119.99 705.4 118.86C703.15 117.74 701.14 116.18 699.5 114.27C697.88 112.37 696.65 110.17 695.89 107.79C695.13 105.41 694.85 102.91 695.07 100.42C695.37 96.74 696.74 93.24 699.01 90.32C701.27 87.41 704.34 85.22 707.83 84.03C711.31 82.83 715.08 82.67 718.65 83.57C722.23 84.48 725.47 86.4 727.97 89.12C730.47 91.83 732.12 95.21 732.73 98.85C733.34 102.49 732.88 106.23 731.4 109.61C729.93 112.99 727.5 115.86 724.41 117.89C721.33 119.91 717.72 120.99 714.03 121L714.19 120.83ZM714.19 85.26C710.46 85.28 706.85 86.57 703.95 88.92C701.05 91.27 699.04 94.53 698.25 98.18C697.45 101.83 697.93 105.64 699.59 108.98C701.25 112.32 704 114.99 707.39 116.56C710.78 118.13 714.6 118.49 718.22 117.59C721.84 116.7 725.05 114.59 727.32 111.62C729.58 108.66 730.77 105.01 730.68 101.28C730.59 97.54 729.23 93.96 726.83 91.1C725.43 89.44 723.71 88.08 721.78 87.08C719.85 86.09 717.74 85.49 715.57 85.32L714.19 85.26Z" fill="#9EBBFF" fill-opacity="1.000000" fill-rule="nonzero"/>
		</g>
		<g opacity="0.700000">
			<path id="Vector" d="M210.15 166.87L208.91 166.87C206.93 166.73 204.99 166.2 203.21 165.31C201.43 164.42 199.85 163.19 198.55 161.68C197.27 160.18 196.3 158.45 195.7 156.57C195.1 154.69 194.88 152.71 195.05 150.75C195.29 147.85 196.37 145.08 198.16 142.78C199.95 140.48 202.37 138.75 205.12 137.81C207.88 136.86 210.85 136.74 213.67 137.45C216.5 138.17 219.05 139.69 221.02 141.83C223 143.97 224.31 146.64 224.79 149.51C225.27 152.38 224.91 155.34 223.74 158C222.57 160.67 220.65 162.94 218.22 164.54C215.78 166.14 212.94 166.99 210.02 167L210.15 166.87ZM210.15 138.78C207.21 138.8 204.35 139.82 202.06 141.67C199.78 143.53 198.19 146.11 197.56 148.98C196.94 151.86 197.31 154.87 198.62 157.51C199.93 160.14 202.11 162.26 204.78 163.49C207.46 164.73 210.47 165.02 213.33 164.31C216.19 163.6 218.72 161.94 220.51 159.6C222.3 157.25 223.24 154.37 223.16 151.43C223.1 148.48 222.02 145.65 220.13 143.39C219.02 142.08 217.67 141.01 216.14 140.22C214.62 139.44 212.95 138.97 211.24 138.83L210.15 138.78Z" fill="#9EBBFF" fill-opacity="1.000000" fill-rule="nonzero"/>
		</g>
		<g opacity="0.700000">
			<path id="Vector" d="M19.19 581.83L17.62 581.83C15.11 581.66 12.65 580.99 10.4 579.86C8.15 578.74 6.14 577.18 4.5 575.27C2.88 573.37 1.65 571.17 0.89 568.79C0.13 566.41 -0.15 563.91 0.07 561.42C0.37 557.74 1.74 554.24 4.01 551.32C6.27 548.41 9.34 546.22 12.83 545.03C16.31 543.83 20.08 543.67 23.65 544.57C27.23 545.48 30.47 547.4 32.97 550.12C35.47 552.83 37.12 556.21 37.73 559.85C38.34 563.49 37.88 567.23 36.4 570.61C34.93 573.99 32.5 576.86 29.41 578.89C26.33 580.91 22.72 581.99 19.03 582L19.19 581.83ZM19.19 546.26C15.46 546.28 11.85 547.57 8.95 549.92C6.05 552.27 4.04 555.53 3.24 559.18C2.45 562.83 2.93 566.64 4.59 569.98C6.25 573.32 9 575.99 12.39 577.56C15.78 579.13 19.6 579.49 23.22 578.59C26.84 577.7 30.05 575.59 32.31 572.62C34.58 569.66 35.77 566.01 35.68 562.28C35.59 558.55 34.23 554.96 31.83 552.1C30.43 550.44 28.71 549.08 26.78 548.08C24.85 547.09 22.74 546.5 20.57 546.33L19.19 546.26Z" fill="#C6D7FF" fill-opacity="1.000000" fill-rule="nonzero"/>
		</g>
		<g opacity="0.700000">
			<path id="Vector" d="M670.26 352.78L668.19 352.78C664.88 352.55 661.65 351.67 658.69 350.19C655.72 348.71 653.08 346.65 650.92 344.14C648.79 341.64 647.17 338.75 646.17 335.62C645.17 332.49 644.8 329.19 645.09 325.92C645.49 321.09 647.29 316.47 650.27 312.64C653.26 308.81 657.29 305.93 661.88 304.35C666.47 302.77 671.42 302.57 676.12 303.76C680.83 304.95 685.09 307.48 688.38 311.05C691.67 314.62 693.85 319.07 694.65 323.86C695.45 328.64 694.85 333.56 692.9 338.01C690.96 342.46 687.76 346.24 683.7 348.9C679.64 351.57 674.9 352.99 670.04 353L670.26 352.78ZM670.26 305.97C665.35 306 660.59 307.7 656.78 310.79C652.96 313.88 650.31 318.18 649.27 322.98C648.23 327.78 648.85 332.79 651.04 337.18C653.23 341.58 656.85 345.1 661.31 347.16C665.76 349.22 670.79 349.7 675.56 348.52C680.32 347.34 684.54 344.57 687.52 340.66C690.5 336.76 692.06 331.96 691.94 327.05C691.83 322.14 690.04 317.42 686.88 313.66C685.04 311.48 682.78 309.68 680.24 308.38C677.69 307.07 674.92 306.28 672.07 306.06L670.26 305.97Z" fill="#C6D7FF" fill-opacity="1.000000" fill-rule="nonzero"/>
		</g>
		<g opacity="0.700000">
			<path id="Vector" d="M1382.23 348.81L1380.41 348.81C1377.5 348.61 1374.66 347.83 1372.05 346.53C1369.44 345.22 1367.12 343.41 1365.21 341.21C1363.34 339.01 1361.92 336.46 1361.04 333.7C1360.16 330.95 1359.83 328.05 1360.08 325.17C1360.44 320.91 1362.02 316.85 1364.65 313.48C1367.27 310.11 1370.82 307.58 1374.86 306.19C1378.9 304.8 1383.25 304.62 1387.39 305.67C1391.53 306.71 1395.28 308.94 1398.18 312.08C1401.07 315.22 1402.99 319.14 1403.7 323.35C1404.4 327.57 1403.87 331.89 1402.16 335.81C1400.45 339.72 1397.63 343.05 1394.06 345.4C1390.49 347.74 1386.31 348.99 1382.04 349L1382.23 348.81ZM1382.23 307.62C1377.91 307.64 1373.73 309.13 1370.37 311.85C1367.01 314.57 1364.68 318.36 1363.76 322.58C1362.85 326.8 1363.39 331.21 1365.32 335.08C1367.24 338.95 1370.43 342.05 1374.35 343.86C1378.28 345.67 1382.7 346.1 1386.89 345.06C1391.09 344.02 1394.8 341.58 1397.42 338.14C1400.05 334.71 1401.42 330.48 1401.32 326.16C1401.21 321.84 1399.64 317.69 1396.86 314.38C1395.24 312.46 1393.25 310.88 1391.01 309.73C1388.78 308.58 1386.33 307.89 1383.83 307.69L1382.23 307.62Z" fill="#9EBBFF" fill-opacity="1.000000" fill-rule="nonzero"/>
		</g>
	</g>
</svg>
