<svg width="1404" height="582" fill="none" xmlns="http://www.w3.org/2000/svg"><defs><clipPath id="a"><rect rx="0" width="1403" height="581" transform="translate(1 1)" fill="#fff" fill-opacity="0"/></clipPath></defs><g clip-path="url(#a)"><path d="M1341 15a14 14 0 0 1-10 12 14 14 0 1 1 10-12ZM602 34a14 14 0 0 1-18 12 14 14 0 1 1 18-12ZM66 129a9 9 0 1 1-18-2 9 9 0 0 1 18 2Z" fill="#ECF2FF"/><path d="M103 334a14 14 0 0 1-18 12 14 14 0 1 1 18-12ZM740 522a14 14 0 0 1-18 12 14 14 0 1 1 18-12ZM1369 509a14 14 0 0 1-10 12 14 14 0 0 1-18-11 14 14 0 1 1 28-1Z" fill="#C6D7FF"/><path d="M714 121h-1a19 19 0 1 1 15-32 19 19 0 0 1-14 32Zm0-36a16 16 0 1 0 2 0h-2ZM210 167h-1a15 15 0 0 1-10-5 15 15 0 0 1-4-11 15 15 0 1 1 15 16Zm0-28a13 13 0 0 0-12 10 13 13 0 0 0 7 14 13 13 0 1 0 6-24h-1Z" fill="#9EBBFF" opacity=".7"/><path d="M19 582h-1a19 19 0 1 1 15-32 19 19 0 0 1-14 32Zm0-36a16 16 0 1 0 2 0h-2ZM670 353h-2a25 25 0 0 1-22-17 25 25 0 0 1 4-23 25 25 0 0 1 38-2 25 25 0 0 1-18 42Zm0-47a22 22 0 1 0 2 0h-2Z" fill="#C6D7FF" opacity=".7"/><path d="M1382 349h-2a22 22 0 0 1-15-8 22 22 0 0 1 0-28 22 22 0 1 1 17 36Zm0-41a19 19 0 1 0 2 0h-2Z" fill="#9EBBFF" opacity=".7"/></g></svg>