<svg width="1404" height="582" fill="none" xmlns="http://www.w3.org/2000/svg"><g clip-path="url(#a)"><path d="M1341 15a14 14 0 0 1-10 12 14 14 0 1 1 10-12ZM602 34a14 14 0 1 1-28-2 14 14 0 0 1 28 2ZM66 129a9 9 0 1 1-18-2 9 9 0 0 1 18 2Z" fill="#ECF2FF"/><path d="M103 334a14 14 0 1 1-28-2 14 14 0 0 1 28 2ZM740 522a14 14 0 1 1-28-2 14 14 0 0 1 28 2ZM1369 509a14 14 0 0 1-10 12 14 14 0 1 1 10-12Z" fill="#C6D7FF"/><path opacity=".7" d="M714 121h-1a19 19 0 0 1-17-13 19 19 0 0 1 3-18 19 19 0 1 1 15 31Zm0-36a16 16 0 1 0 2 0h-2ZM210 167h-1a15 15 0 0 1-13-10 15 15 0 0 1 2-14 15 15 0 1 1 12 24Zm0-28a13 13 0 1 0 1 0h-1Z" fill="#9EBBFF"/><path opacity=".7" d="M19 582h-1a19 19 0 0 1-17-13 19 19 0 0 1 3-18 19 19 0 1 1 15 31Zm0-36a16 16 0 1 0 2 0h-2ZM670 353h-2a25 25 0 0 1-22-17 25 25 0 0 1 4-23 25 25 0 1 1 20 40Zm0-47a22 22 0 1 0 2 0h-2Z" fill="#C6D7FF"/><path opacity=".7" d="M1382 349h-2a22 22 0 0 1-19-15 22 22 0 0 1 4-21 22 22 0 1 1 17 36Zm0-41a19 19 0 1 0 2 0h-2Z" fill="#9EBBFF"/></g><defs><clipPath id="a"><path fill="#fff" d="M0 0h1404v582H0z"/></clipPath></defs></svg>