<svg width="518" height="386" fill="none" xmlns="http://www.w3.org/2000/svg"><g clip-path="url(#a)"><path d="M259 386c111 0 201-5 201-12 0-6-90-11-201-11s-201 5-201 11c0 7 90 12 201 12Z" fill="#F5F5F5"/><path opacity=".1" d="M142 292a4 4 0 0 1 4-3c9 0 17 6 25 13 2 2 4 3 6 2l1-2v-4l-2-3c-3-4-7-6-10-11l-5-8c-1-3-3-7-2-11s4-3 6-3c6 2 12 6 17 12l15 19 6 6c3 1 6 0 7-4s-1-8-1-12l1-13 2-7c3-4 7-2 9 1l5 8c3 8 5 17 5 26 0 5 1 11 4 15 3 7 10 6 15 3 9-6 16-21 18-36 1-5 1-11 3-15 1-4 6-6 8-2v6l-1 6c-1 4-2 10 0 12a3 3 0 0 0 3 1c9-2 18-11 24-23l4-14 2-9c0-2 1-5 3-6 3-5 12-3 12 6l-2 16c0 3 2 3 3 3 8-1 14-8 20-15 6-9 14-21 23-21 2 0 5 0 6 3v6c-1 8-7 12-11 16-12 11-22 23-31 36-1 3-2 6-1 8a2 2 0 0 0 2 1c5 0 9-4 13-7 3-2 8-5 12-3a11 11 0 0 1 5 7v8c-1 7-8 10-11 14l-14 15-11 16c-13 18-32 20-48 22a211 211 0 0 1-106-16c-5-2-11-4-13-12l1-4c4-3 9 0 13 2l15 9a7 7 0 0 0 5 0l2-2v-3l-1-2c-9-9-20-17-32-22l-11-5-8-7c-2-3-5-8-4-13ZM340 216a5 5 0 0 1-7-4c3-17 11-30 20-23 7 5-4 18-13 27Z" fill="#407BFF"/><path opacity=".3" d="M315 224a20 20 0 0 0 10-15l7-85a32 32 0 0 0-8-25l-22-23a13 13 0 0 1-3-9l1-13-56-4-1 12a13 13 0 0 1-5 9l-25 19a32 32 0 0 0-12 23l-7 85a20 20 0 0 0 7 17 20 20 0 0 0-10 16l-8 108a20 20 0 0 0 17 21l93 8a20 20 0 0 0 21-18l9-109a20 20 0 0 0-8-17Z" fill="#407BFF"/><path opacity=".3" d="m244 50-1 9 56 5 1-10-56-4Z" fill="#407BFF"/><path opacity=".3" d="m323 102-21-24s-14 1-3 18c9 15 25 12 24 6Z" fill="#fff"/><path opacity=".2" d="M183 339a20 20 0 0 0 17 21l93 8a20 20 0 0 0 21-18l-131-11Z" fill="#407BFF"/><path opacity=".3" d="M319 104a25 25 0 0 1 7 19l-7 85a13 13 0 0 1-7 11l-8 4 7 6a13 13 0 0 1 5 12l-8 109a13 13 0 0 1-15 12l-92-8a13 13 0 0 1-12-14l9-109a13 13 0 0 1 6-11l9-4-8-6a13 13 0 0 1-5-11l7-86a25 25 0 0 1 10-18c8-5 30 8 56 10 25 2 41-4 46-1Z" fill="#407BFF"/><path opacity=".2" d="M273 105c-26-2-48-15-56-10a132 132 0 0 0 102 9c-5-3-21 3-46 1ZM194 198a20 20 0 0 0 7 17l114 9a20 20 0 0 0 10-15l-131-11Z" fill="#407BFF"/><path d="m301 39-55-5c-3 0-5 2-5 4l-1 14c0 2 1 4 4 4l55 5c3 0 5-2 5-4l1-13c0-3-1-5-4-5Z" fill="#407BFF"/><path opacity=".2" d="M247 54a1 1 0 0 1-1 0l1-17a1 1 0 0 1 1 0l-1 17ZM257 55a1 1 0 0 1-1 0l2-17a1 1 0 0 1 1 0l-2 17ZM267 56a1 1 0 0 1-1-1l2-16a1 1 0 0 1 1 0l-2 16a1 1 0 0 1 0 1ZM277 57a1 1 0 0 1-1-1l2-16a1 1 0 0 1 0-1 1 1 0 0 1 1 1l-2 16a1 1 0 0 1 0 1ZM287 58a1 1 0 0 1-1-1l2-16a1 1 0 0 1 0-1 1 1 0 0 1 1 1l-1 16a1 1 0 0 1-1 0 1 1 0 0 1 0 1ZM297 58l1-17a1 1 0 0 1 1 0 1 1 0 0 1 0 1l-1 16a1 1 0 0 1-1 0Z" fill="#fff"/><path opacity=".2" d="M211 170c-1-9-14-9-15 0l-2 28a20 20 0 0 0 7 17 20 20 0 0 0-10 16l-9 108a20 20 0 0 0 18 21l24 2a17 17 0 0 0 19-20l-32-172Z" fill="#407BFF"/><path opacity=".3" d="M303 312a10 10 0 1 1-20-2 10 10 0 0 1 20 2ZM271 273a7 7 0 1 1-14-1 7 7 0 0 1 14 1ZM241 185a7 7 0 1 1-1-14 7 7 0 0 1 1 14ZM260 143a5 5 0 1 1 0-11 5 5 0 0 1 0 11ZM292 242a3 3 0 1 1-6-1 3 3 0 0 1 6 1Z" fill="#407BFF"/><path opacity=".7" d="M238 323a6 6 0 0 1-6-4 6 6 0 0 1 1-6 6 6 0 1 1 5 10Zm0-11a5 5 0 1 0 1 0h-1ZM302 202Zm-3-5a4 4 0 1 0 6-2 4 4 0 0 0-2-1 4 4 0 0 0-4 3ZM235 110Zm-1-2a1 1 0 0 0 1 1 1 1 0 1 0 0-2 1 1 0 0 0-1 1ZM281 163Zm0-9a4 4 0 0 0-4 4 4 4 0 0 0 5 4 4 4 0 0 0 0-8h-1Z" fill="#fff"/><path opacity=".3" d="m324 209 6-82a4 4 0 0 0-8 0l-6 81a16 16 0 0 1-9 13l-4 2 4 3a16 16 0 0 1 6 15l-9 108c0 7-5 10-10 13a2 2 0 0 0 0 3 16 16 0 0 0 18-15l9-109a16 16 0 0 0-6-14l-4-3 4-2a16 16 0 0 0 9-13Z" fill="#fff"/><path opacity=".3" d="M431 335c-1-5-15-2-18-1l-16 4c-6 3-13 6-19 2-3-2 9-6 10-6l15-7c2-1 5-4 4-6-2-3-6-2-9-2-9 1-18 3-26 6l-23 11c-3 2-6 3-10 3-3 1-8 0-9-2-2-2 0-4 0-6v-7l-4-4c-4-2-10-1-13 0l-7 5c-4 4-7 9-9 14a13 13 0 0 1-5 8c-6 4-16 4-24 2-13-3-24-11-26-19-1-4-2-9-7-10-4-1-11-1-10 4l3 3c1 2 3 6-2 7h-4c-14-1-26-5-35-12l-6-7-3-5-4-4c-5-2-17-1-18 4-1 3 1 6 2 8v1l-2 1c-11 1-22-3-31-8-10-5-21-11-35-11l-8 1-2 1a2 2 0 0 0-1 3l2 2c5 3 10 5 16 6 15 6 31 12 45 20 1 1 4 3 2 4-2 2-6 1-9 0l-13-3c-6-1-12-2-18-1-4 0-7 2-8 4a4 4 0 0 0-1 4c2 4 12 5 17 7l20 8 17 9c19 9 47 10 72 11a869 869 0 0 0 140-7l17-2 16-3 5-3c2-2 2-3 0-4-6-1-12 0-17 1a323 323 0 0 0-26 6l-9-1-2-1 2-2 35-10 24-4c8-1 16-1 22-6l3-4v-2ZM111 293c-3-8-14-24-17-15-1 5 17 15 17 15ZM382 310c6-5 13-8 14-4 1 5-14 4-14 4ZM145 268c-4-2-7-5-5-7 3-1 5 7 5 7Z" fill="#407BFF"/></g><defs><clipPath id="a"><path fill="#fff" d="M0 0h518v386H0z"/></clipPath></defs></svg>