<svg width="246" height="166" viewBox="0 0 246 166" fill="none" xmlns="http://www.w3.org/2000/svg">
<path d="M121 135.491C180.966 135.491 229.578 132.662 229.578 129.172C229.578 125.682 180.966 122.853 121 122.853C61.0336 122.853 12.4214 125.682 12.4214 129.172C12.4214 132.662 61.0336 135.491 121 135.491Z" fill="#F5F5F5"/>
<path opacity="0.1" d="M7.09047 87.3279C7.15769 86.8251 7.41584 86.367 7.81173 86.0482C8.20763 85.7293 8.71112 85.574 9.21847 85.6142C14.0121 85.5416 18.4977 88.9189 22.6585 92.5418C23.5825 93.34 24.5849 94.1662 25.6209 93.3289C25.9414 93.0645 26.1754 92.7107 26.2929 92.3129C26.4721 91.6625 26.4721 90.976 26.2929 90.3256C26.1388 89.7886 25.8821 89.2863 25.5369 88.8463C23.7281 86.4739 21.5273 85.3351 19.7409 82.8845C18.7403 81.4805 17.9112 79.9626 17.2713 78.3629C16.7113 76.9561 15.5913 74.6842 16.0393 72.7806C16.5377 70.5031 18.2457 70.6984 19.2817 71.011C22.5577 71.9879 25.6153 74.3157 28.3929 77.2129C31.3553 80.2943 34.0377 84.0065 36.7089 87.6964C37.7169 89.0975 38.7809 90.5377 40.0689 91.0457C41.3569 91.5537 42.9865 90.7331 43.5297 88.7123C44.0729 86.6916 43.4345 84.3693 43.3001 82.3597C43.1203 79.9617 43.2369 77.5507 43.6473 75.181C43.8293 73.9282 44.2534 72.7224 44.8961 71.6307C46.3409 69.5206 48.4801 70.263 49.8801 71.8595C50.9487 73.195 51.775 74.7063 52.3217 76.3253C53.8926 80.7984 54.8349 85.4666 55.1217 90.1972C55.3345 93.1279 55.7825 96.1814 56.9921 98.4534C58.9465 102.126 62.5921 101.836 65.4201 99.9103C70.3425 96.561 74.1393 88.9914 75.1529 80.5288C75.4833 77.7711 75.5673 74.7902 76.5753 72.4792C77.4545 70.4807 79.7113 69.1298 80.8145 71.2846C81.2588 72.362 81.3831 73.5439 81.1729 74.6897C80.9752 75.8246 80.6964 76.9439 80.3385 78.0391C79.7785 79.937 79.2185 83.4929 80.7305 84.6038C80.9559 84.7403 81.2085 84.8261 81.4707 84.855C81.7328 84.8839 81.9982 84.8553 82.2481 84.7713C87.1985 83.7441 91.8017 79.0997 94.8257 72.6187C95.9213 70.1798 96.7584 67.6336 97.3233 65.0213C97.6873 63.4248 97.8385 61.711 98.2417 60.1257C98.5001 58.878 99.0232 57.6998 99.7761 56.6703C101.702 54.3704 106.149 55.4533 106.401 60.3824C106.552 63.235 105.79 66.0261 105.51 68.8172C105.337 70.5589 106.418 70.5477 107.224 70.4919C111.088 70.1011 114.504 66.2159 117.534 62.1743C121.134 57.368 125.122 51.1271 130.038 50.9429C131.158 50.9038 133.023 51.0489 133.695 52.7738C134.007 53.8308 134.007 54.9546 133.695 56.0116C132.698 60.1312 129.775 62.2581 127.535 64.2956C121.22 70.2004 115.665 76.8645 110.998 84.1349C110.287 85.2513 109.554 87.0935 110.231 88.1876C110.361 88.3958 110.55 88.5604 110.775 88.6599C111 88.7595 111.249 88.7894 111.491 88.7458C113.804 88.5672 115.971 86.7362 118.082 85.2179C120.194 83.6995 122.59 82.3709 124.802 83.5153C125.484 83.9232 126.079 84.4618 126.55 85.0999C127.022 85.738 127.363 86.463 127.552 87.233C127.947 88.5826 128.011 90.0071 127.737 91.3862C126.925 95.1766 123.414 96.8792 121.482 98.7492C118.821 101.308 116.386 104.088 114.202 107.061C112.186 109.813 110.282 112.828 108.266 115.529C100.986 125.203 90.9057 126.638 81.9457 127.76C72.1961 128.977 62.4241 128.318 52.7305 127.04C45.6801 126.102 38.7305 124.104 31.8481 121.731C29.4849 120.877 27.1385 119.945 24.8201 118.84C22.3281 117.656 18.6601 116.925 17.7025 112.264C17.5009 111.259 17.7361 110.444 18.4025 110.07C20.4689 108.898 23.4145 110.466 25.3577 111.499C28.0401 112.928 30.5825 114.966 33.3377 116.065C33.7806 116.282 34.263 116.408 34.7558 116.433C35.2486 116.459 35.7415 116.385 36.2049 116.216C36.6592 116.026 37.0333 115.685 37.2633 115.25C37.5562 114.684 37.628 114.03 37.4649 113.414C37.3513 113.081 37.1592 112.781 36.9049 112.537C31.9456 107.471 26.0205 103.443 19.4777 100.692C17.3777 99.7931 15.2329 99.0562 13.2113 97.7835C11.5772 96.7761 10.167 95.4464 9.06727 93.8759C8.12647 92.3743 6.61447 89.7227 7.09047 87.3279Z" fill="#407BFF"/>
<path opacity="0.1" d="M114.202 46.2928C113.827 46.6793 113.337 46.9337 112.805 47.0178C112.273 47.1018 111.728 47.0108 111.252 46.7586C110.776 46.5063 110.396 46.1065 110.168 45.6196C109.941 45.1328 109.878 44.5852 109.991 44.0599C111.923 34.7096 116.123 27.9105 121.118 31.4384C124.847 34.0677 119.001 41.319 114.202 46.2928Z" fill="#407BFF"/>
<path opacity="0.3" d="M152.482 58.487C151.274 57.2289 149.776 56.2897 148.119 55.7532C146.463 55.2168 144.7 55.0998 142.989 55.4127L97.6061 63.654C95.2728 64.0759 93.054 64.9827 91.0923 66.316C89.1306 67.6494 87.4693 69.3799 86.2152 71.3964L77.2047 85.887C76.7056 86.6852 76.0464 87.3704 75.2688 87.8992C74.4912 88.4279 73.6123 88.7886 72.6877 88.9584L66.04 90.1599L71.4649 119.961L78.1127 118.759C79.0374 118.592 79.9872 118.619 80.9013 118.84C81.8154 119.062 82.6737 119.472 83.4213 120.044L96.9742 130.443C98.8598 131.888 101.025 132.923 103.331 133.481C105.637 134.039 108.033 134.108 110.366 133.684L155.751 125.448C157.46 125.139 159.066 124.41 160.426 123.326C161.785 122.243 162.855 120.838 163.542 119.239C164.748 120.497 166.247 121.436 167.903 121.971C169.56 122.507 171.322 122.622 173.033 122.308L230.9 111.805C233.65 111.304 236.088 109.728 237.678 107.424C239.268 105.119 239.88 102.275 239.379 99.5152L230.421 50.3174C230.173 48.9509 229.659 47.6465 228.908 46.4786C228.157 45.3107 227.184 44.3022 226.045 43.5107C224.907 42.7192 223.624 42.1602 222.27 41.8657C220.916 41.5711 219.519 41.5467 218.156 41.794L160.289 52.2962C158.579 52.6015 156.97 53.3265 155.608 54.4067C154.246 55.4869 153.172 56.8886 152.482 58.487Z" fill="#407BFF"/>
<path opacity="0.3" d="M71.4725 119.95L76.5972 119.02L71.1746 89.2253L66.0499 90.1552L71.4725 119.95Z" fill="#407BFF"/>
<path opacity="0.3" d="M87.447 71.3563L78.4256 85.8498C78.4256 85.8498 80.6849 93.0306 88.0539 85.0092C94.2765 78.1878 90.8613 70.1225 87.447 71.3563Z" fill="white"/>
<path opacity="0.2" d="M230.877 111.806C233.627 111.304 236.065 109.728 237.655 107.424C239.245 105.12 239.857 102.275 239.356 99.5155L230.398 50.3176C230.15 48.9512 229.635 47.6468 228.885 46.4789C228.134 45.311 227.161 44.3025 226.022 43.511C224.883 42.7194 223.601 42.1604 222.247 41.8659C220.893 41.5713 219.495 41.547 218.133 41.7942L230.877 111.806Z" fill="#407BFF"/>
<path opacity="0.3" d="M89.0515 73.1816C90.0594 71.563 91.3935 70.1738 92.9685 69.1028C94.5434 68.0319 96.3246 67.3029 98.1979 66.9624L143.586 58.7198C144.754 58.509 145.955 58.5908 147.084 58.9579C148.212 59.325 149.234 59.9661 150.057 60.8241L153.548 64.4511L155.541 59.83C156.008 58.7378 156.737 57.7789 157.664 57.0389C158.591 56.2989 159.687 55.8007 160.854 55.5888L218.721 45.0866C220.596 44.7453 222.53 45.1641 224.1 46.251C225.67 47.338 226.747 49.0043 227.094 50.8843L236.052 100.082C236.224 101.016 236.212 101.974 236.016 102.902C235.819 103.83 235.442 104.71 234.906 105.492C234.37 106.274 233.686 106.941 232.892 107.457C232.098 107.973 231.21 108.327 230.28 108.499L172.412 119.001C171.245 119.214 170.043 119.134 168.914 118.768C167.784 118.402 166.762 117.761 165.938 116.904L162.447 113.276L160.447 117.871C159.98 118.963 159.25 119.922 158.323 120.662C157.396 121.402 156.301 121.9 155.134 122.112L109.749 130.348C107.876 130.687 105.951 130.63 104.099 130.181C102.248 129.732 100.509 128.9 98.9948 127.739C95.0476 124.159 98.9434 110.94 96.4686 97.3469C93.9937 83.7539 88.3999 76.3361 89.0515 73.1816Z" fill="#407BFF"/>
<path opacity="0.2" d="M96.4811 97.3725C98.9653 110.957 95.0562 124.191 99.0034 127.771C101.126 119.086 101.379 109.742 99.045 96.9116C96.7108 84.0809 89.0514 73.1815 89.0514 73.1815C88.3999 76.3361 94.0131 83.7834 96.4811 97.3725Z" fill="#407BFF"/>
<path opacity="0.2" d="M155.749 125.443C157.459 125.133 159.065 124.404 160.424 123.321C161.783 122.237 162.854 120.833 163.54 119.233L152.465 58.4913C151.258 57.2331 149.759 56.2939 148.103 55.7575C146.446 55.221 144.684 55.104 142.973 55.417L155.749 125.443Z" fill="#407BFF"/>
<path d="M22.7136 55.5915L9.36943 82.6836C8.81051 83.8184 9.27443 85.19 10.4056 85.7472L16.9759 88.9834C18.1071 89.5406 19.4772 89.0724 20.0361 87.9377L33.3802 60.8455C33.9392 59.7108 33.4752 58.3392 32.344 57.782L25.7738 54.5457C24.6426 53.9886 23.2725 54.4568 22.7136 55.5915Z" fill="#407BFF"/>
<path opacity="0.2" d="M19.5486 86.1036C19.5325 86.1369 19.5099 86.1666 19.4823 86.191C19.4547 86.2155 19.4226 86.2343 19.3877 86.2463C19.3529 86.2583 19.316 86.2633 19.2793 86.2609C19.2426 86.2586 19.2067 86.249 19.1737 86.2327L11.2172 82.3364C11.1505 82.3037 11.0996 82.2458 11.0756 82.1754C11.0516 82.105 11.0565 82.0278 11.0893 81.9609C11.122 81.894 11.1799 81.8428 11.2502 81.8186C11.3205 81.7944 11.3975 81.7992 11.4642 81.8318L19.4072 85.7469C19.4718 85.777 19.5224 85.8307 19.5487 85.897C19.5749 85.9633 19.5749 86.0372 19.5486 86.1036Z" fill="white"/>
<path opacity="0.2" d="M21.9674 81.1884C21.9513 81.2216 21.9288 81.2513 21.9012 81.2758C21.8736 81.3003 21.8414 81.3191 21.8066 81.331C21.7717 81.343 21.7349 81.348 21.6981 81.3457C21.6614 81.3433 21.6255 81.3337 21.5925 81.3174L13.6494 77.4024C13.5836 77.3688 13.5335 77.3108 13.5096 77.2407C13.4857 77.1706 13.49 77.0939 13.5215 77.0268C13.5375 76.9938 13.56 76.9643 13.5875 76.9401C13.6151 76.916 13.6472 76.8975 13.682 76.886C13.7167 76.8744 13.7535 76.87 13.7899 76.8729C13.8264 76.8758 13.8619 76.8861 13.8944 76.903L21.8313 80.8337C21.8935 80.8656 21.9418 80.9195 21.9669 80.9849C21.992 81.0503 21.9922 81.1227 21.9674 81.1884Z" fill="white"/>
<path opacity="0.2" d="M24.4046 76.2862C24.3885 76.3194 24.366 76.3491 24.3384 76.3736C24.3108 76.3981 24.2786 76.4169 24.2438 76.4288C24.209 76.4408 24.1721 76.4458 24.1354 76.4435C24.0986 76.4411 24.0627 76.4315 24.0297 76.4152L16.0867 72.5002C16.0218 72.4655 15.9726 72.4075 15.9488 72.3378C15.9251 72.2681 15.9286 72.1919 15.9587 72.1246C15.9749 72.0914 15.9974 72.0617 16.025 72.0372C16.0526 72.0128 16.0847 71.994 16.1196 71.982C16.1544 71.97 16.1913 71.965 16.228 71.9674C16.2648 71.9697 16.3007 71.9793 16.3337 71.9956L24.2767 75.9107C24.3098 75.9268 24.3394 75.9493 24.3638 75.9769C24.3881 76.0045 24.4068 76.0367 24.4187 76.0716C24.4306 76.1065 24.4355 76.1434 24.433 76.1802C24.4306 76.2171 24.421 76.2531 24.4046 76.2862Z" fill="white"/>
<path opacity="0.2" d="M26.8019 71.3625C26.7858 71.3957 26.7632 71.4254 26.7356 71.4499C26.708 71.4743 26.6759 71.4931 26.641 71.5051C26.6062 71.5171 26.5693 71.5221 26.5326 71.5197C26.4959 71.5174 26.46 71.5078 26.427 71.4915L18.4839 67.5764C18.4181 67.5428 18.3679 67.4849 18.3441 67.4148C18.3202 67.3447 18.3245 67.268 18.356 67.2009C18.372 67.1679 18.3944 67.1384 18.422 67.1142C18.4496 67.09 18.4817 67.0716 18.5165 67.0601C18.5512 67.0485 18.5879 67.0441 18.6244 67.047C18.6609 67.0499 18.6964 67.0601 18.7288 67.0771L26.6719 70.9922C26.705 71.0075 26.7347 71.0293 26.7593 71.0564C26.7838 71.0834 26.8027 71.1152 26.8149 71.1497C26.827 71.1842 26.8321 71.2208 26.8298 71.2573C26.8276 71.2939 26.8181 71.3296 26.8019 71.3625Z" fill="white"/>
<path opacity="0.2" d="M29.2106 66.4729C29.1945 66.5061 29.172 66.5358 29.1444 66.5603C29.1168 66.5848 29.0846 66.6036 29.0498 66.6155C29.0149 66.6275 28.9781 66.6325 28.9413 66.6302C28.9046 66.6278 28.8687 66.6182 28.8357 66.6019L20.8926 62.6869C20.8288 62.6513 20.7803 62.5932 20.7567 62.5239C20.7331 62.4545 20.7359 62.3788 20.7647 62.3113C20.7808 62.2781 20.8034 62.2484 20.831 62.224C20.8586 62.1995 20.8907 62.1807 20.9256 62.1687C20.9604 62.1567 20.9973 62.1517 21.034 62.1541C21.0707 62.1564 21.1066 62.166 21.1396 62.1823L29.0827 66.0974C29.1163 66.1129 29.1465 66.135 29.1712 66.1626C29.196 66.1901 29.215 66.2224 29.227 66.2575C29.2389 66.2926 29.2436 66.3298 29.2408 66.3668C29.238 66.4039 29.2278 66.4399 29.2106 66.4729Z" fill="white"/>
<path opacity="0.2" d="M31.6372 61.5371C31.621 61.5703 31.5985 61.6 31.5709 61.6245C31.5433 61.649 31.5112 61.6678 31.4763 61.6798C31.4415 61.6918 31.4046 61.6967 31.3679 61.6944C31.3311 61.6921 31.2952 61.6825 31.2622 61.6662L23.3058 57.7699C23.2399 57.7363 23.1898 57.6783 23.1659 57.6082C23.1421 57.5381 23.1463 57.4615 23.1778 57.3944C23.2113 57.3287 23.2693 57.2789 23.3391 57.2557C23.4089 57.2325 23.4849 57.2379 23.5507 57.2705L31.501 61.1824C31.5632 61.2144 31.6115 61.2682 31.6366 61.3336C31.6618 61.399 31.6619 61.4715 31.6372 61.5371Z" fill="white"/>
<path opacity="0.2" d="M138.505 120.422C134.191 122.459 136.29 128.999 140.98 128.148L155.755 125.465C157.465 125.155 159.071 124.426 160.43 123.342C161.789 122.259 162.86 120.855 163.546 119.255C164.753 120.513 166.252 121.452 167.908 121.988C169.564 122.523 171.327 122.639 173.037 122.324L230.904 111.822C233.655 111.32 236.093 109.744 237.683 107.44C239.272 105.136 239.884 102.291 239.383 99.5315L237.069 86.8173C236.813 85.4167 236.24 84.0932 235.394 82.9489C234.548 81.8047 233.451 80.8704 232.188 80.2182C230.926 79.5659 229.531 79.2132 228.111 79.1872C226.692 79.1612 225.286 79.4627 224.003 80.0683L138.505 120.422Z" fill="#407BFF"/>
<path opacity="0.3" d="M199.813 52.6863C200.876 52.4937 201.972 52.6213 202.963 53.0531C203.954 53.4848 204.795 54.2013 205.381 55.112C205.967 56.0226 206.27 57.0866 206.253 58.1693C206.236 59.2519 205.9 60.3048 205.286 61.1946C204.672 62.0845 203.808 62.7715 202.804 63.1686C201.8 63.5658 200.701 63.6554 199.645 63.426C198.59 63.1967 197.625 62.6587 196.873 61.8801C196.121 61.1015 195.616 60.1173 195.422 59.0518C195.163 57.6226 195.48 56.1494 196.303 54.9559C197.126 53.7625 198.389 52.9462 199.813 52.6863Z" fill="#407BFF"/>
<path opacity="0.3" d="M183.9 74.9747C184.652 74.8379 185.428 74.9277 186.129 75.2329C186.831 75.5381 187.426 76.045 187.841 76.6893C188.256 77.3337 188.471 78.0866 188.459 78.8528C188.447 79.6191 188.209 80.3643 187.775 80.9941C187.34 81.6239 186.729 82.1101 186.019 82.3912C185.308 82.6723 184.53 82.7356 183.783 82.5732C183.036 82.4107 182.353 82.0298 181.821 81.4786C181.289 80.9274 180.932 80.2307 180.795 79.4765C180.613 78.4659 180.837 77.4247 181.419 76.5809C182.001 75.7371 182.893 75.1595 183.9 74.9747Z" fill="#407BFF"/>
<path opacity="0.3" d="M142.643 102.802C142.876 103.532 142.887 104.314 142.676 105.05C142.465 105.786 142.042 106.442 141.459 106.936C140.876 107.43 140.16 107.739 139.401 107.825C138.642 107.91 137.874 107.768 137.195 107.417C136.516 107.065 135.956 106.52 135.585 105.85C135.214 105.18 135.049 104.415 135.112 103.652C135.174 102.888 135.461 102.161 135.936 101.562C136.41 100.963 137.052 100.518 137.779 100.285C138.263 100.129 138.772 100.071 139.279 100.114C139.785 100.156 140.278 100.298 140.73 100.532C141.182 100.766 141.584 101.087 141.912 101.476C142.24 101.866 142.489 102.316 142.643 102.802Z" fill="#407BFF"/>
<path opacity="0.3" d="M117.602 98.5716C117.768 99.0886 117.778 99.6433 117.63 100.165C117.482 100.688 117.183 101.154 116.77 101.505C116.357 101.856 115.85 102.076 115.312 102.137C114.774 102.198 114.229 102.098 113.748 101.849C113.266 101.6 112.869 101.214 112.606 100.738C112.343 100.263 112.227 99.7204 112.272 99.1793C112.317 98.6382 112.521 98.1229 112.858 97.6987C113.195 97.2744 113.651 96.9603 114.167 96.7961C114.857 96.5766 115.605 96.6403 116.249 96.973C116.893 97.3058 117.379 97.8806 117.602 98.5716Z" fill="#407BFF"/>
<path opacity="0.3" d="M164.83 68.3157C165.14 68.2599 165.46 68.2976 165.75 68.4242C166.039 68.5508 166.285 68.7604 166.456 69.0268C166.627 69.2931 166.715 69.6041 166.71 69.9205C166.705 70.2369 166.607 70.5446 166.427 70.8046C166.248 71.0646 165.995 71.2654 165.702 71.3815C165.409 71.4976 165.087 71.5238 164.779 71.4569C164.47 71.39 164.188 71.2329 163.968 71.0055C163.748 70.7781 163.601 70.4906 163.543 70.1793C163.468 69.7608 163.561 69.3297 163.802 68.9804C164.043 68.6311 164.413 68.3921 164.83 68.3157Z" fill="#407BFF"/>
<path opacity="0.7" d="M214.525 85.031L214.595 85.2907C214.677 85.7125 214.676 86.1464 214.59 86.5674C214.505 86.9884 214.337 87.388 214.096 87.7433C213.855 88.0938 213.548 88.3928 213.191 88.6228C212.834 88.8528 212.434 89.0094 212.016 89.0832C211.399 89.1947 210.762 89.1234 210.183 88.878C209.605 88.6326 209.11 88.2238 208.759 87.7014C208.408 87.179 208.216 86.5657 208.206 85.9363C208.197 85.3069 208.37 84.6886 208.706 84.157C209.041 83.6254 209.524 83.2034 210.094 82.9425C210.665 82.6817 211.3 82.5932 211.921 82.688C212.541 82.7828 213.121 83.0567 213.59 83.4763C214.059 83.8959 214.395 84.443 214.559 85.0508L214.525 85.031ZM208.68 86.5972C208.848 87.2116 209.22 87.7505 209.734 88.1251C210.248 88.4997 210.874 88.6876 211.508 88.6577C212.142 88.6278 212.747 88.382 213.223 87.9607C213.698 87.5395 214.016 86.968 214.124 86.3407C214.232 85.7133 214.123 85.0675 213.815 84.5099C213.508 83.9522 213.02 83.516 212.433 83.2733C211.845 83.0306 211.193 82.9958 210.584 83.1747C209.975 83.3537 209.445 83.7356 209.082 84.2575C208.871 84.5614 208.723 84.9044 208.645 85.2665C208.567 85.6287 208.562 86.0028 208.63 86.3671L208.68 86.5972Z" fill="white"/>
<path opacity="0.7" d="M142.463 68.4823L142.514 68.6716C142.626 69.2856 142.49 69.9185 142.136 70.4316C141.783 70.9447 141.241 71.296 140.629 71.4086C140.016 71.5198 139.384 71.3821 138.871 71.0259C138.358 70.6697 138.008 70.1241 137.896 69.5091C137.784 68.8951 137.92 68.2622 138.273 67.7491C138.626 67.2361 139.168 66.8847 139.78 66.7721C140.394 66.6628 141.026 66.7994 141.541 67.1526C141.996 67.4723 142.323 67.9436 142.463 68.4823ZM140.542 70.9972C140.916 70.9258 141.261 70.7453 141.532 70.4782C141.804 70.2111 141.99 69.8694 142.069 69.496C142.147 69.1225 142.114 68.734 141.973 68.3792C141.832 68.0245 141.589 67.7192 141.276 67.5018C141.067 67.3566 140.832 67.2541 140.584 67.2001C140.335 67.146 140.079 67.1416 139.829 67.187C139.58 67.2324 139.341 67.3267 139.128 67.4646C138.915 67.6024 138.731 67.7812 138.587 67.9905C138.449 68.2044 138.356 68.4437 138.312 68.6944C138.268 68.9451 138.274 69.2022 138.331 69.4505C138.376 69.7009 138.469 69.9399 138.607 70.154C138.744 70.3681 138.922 70.5529 139.13 70.698C139.339 70.843 139.574 70.9454 139.822 70.9992C140.07 71.053 140.326 71.0572 140.575 71.0116L140.542 70.9972Z" fill="white"/>
<path opacity="0.7" d="M104.022 116.241L104.044 116.322C104.091 116.608 104.026 116.902 103.861 117.141C103.696 117.38 103.445 117.545 103.161 117.602C102.948 117.644 102.727 117.623 102.525 117.541C102.323 117.459 102.149 117.32 102.025 117.141C101.901 116.961 101.832 116.749 101.826 116.531C101.82 116.313 101.878 116.098 101.993 115.912C102.107 115.727 102.273 115.579 102.471 115.487C102.668 115.396 102.888 115.364 103.103 115.395C103.319 115.427 103.52 115.522 103.683 115.667C103.846 115.812 103.963 116.001 104.02 116.212L104.022 116.241ZM103.087 117.193C103.218 117.168 103.339 117.106 103.434 117.013C103.53 116.92 103.596 116.8 103.624 116.669C103.652 116.538 103.64 116.402 103.591 116.278C103.542 116.153 103.457 116.046 103.348 115.97C103.238 115.894 103.108 115.852 102.975 115.849C102.841 115.847 102.71 115.884 102.598 115.956C102.486 116.028 102.397 116.132 102.344 116.254C102.291 116.377 102.275 116.513 102.298 116.644C102.313 116.733 102.346 116.817 102.394 116.893C102.441 116.968 102.504 117.034 102.577 117.085C102.651 117.136 102.734 117.172 102.821 117.19C102.909 117.209 102.999 117.21 103.087 117.193Z" fill="white"/>
<path opacity="0.7" d="M125.538 84.8386L125.599 85.0657C125.667 85.4293 125.662 85.8026 125.585 86.164C125.507 86.5254 125.36 86.8678 125.15 87.1715C124.94 87.4751 124.672 87.734 124.362 87.9331C124.051 88.1322 123.705 88.2677 123.342 88.3316C122.809 88.425 122.26 88.3609 121.762 88.1473C121.264 87.9336 120.839 87.5795 120.538 87.1282C120.236 86.6768 120.072 86.1475 120.066 85.6049C120.059 85.0622 120.209 84.5295 120.499 84.0715C120.789 83.6136 121.205 83.2502 121.698 83.0256C122.19 82.801 122.737 82.7248 123.272 82.8063C123.807 82.8879 124.308 83.1236 124.712 83.4849C125.117 83.8461 125.408 84.3173 125.55 84.8411L125.538 84.8386ZM120.523 86.1822C120.667 86.7273 120.999 87.2035 121.461 87.5253C121.98 87.8868 122.621 88.0279 123.242 87.9177C123.628 87.8471 123.989 87.6825 124.296 87.4384C124.602 87.1942 124.844 86.878 124.999 86.5178C125.154 86.1575 125.219 85.7643 125.187 85.3729C125.154 84.9814 125.026 84.6038 124.814 84.2734C124.602 83.943 124.312 83.67 123.97 83.4785C123.627 83.2871 123.244 83.183 122.852 83.1755C122.46 83.1681 122.073 83.2575 121.724 83.4359C121.376 83.6142 121.076 83.876 120.853 84.1981C120.674 84.4559 120.548 84.7468 120.483 85.0541C120.417 85.3613 120.413 85.6786 120.471 85.9875L120.523 86.1822Z" fill="white"/>
<path opacity="0.3" d="M143.166 56.3335L99.8865 64.1851C99.61 64.2354 99.3462 64.3398 99.1102 64.4925C98.8742 64.6451 98.6706 64.843 98.511 65.0748C98.3514 65.3065 98.239 65.5676 98.1802 65.8431C98.1214 66.1186 98.1174 66.4032 98.1683 66.6804C98.2181 66.9577 98.322 67.2224 98.474 67.4595C98.6259 67.6965 98.8231 67.9012 99.054 68.0618C99.285 68.2224 99.5453 68.3357 99.8198 68.3952C100.094 68.4548 100.378 68.4593 100.654 68.4087L143.934 60.5571C145.372 60.2936 146.853 60.3922 148.245 60.8438C149.637 61.2955 150.896 62.0862 151.909 63.1452L153.66 64.9546L154.653 62.642C155.228 61.295 156.128 60.1123 157.27 59.1992C158.413 58.286 159.764 57.6709 161.202 57.4085L219.069 46.9063C222.542 46.2774 224.771 47.9759 226.9 50.6348C227.036 50.803 227.224 50.9212 227.435 50.9708C227.646 51.0203 227.866 50.9985 228.063 50.9087C228.26 50.8189 228.421 50.6662 228.522 50.4745C228.622 50.2828 228.657 50.0629 228.619 49.8493C228.196 47.529 226.871 45.4708 224.936 44.1269C223.002 42.7831 220.615 42.2636 218.302 42.6827L160.435 53.1848C158.996 53.4463 157.645 54.0611 156.502 54.9743C155.359 55.8876 154.46 57.0708 153.885 58.4184L152.887 60.7324L151.142 58.9215C150.128 57.8639 148.869 57.0739 147.477 56.6224C146.085 56.1708 144.604 56.0715 143.166 56.3335Z" fill="white"/>
<path opacity="0.36" d="M213.5 124.447C212.895 121.711 209.562 121.74 208 121.991C205.717 121.991 204.726 123.393 202.3 119.2C199.955 115.164 186.769 118.923 184 119.991C179.674 121.705 179 120.447 172.5 120.447C170 119.991 163.307 116.668 161.5 116.991C155.755 117.805 153.166 117.919 146.048 116.991C143 117.447 144 116.991 139.5 115.991C135.5 116.991 133.206 120.211 129 119.2C123 115.491 120.695 114.323 107 117.992C106.251 118.15 101.5 119.692 98.5 119.491C86.7931 118.709 86.4998 111.947 67.7715 118.492C63.4998 119.447 54.4998 119.447 46.4998 120.947C40.4998 120.947 34.9987 121.04 24 124.447C21.4999 125.221 11.9999 123.447 10 129.947C10 131.447 12 132.664 17.9997 136.947C18.9998 139.635 21.4997 138.985 23.4998 143.485C24.6533 145.533 34.0604 148.814 36.9332 149.791C40.6114 151.043 48.4393 147.369 51.9332 149.065C54.9179 150.539 58.9092 155.501 61.9332 156.947C72.7354 162.11 88.5981 149.289 102.088 149.791C116.732 150.349 131.444 149.875 146.048 149.065C156.688 148.474 167.132 147.307 177.559 145.934C180.555 145.543 183.535 145.063 186.519 144.656C191.923 144.038 193.478 147.012 195 147.447C199.5 147.947 202 145.947 201.5 144.656C201.5 136.605 215.967 143.914 210.5 138.447C208.982 138.659 212.5 136.172 213.5 135.672C213.685 135.487 216.166 135.342 223 132.672C229.042 130.283 229 128.713 226 127.672C221.779 127.027 224.5 128.713 219.5 127.518C217.5 126.672 219.116 125.917 218 125.172C216.5 124.172 217.5 125.447 216 124.672C215 123.447 213.582 124.86 213.5 124.447Z" fill="#407BFF"/>
<path opacity="0.3" d="M40.7799 85.4689C39.1391 80.8189 33.2927 72.5851 32.0607 77.4472C31.3999 80.1769 40.7799 85.4689 40.7799 85.4689Z" fill="#407BFF"/>
<path opacity="0.46" d="M46.196 63.4657C46.2913 58.5357 43.7061 48.7738 40.8463 52.8944C39.2696 55.2187 46.196 63.4657 46.196 63.4657Z" fill="#407BFF"/>
<path opacity="0.56" d="M62.1163 42.6871C65.4483 39.0521 69.9649 30.0201 65.0946 31.2197C62.3749 31.9204 62.1163 42.6871 62.1163 42.6871Z" fill="#407BFF"/>
<path opacity="0.3" d="M187.586 94.6234C190.711 91.7823 194.609 90.0911 195.113 92.5917C195.583 94.9584 187.586 94.6234 187.586 94.6234Z" fill="#407BFF"/>
<path opacity="0.3" d="M59.4001 72.0265C57.2609 70.9101 55.5921 69.1184 56.8465 68.3704C58.1009 67.6225 59.4001 72.0265 59.4001 72.0265Z" fill="#407BFF"/>
<path opacity="0.3" d="M59.4001 72.0265C57.2609 70.9101 55.5921 69.1184 56.8465 68.3704C58.1009 67.6225 59.4001 72.0265 59.4001 72.0265Z" fill="#407BFF"/>
<path opacity="0.5" d="M2.98556 101.233C0.846363 100.117 -0.822435 98.3249 0.431965 97.577C1.68636 96.829 2.98556 101.233 2.98556 101.233Z" fill="#407BFF"/>
</svg>
