<svg width="280" height="208" viewBox="0 0 280 208" fill="none" xmlns="http://www.w3.org/2000/svg">
<g clip-path="url(#clip0_13758_424)">
<path d="M140 208C199.966 208 248.578 205.171 248.578 201.681C248.578 198.191 199.966 195.362 140 195.362C80.0336 195.362 31.4214 198.191 31.4214 201.681C31.4214 205.171 80.0336 208 140 208Z" fill="#F5F5F5"/>
<path opacity="0.1" d="M26.0905 159.836C26.1577 159.334 26.4158 158.876 26.8117 158.557C27.2076 158.238 27.7111 158.083 28.2185 158.123C33.0121 158.05 37.4977 161.427 41.6585 165.05C42.5825 165.849 43.5849 166.675 44.6209 165.837C44.9414 165.573 45.1754 165.219 45.2929 164.821C45.4721 164.171 45.4721 163.485 45.2929 162.834C45.1388 162.297 44.8821 161.795 44.5369 161.355C42.7281 158.982 40.5273 157.844 38.7409 155.393C37.7403 153.989 36.9112 152.471 36.2713 150.871C35.7113 149.465 34.5913 147.193 35.0393 145.289C35.5377 143.012 37.2457 143.207 38.2817 143.52C41.5577 144.496 44.6153 146.824 47.3929 149.721C50.3553 152.803 53.0377 156.515 55.7089 160.205C56.7169 161.606 57.7809 163.046 59.0689 163.554C60.3569 164.062 61.9865 163.242 62.5297 161.221C63.0729 159.2 62.4345 156.878 62.3001 154.868C62.1203 152.47 62.2369 150.059 62.6473 147.69C62.8293 146.437 63.2534 145.231 63.8961 144.139C65.3409 142.029 67.4801 142.772 68.8801 144.368C69.9487 145.704 70.775 147.215 71.3217 148.834C72.8926 153.307 73.8349 157.975 74.1217 162.706C74.3345 165.636 74.7825 168.69 75.9921 170.962C77.9465 174.635 81.5921 174.345 84.4201 172.419C89.3425 169.07 93.1393 161.5 94.1529 153.037C94.4833 150.28 94.5673 147.299 95.5753 144.988C96.4545 142.989 98.7113 141.638 99.8145 143.793C100.259 144.871 100.383 146.052 100.173 147.198C99.9752 148.333 99.6964 149.452 99.3385 150.548C98.7785 152.446 98.2185 156.001 99.7305 157.112C99.9559 157.249 100.209 157.335 100.471 157.364C100.733 157.392 100.998 157.364 101.248 157.28C106.198 156.253 110.802 151.608 113.826 145.127C114.921 142.688 115.758 140.142 116.323 137.53C116.687 135.933 116.838 134.22 117.242 132.634C117.5 131.386 118.023 130.208 118.776 129.179C120.702 126.879 125.149 127.962 125.401 132.891C125.552 135.744 124.79 138.535 124.51 141.326C124.337 143.067 125.418 143.056 126.224 143C130.088 142.61 133.504 138.724 136.534 134.683C140.134 129.877 144.122 123.636 149.038 123.451C150.158 123.412 152.023 123.557 152.695 125.282C153.007 126.339 153.007 127.463 152.695 128.52C151.698 132.64 148.775 134.767 146.535 136.804C140.22 142.709 134.665 149.373 129.998 156.643C129.287 157.76 128.554 159.602 129.231 160.696C129.361 160.904 129.55 161.069 129.775 161.168C130 161.268 130.249 161.298 130.491 161.254C132.804 161.076 134.971 159.245 137.082 157.726C139.194 156.208 141.59 154.879 143.802 156.024C144.484 156.432 145.079 156.97 145.55 157.608C146.022 158.247 146.363 158.972 146.552 159.742C146.947 161.091 147.011 162.516 146.737 163.895C145.925 167.685 142.414 169.388 140.482 171.258C137.821 173.816 135.386 176.597 133.202 179.57C131.186 182.322 129.282 185.336 127.266 188.038C119.986 197.712 109.906 199.147 100.946 200.269C91.1961 201.486 81.4241 200.827 71.7305 199.549C64.6801 198.611 57.7305 196.612 50.8481 194.24C48.4849 193.386 46.1385 192.454 43.8201 191.348C41.3281 190.165 37.6601 189.434 36.7025 184.772C36.5009 183.768 36.7361 182.953 37.4025 182.579C39.4689 181.406 42.4145 182.975 44.3577 184.008C47.0401 185.437 49.5825 187.474 52.3377 188.574C52.7806 188.791 53.263 188.916 53.7558 188.942C54.2486 188.968 54.7415 188.894 55.2049 188.725C55.6592 188.535 56.0333 188.193 56.2633 187.759C56.5562 187.193 56.628 186.538 56.4649 185.922C56.3513 185.59 56.1592 185.289 55.9049 185.046C50.9456 179.979 45.0205 175.952 38.4777 173.2C36.3777 172.302 34.2329 171.565 32.2113 170.292C30.5772 169.285 29.167 167.955 28.0673 166.384C27.1265 164.883 25.6145 162.231 26.0905 159.836Z" fill="#407BFF"/>
<path opacity="0.1" d="M133.202 118.801C132.827 119.188 132.337 119.442 131.805 119.526C131.273 119.61 130.728 119.519 130.252 119.267C129.776 119.015 129.396 118.615 129.168 118.128C128.941 117.641 128.878 117.094 128.991 116.568C130.923 107.218 135.123 100.419 140.118 103.947C143.847 106.576 138.001 113.828 133.202 118.801Z" fill="#407BFF"/>
<path opacity="0.3" d="M171.482 130.996C170.274 129.737 168.776 128.798 167.119 128.262C165.463 127.725 163.7 127.608 161.989 127.921L116.606 136.163C114.273 136.584 112.054 137.491 110.092 138.825C108.131 140.158 106.469 141.888 105.215 143.905L96.2047 158.396C95.7056 159.194 95.0464 159.879 94.2688 160.408C93.4912 160.936 92.6123 161.297 91.6877 161.467L85.04 162.668L90.4649 192.469L97.1127 191.268C98.0374 191.1 98.9872 191.128 99.9013 191.349C100.815 191.57 101.674 191.98 102.421 192.553L115.974 202.951C117.86 204.397 120.025 205.431 122.331 205.989C124.637 206.548 127.033 206.617 129.366 206.193L174.751 197.957C176.46 197.647 178.066 196.918 179.426 195.835C180.785 194.751 181.855 193.347 182.542 191.747C183.748 193.005 185.247 193.944 186.903 194.48C188.56 195.015 190.322 195.131 192.033 194.816L249.9 184.314C252.65 183.813 255.088 182.237 256.678 179.932C258.268 177.628 258.88 174.783 258.379 172.024L249.421 122.826C249.173 121.459 248.659 120.155 247.908 118.987C247.157 117.819 246.184 116.811 245.045 116.019C243.907 115.228 242.624 114.669 241.27 114.374C239.916 114.08 238.519 114.055 237.156 114.303L179.289 124.805C177.579 125.11 175.97 125.835 174.608 126.915C173.246 127.995 172.172 129.397 171.482 130.996Z" fill="#407BFF"/>
<path opacity="0.3" d="M90.4725 192.458L95.5972 191.529L90.1746 161.734L85.0499 162.664L90.4725 192.458Z" fill="#407BFF"/>
<path opacity="0.3" d="M106.447 143.865L97.4256 158.358C97.4256 158.358 99.6849 165.539 107.054 157.518C113.276 150.696 109.861 142.631 106.447 143.865Z" fill="white"/>
<path opacity="0.2" d="M249.877 184.314C252.627 183.813 255.065 182.237 256.655 179.932C258.245 177.628 258.857 174.784 258.356 172.024L249.398 122.826C249.15 121.46 248.635 120.155 247.885 118.987C247.134 117.82 246.161 116.811 245.022 116.02C243.883 115.228 242.601 114.669 241.247 114.374C239.893 114.08 238.495 114.056 237.133 114.303L249.877 184.314Z" fill="#407BFF"/>
<path opacity="0.3" d="M108.051 145.69C109.059 144.072 110.393 142.682 111.968 141.611C113.543 140.54 115.325 139.811 117.198 139.471L162.586 131.228C163.754 131.018 164.955 131.099 166.084 131.466C167.212 131.834 168.234 132.475 169.057 133.333L172.548 136.96L174.541 132.339C175.008 131.246 175.737 130.287 176.664 129.547C177.591 128.807 178.687 128.309 179.854 128.097L237.721 117.595C239.596 117.254 241.53 117.673 243.1 118.76C244.67 119.847 245.747 121.513 246.094 123.393L255.052 172.591C255.224 173.524 255.212 174.483 255.016 175.411C254.819 176.339 254.442 177.219 253.906 178.001C253.37 178.782 252.686 179.45 251.892 179.966C251.098 180.482 250.21 180.836 249.28 181.007L191.412 191.51C190.245 191.722 189.043 191.642 187.914 191.276C186.784 190.91 185.762 190.27 184.938 189.412L181.447 185.785L179.447 190.379C178.98 191.471 178.25 192.43 177.323 193.17C176.396 193.91 175.301 194.408 174.134 194.62L128.749 202.856C126.876 203.195 124.951 203.139 123.099 202.69C121.248 202.24 119.509 201.409 117.995 200.248C114.048 196.667 117.943 183.449 115.469 169.855C112.994 156.262 107.4 148.845 108.051 145.69Z" fill="#407BFF"/>
<path opacity="0.2" d="M115.481 169.881C117.965 183.466 114.056 196.7 118.003 200.28C120.126 191.595 120.379 182.251 118.045 169.42C115.711 156.589 108.051 145.69 108.051 145.69C107.4 148.845 113.013 156.292 115.481 169.881Z" fill="#407BFF"/>
<path opacity="0.2" d="M174.749 197.951C176.459 197.642 178.065 196.913 179.424 195.829C180.783 194.746 181.854 193.341 182.54 191.742L171.465 131C170.258 129.742 168.759 128.802 167.103 128.266C165.446 127.73 163.684 127.613 161.973 127.925L174.749 197.951Z" fill="#407BFF"/>
<path d="M41.7136 128.1L28.3694 155.192C27.8105 156.327 28.2744 157.699 29.4056 158.256L35.9759 161.492C37.1071 162.049 38.4772 161.581 39.0361 160.446L52.3802 133.354C52.9392 132.219 52.4752 130.848 51.344 130.291L44.7738 127.054C43.6426 126.497 42.2725 126.965 41.7136 128.1Z" fill="#407BFF"/>
<path opacity="0.2" d="M38.5486 158.612C38.5325 158.645 38.5099 158.675 38.4823 158.7C38.4547 158.724 38.4226 158.743 38.3877 158.755C38.3529 158.767 38.316 158.772 38.2793 158.769C38.2426 158.767 38.2067 158.758 38.1737 158.741L30.2172 154.845C30.1505 154.812 30.0996 154.754 30.0756 154.684C30.0516 154.613 30.0565 154.536 30.0893 154.469C30.122 154.403 30.1799 154.351 30.2502 154.327C30.3205 154.303 30.3975 154.308 30.4642 154.34L38.4072 158.255C38.4718 158.286 38.5224 158.339 38.5487 158.406C38.5749 158.472 38.5749 158.546 38.5486 158.612Z" fill="white"/>
<path opacity="0.2" d="M40.9674 153.697C40.9513 153.73 40.9288 153.76 40.9012 153.784C40.8736 153.809 40.8414 153.828 40.8066 153.84C40.7717 153.852 40.7349 153.857 40.6981 153.854C40.6614 153.852 40.6255 153.842 40.5925 153.826L32.6494 149.911C32.5836 149.877 32.5335 149.819 32.5096 149.749C32.4857 149.679 32.49 149.602 32.5215 149.535C32.5375 149.502 32.56 149.473 32.5875 149.449C32.6151 149.425 32.6472 149.406 32.682 149.395C32.7167 149.383 32.7535 149.379 32.7899 149.381C32.8264 149.384 32.8619 149.395 32.8944 149.412L40.8313 153.342C40.8935 153.374 40.9418 153.428 40.9669 153.493C40.992 153.559 40.9922 153.631 40.9674 153.697Z" fill="white"/>
<path opacity="0.2" d="M43.4046 148.795C43.3885 148.828 43.366 148.858 43.3384 148.882C43.3108 148.907 43.2786 148.925 43.2438 148.937C43.209 148.949 43.1721 148.954 43.1354 148.952C43.0986 148.95 43.0627 148.94 43.0297 148.924L35.0867 145.009C35.0218 144.974 34.9726 144.916 34.9488 144.846C34.9251 144.777 34.9286 144.7 34.9587 144.633C34.9749 144.6 34.9974 144.57 35.025 144.546C35.0526 144.521 35.0847 144.503 35.1196 144.491C35.1544 144.479 35.1913 144.474 35.228 144.476C35.2648 144.478 35.3007 144.488 35.3337 144.504L43.2767 148.419C43.3098 148.435 43.3394 148.458 43.3638 148.485C43.3881 148.513 43.4068 148.545 43.4187 148.58C43.4306 148.615 43.4355 148.652 43.433 148.689C43.4306 148.726 43.421 148.762 43.4046 148.795Z" fill="white"/>
<path opacity="0.2" d="M45.8019 143.871C45.7858 143.904 45.7632 143.934 45.7356 143.958C45.708 143.983 45.6759 144.002 45.641 144.014C45.6062 144.026 45.5693 144.031 45.5326 144.028C45.4959 144.026 45.46 144.016 45.427 144L37.4839 140.085C37.4181 140.051 37.3679 139.993 37.3441 139.923C37.3202 139.853 37.3245 139.777 37.356 139.709C37.372 139.676 37.3944 139.647 37.422 139.623C37.4496 139.599 37.4817 139.58 37.5165 139.569C37.5512 139.557 37.5879 139.553 37.6244 139.556C37.6609 139.558 37.6964 139.569 37.7288 139.586L45.6719 143.501C45.705 143.516 45.7347 143.538 45.7593 143.565C45.7838 143.592 45.8027 143.624 45.8149 143.658C45.827 143.693 45.8321 143.729 45.8298 143.766C45.8276 143.802 45.8181 143.838 45.8019 143.871Z" fill="white"/>
<path opacity="0.2" d="M48.2106 138.981C48.1945 139.015 48.172 139.044 48.1444 139.069C48.1168 139.093 48.0846 139.112 48.0498 139.124C48.0149 139.136 47.9781 139.141 47.9413 139.139C47.9046 139.136 47.8687 139.127 47.8357 139.11L39.8926 135.195C39.8288 135.16 39.7803 135.102 39.7567 135.032C39.7331 134.963 39.7359 134.887 39.7647 134.82C39.7808 134.787 39.8034 134.757 39.831 134.733C39.8586 134.708 39.8907 134.689 39.9256 134.677C39.9604 134.665 39.9973 134.66 40.034 134.663C40.0707 134.665 40.1066 134.675 40.1396 134.691L48.0827 138.606C48.1163 138.621 48.1465 138.644 48.1712 138.671C48.196 138.699 48.215 138.731 48.227 138.766C48.2389 138.801 48.2436 138.838 48.2408 138.875C48.238 138.912 48.2278 138.948 48.2106 138.981Z" fill="white"/>
<path opacity="0.2" d="M50.6372 134.046C50.621 134.079 50.5985 134.109 50.5709 134.133C50.5433 134.158 50.5112 134.176 50.4763 134.188C50.4415 134.2 50.4046 134.205 50.3679 134.203C50.3311 134.201 50.2952 134.191 50.2622 134.175L42.3058 130.278C42.2399 130.245 42.1898 130.187 42.1659 130.117C42.1421 130.047 42.1463 129.97 42.1778 129.903C42.2113 129.837 42.2693 129.787 42.3391 129.764C42.4089 129.741 42.4849 129.746 42.5507 129.779L50.501 133.691C50.5632 133.723 50.6115 133.777 50.6366 133.842C50.6618 133.908 50.6619 133.98 50.6372 134.046Z" fill="white"/>
<path opacity="0.2" d="M157.505 192.931C153.191 194.968 155.29 201.507 159.98 200.657L174.755 197.973C176.465 197.663 178.071 196.934 179.43 195.851C180.789 194.767 181.86 193.363 182.546 191.763C183.753 193.022 185.252 193.961 186.908 194.496C188.564 195.032 190.327 195.147 192.037 194.832L249.904 184.33C252.655 183.829 255.093 182.253 256.683 179.949C258.272 177.644 258.884 174.8 258.383 172.04L256.069 159.326C255.813 157.925 255.24 156.602 254.394 155.457C253.548 154.313 252.451 153.379 251.188 152.727C249.926 152.074 248.531 151.722 247.111 151.696C245.692 151.67 244.286 151.971 243.003 152.577L157.505 192.931Z" fill="#407BFF"/>
<path opacity="0.3" d="M218.813 125.195C219.876 125.002 220.972 125.13 221.963 125.562C222.954 125.993 223.795 126.71 224.381 127.621C224.967 128.531 225.27 129.595 225.253 130.678C225.236 131.76 224.9 132.813 224.286 133.703C223.672 134.593 222.808 135.28 221.804 135.677C220.8 136.074 219.701 136.164 218.645 135.935C217.59 135.705 216.625 135.167 215.873 134.389C215.121 133.61 214.616 132.626 214.422 131.56C214.163 130.131 214.48 128.658 215.303 127.464C216.126 126.271 217.389 125.455 218.813 125.195Z" fill="#407BFF"/>
<path opacity="0.3" d="M202.9 147.483C203.652 147.346 204.428 147.436 205.129 147.741C205.831 148.047 206.426 148.554 206.841 149.198C207.256 149.842 207.471 150.595 207.459 151.361C207.447 152.128 207.209 152.873 206.775 153.503C206.34 154.132 205.729 154.619 205.019 154.9C204.308 155.181 203.53 155.244 202.783 155.082C202.036 154.919 201.353 154.538 200.821 153.987C200.289 153.436 199.932 152.739 199.795 151.985C199.613 150.974 199.837 149.933 200.419 149.089C201.001 148.246 201.893 147.668 202.9 147.483Z" fill="#407BFF"/>
<path opacity="0.3" d="M161.643 175.31C161.876 176.04 161.887 176.823 161.676 177.558C161.465 178.294 161.042 178.951 160.459 179.444C159.876 179.938 159.16 180.248 158.401 180.333C157.642 180.419 156.874 180.277 156.195 179.925C155.516 179.574 154.956 179.029 154.585 178.359C154.214 177.688 154.049 176.923 154.112 176.16C154.174 175.397 154.461 174.67 154.936 174.07C155.41 173.471 156.052 173.027 156.779 172.793C157.263 172.638 157.772 172.58 158.279 172.622C158.785 172.665 159.278 172.807 159.73 173.041C160.182 173.275 160.584 173.595 160.912 173.985C161.24 174.374 161.489 174.825 161.643 175.31Z" fill="#407BFF"/>
<path opacity="0.3" d="M136.602 171.08C136.768 171.597 136.778 172.152 136.63 172.674C136.482 173.196 136.183 173.662 135.77 174.013C135.357 174.364 134.85 174.584 134.312 174.645C133.774 174.707 133.229 174.607 132.748 174.358C132.266 174.109 131.869 173.722 131.606 173.247C131.343 172.772 131.227 172.229 131.272 171.688C131.317 171.147 131.521 170.631 131.858 170.207C132.195 169.783 132.651 169.469 133.167 169.305C133.857 169.085 134.605 169.149 135.249 169.482C135.893 169.814 136.379 170.389 136.602 171.08Z" fill="#407BFF"/>
<path opacity="0.3" d="M183.83 140.824C184.14 140.768 184.46 140.806 184.75 140.933C185.039 141.059 185.285 141.269 185.456 141.535C185.627 141.802 185.715 142.113 185.71 142.429C185.705 142.745 185.607 143.053 185.427 143.313C185.248 143.573 184.995 143.774 184.702 143.89C184.409 144.006 184.087 144.032 183.779 143.965C183.47 143.899 183.188 143.741 182.968 143.514C182.748 143.287 182.601 142.999 182.543 142.688C182.468 142.269 182.561 141.838 182.802 141.489C183.043 141.14 183.413 140.901 183.83 140.824Z" fill="#407BFF"/>
<path opacity="0.7" d="M233.525 157.54L233.595 157.799C233.677 158.221 233.676 158.655 233.59 159.076C233.505 159.497 233.337 159.897 233.096 160.252C232.855 160.602 232.548 160.901 232.191 161.131C231.834 161.361 231.434 161.518 231.016 161.592C230.399 161.703 229.762 161.632 229.183 161.387C228.605 161.141 228.11 160.732 227.759 160.21C227.408 159.688 227.216 159.074 227.206 158.445C227.197 157.815 227.37 157.197 227.706 156.666C228.041 156.134 228.524 155.712 229.094 155.451C229.665 155.19 230.3 155.102 230.921 155.197C231.541 155.291 232.121 155.565 232.59 155.985C233.059 156.404 233.395 156.952 233.559 157.559L233.525 157.54ZM227.68 159.106C227.848 159.72 228.22 160.259 228.734 160.634C229.248 161.008 229.874 161.196 230.508 161.166C231.142 161.136 231.747 160.89 232.223 160.469C232.698 160.048 233.016 159.477 233.124 158.849C233.232 158.222 233.123 157.576 232.815 157.018C232.508 156.461 232.02 156.025 231.433 155.782C230.845 155.539 230.193 155.504 229.584 155.683C228.975 155.862 228.445 156.244 228.082 156.766C227.871 157.07 227.723 157.413 227.645 157.775C227.567 158.137 227.562 158.511 227.63 158.876L227.68 159.106Z" fill="white"/>
<path opacity="0.7" d="M161.463 140.991L161.514 141.18C161.626 141.794 161.49 142.427 161.136 142.94C160.783 143.453 160.241 143.805 159.629 143.917C159.016 144.028 158.384 143.891 157.871 143.534C157.358 143.178 157.008 142.633 156.896 142.018C156.784 141.404 156.92 140.771 157.273 140.258C157.626 139.745 158.168 139.393 158.78 139.281C159.394 139.171 160.026 139.308 160.541 139.661C160.996 139.981 161.323 140.452 161.463 140.991ZM159.542 143.506C159.916 143.434 160.261 143.254 160.532 142.987C160.804 142.72 160.99 142.378 161.069 142.005C161.147 141.631 161.114 141.243 160.973 140.888C160.832 140.533 160.589 140.228 160.276 140.01C160.067 139.865 159.832 139.763 159.584 139.709C159.335 139.655 159.079 139.65 158.829 139.696C158.58 139.741 158.341 139.835 158.128 139.973C157.915 140.111 157.731 140.29 157.587 140.499C157.449 140.713 157.356 140.952 157.312 141.203C157.268 141.454 157.274 141.711 157.331 141.959C157.376 142.209 157.469 142.448 157.607 142.663C157.744 142.877 157.922 143.061 158.13 143.207C158.339 143.352 158.574 143.454 158.822 143.508C159.07 143.562 159.326 143.566 159.575 143.52L159.542 143.506Z" fill="white"/>
<path opacity="0.7" d="M123.022 188.749L123.044 188.83C123.091 189.117 123.026 189.411 122.861 189.65C122.696 189.888 122.445 190.054 122.161 190.11C121.948 190.153 121.727 190.132 121.525 190.05C121.323 189.968 121.149 189.829 121.025 189.649C120.901 189.47 120.832 189.258 120.826 189.04C120.82 188.821 120.878 188.606 120.993 188.421C121.107 188.236 121.273 188.088 121.471 187.996C121.668 187.904 121.888 187.872 122.103 187.904C122.319 187.936 122.52 188.03 122.683 188.175C122.846 188.32 122.963 188.51 123.02 188.721L123.022 188.749ZM122.087 189.701C122.218 189.677 122.339 189.614 122.434 189.521C122.53 189.428 122.596 189.309 122.624 189.178C122.652 189.047 122.64 188.911 122.591 188.786C122.542 188.662 122.457 188.555 122.348 188.478C122.238 188.402 122.108 188.36 121.975 188.358C121.841 188.355 121.71 188.392 121.598 188.464C121.486 188.537 121.397 188.64 121.344 188.763C121.291 188.886 121.275 189.021 121.298 189.153C121.313 189.241 121.346 189.326 121.394 189.401C121.441 189.477 121.504 189.542 121.577 189.593C121.651 189.644 121.734 189.68 121.821 189.699C121.909 189.717 121.999 189.718 122.087 189.701Z" fill="white"/>
<path opacity="0.7" d="M144.538 157.347L144.599 157.574C144.667 157.938 144.662 158.311 144.585 158.673C144.507 159.034 144.36 159.376 144.15 159.68C143.94 159.984 143.672 160.243 143.362 160.442C143.051 160.641 142.705 160.776 142.342 160.84C141.809 160.934 141.26 160.869 140.762 160.656C140.264 160.442 139.839 160.088 139.538 159.637C139.236 159.185 139.072 158.656 139.066 158.113C139.059 157.571 139.209 157.038 139.499 156.58C139.789 156.122 140.205 155.759 140.698 155.534C141.19 155.31 141.737 155.233 142.272 155.315C142.807 155.396 143.308 155.632 143.712 155.993C144.117 156.355 144.408 156.826 144.55 157.35L144.538 157.347ZM139.523 158.691C139.667 159.236 139.999 159.712 140.461 160.034C140.98 160.395 141.621 160.536 142.242 160.426C142.628 160.356 142.989 160.191 143.296 159.947C143.602 159.703 143.844 159.387 143.999 159.026C144.154 158.666 144.219 158.273 144.187 157.881C144.154 157.49 144.026 157.112 143.814 156.782C143.602 156.452 143.312 156.179 142.97 155.987C142.627 155.796 142.244 155.692 141.852 155.684C141.46 155.677 141.073 155.766 140.724 155.944C140.376 156.123 140.076 156.385 139.853 156.707C139.674 156.964 139.548 157.255 139.483 157.563C139.417 157.87 139.413 158.187 139.471 158.496L139.523 158.691Z" fill="white"/>
<path opacity="0.3" d="M162.166 128.842L118.887 136.694C118.61 136.744 118.346 136.848 118.11 137.001C117.874 137.154 117.671 137.352 117.511 137.583C117.351 137.815 117.239 138.076 117.18 138.352C117.121 138.627 117.117 138.912 117.168 139.189C117.218 139.466 117.322 139.731 117.474 139.968C117.626 140.205 117.823 140.41 118.054 140.57C118.285 140.731 118.545 140.844 118.82 140.904C119.094 140.963 119.378 140.968 119.654 140.917L162.934 133.066C164.372 132.802 165.853 132.901 167.245 133.352C168.637 133.804 169.896 134.595 170.909 135.654L172.66 137.463L173.653 135.151C174.228 133.804 175.128 132.621 176.27 131.708C177.413 130.795 178.764 130.179 180.202 129.917L238.069 119.415C241.542 118.786 243.771 120.484 245.9 123.143C246.036 123.312 246.224 123.43 246.435 123.479C246.646 123.529 246.866 123.507 247.063 123.417C247.26 123.327 247.421 123.175 247.522 122.983C247.622 122.791 247.657 122.571 247.619 122.358C247.196 120.038 245.871 117.979 243.936 116.635C242.002 115.292 239.615 114.772 237.302 115.191L179.435 125.693C177.996 125.955 176.645 126.57 175.502 127.483C174.359 128.396 173.46 129.579 172.885 130.927L171.887 133.241L170.142 131.43C169.128 130.372 167.869 129.582 166.477 129.131C165.085 128.679 163.604 128.58 162.166 128.842Z" fill="white"/>
<path opacity="0.36" d="M232.5 196.955C231.895 194.22 228.562 194.249 227 194.5C224.717 194.5 223.726 195.901 221.3 191.709C218.955 187.672 205.769 191.431 203 192.5C198.674 194.213 198 192.955 191.5 192.955C189 192.5 182.307 189.176 180.5 189.5C174.755 190.313 172.166 190.427 165.048 189.5C162 189.955 163 189.5 158.5 188.5C154.5 189.5 152.206 192.719 148 191.709C142 188 139.695 186.831 126 190.5C125.251 190.658 120.5 192.2 117.5 192C105.793 191.218 105.5 184.455 86.7715 191C82.4998 191.955 73.4998 191.955 65.4998 193.455C59.4998 193.455 53.9987 193.549 43 196.956C40.4999 197.73 30.9999 195.955 29 202.456C29 203.956 31 205.172 36.9997 209.455C37.9998 212.143 40.4997 211.493 42.4998 215.993C43.6533 218.042 53.0604 221.323 55.9332 222.3C59.6114 223.551 67.4393 219.877 70.9332 221.574C73.9179 223.048 77.9092 228.01 80.9332 229.455C91.7354 234.619 107.598 221.797 121.088 222.3C135.732 222.858 150.444 222.383 165.048 221.574C175.688 220.982 186.132 219.816 196.559 218.442C199.555 218.052 202.535 217.572 205.519 217.164C210.923 216.547 212.478 219.52 214 219.955C218.5 220.455 221 218.455 220.5 217.164C220.5 209.114 234.967 216.422 229.5 210.955C227.982 211.168 231.5 208.681 232.5 208.181C232.685 207.995 235.166 207.851 242 205.181C248.042 202.792 248 201.221 245 200.181C240.779 199.535 243.5 201.221 238.5 200.027C236.5 199.181 238.116 198.425 237 197.681C235.5 196.681 236.5 197.955 235 197.181C234 195.955 232.582 197.368 232.5 196.955Z" fill="#407BFF"/>
<path opacity="0.3" d="M59.7799 157.977C58.1391 153.327 52.2927 145.094 51.0607 149.956C50.3999 152.685 59.7799 157.977 59.7799 157.977Z" fill="#407BFF"/>
<path opacity="0.46" d="M65.196 135.974C65.2913 131.044 62.7061 121.282 59.8463 125.403C58.2696 127.727 65.196 135.974 65.196 135.974Z" fill="#407BFF"/>
<path opacity="0.56" d="M81.1163 115.196C84.4483 111.561 88.9649 102.529 84.0946 103.728C81.3749 104.429 81.1163 115.196 81.1163 115.196Z" fill="#407BFF"/>
<path opacity="0.3" d="M206.586 167.132C209.711 164.291 213.609 162.6 214.113 165.1C214.583 167.467 206.586 167.132 206.586 167.132Z" fill="#407BFF"/>
<path opacity="0.3" d="M78.4001 144.535C76.2609 143.419 74.5921 141.627 75.8465 140.879C77.1009 140.131 78.4001 144.535 78.4001 144.535Z" fill="#407BFF"/>
<path opacity="0.3" d="M78.4001 144.535C76.2609 143.419 74.5921 141.627 75.8465 140.879C77.1009 140.131 78.4001 144.535 78.4001 144.535Z" fill="#407BFF"/>
<path opacity="0.5" d="M21.9856 173.742C19.8464 172.625 18.1776 170.833 19.432 170.086C20.6864 169.338 21.9856 173.742 21.9856 173.742Z" fill="#407BFF"/>
</g>
<defs>
<clipPath id="clip0_13758_424">
<rect width="280" height="208" fill="white"/>
</clipPath>
</defs>
</svg>
