<svg width="865" height="680" fill="none" xmlns="http://www.w3.org/2000/svg"><g clip-path="url(#a)"><path d="M407 680c196 0 355-9 355-21 0-11-159-20-355-20s-355 9-355 20c0 12 159 21 355 21Z" fill="#F5F5F5"/><path opacity=".1" d="M201 515a6 6 0 0 1 6-5c16-1 31 10 44 22 3 3 7 5 10 3l2-4v-6l-2-5c-6-8-13-11-19-19l-8-15c-2-5-6-12-4-18 1-8 7-7 10-6 11 3 21 11 30 20 10 10 19 22 27 34 4 5 7 10 11 11 5 2 10-1 12-7 2-7-1-15-1-21-1-8 0-16 1-24l4-11c5-7 12-5 17 1l8 14c5 15 8 30 9 45 0 10 2 20 6 27 6 12 18 12 27 5 16-11 29-35 32-63 1-9 2-19 5-26s10-11 14-4c1 3 2 7 1 11l-3 11c-2 6-4 18 1 21a6 6 0 0 0 5 1c17-4 32-19 42-40l8-25c1-5 1-11 3-16 1-4 2-8 5-11 6-8 21-4 21 12 1 9-2 18-2 28-1 5 2 5 5 5 13-1 24-14 34-27 12-16 25-36 41-37 3 0 10 1 12 6v11c-4 13-13 20-20 27-21 19-39 41-55 65-2 3-4 9-2 13a4 4 0 0 0 4 2c8-1 15-7 22-12s14-9 22-5a20 20 0 0 1 9 12v13c-2 13-14 18-20 24-9 9-17 18-24 28l-19 27c-24 32-57 37-87 40a375 375 0 0 1-186-29c-9-4-21-6-24-21 0-4 0-6 3-8 6-3 16 2 22 5 9 5 17 11 26 15a12 12 0 0 0 10 1l3-4 1-6-2-2c-16-17-36-30-57-39l-20-10c-6-3-10-7-14-12-3-5-8-14-6-22ZM551 381a8 8 0 0 1-14-7c6-31 20-53 37-42 12 9-7 33-23 49Z" fill="#407BFF"/><path opacity=".3" d="M507 395a35 35 0 0 0 17-27l13-150a55 55 0 0 0-15-43l-38-41a22 22 0 0 1-6-17l2-22-99-8-2 22a22 22 0 0 1-8 16l-45 34a56 56 0 0 0-21 40l-13 150a34 34 0 0 0 13 30 34 34 0 0 0-17 27l-16 192a34 34 0 0 0 31 37l163 13a35 35 0 0 0 38-31l16-192a34 34 0 0 0-13-30Z" fill="#407BFF"/><path opacity=".3" d="m381 87-1 17 98 8 2-17-99-8Z" fill="#407BFF"/><path opacity=".3" d="m521 179-38-41s-25 1-6 31c17 26 45 22 44 10Z" fill="#fff"/><path opacity=".2" d="M272 598a34 34 0 0 0 31 37l163 13a35 35 0 0 0 38-31l-232-19Z" fill="#407BFF"/><path opacity=".3" d="M514 182a45 45 0 0 1 12 35l-13 150a23 23 0 0 1-12 19l-14 8 13 10a23 23 0 0 1 9 20l-16 192a23 23 0 0 1-26 21l-163-13a24 24 0 0 1-21-25l16-192a23 23 0 0 1 12-19l14-8-13-10a23 23 0 0 1-9-20l13-151a45 45 0 0 1 17-31c15-10 53 14 98 17 45 4 73-7 83-3Z" fill="#407BFF"/><path opacity=".2" d="M431 185c-45-3-83-27-98-17 26 14 55 22 97 26 43 3 84-12 84-12-10-4-38 7-83 3ZM292 349a34 34 0 0 0 13 30l202 16a35 35 0 0 0 17-27l-232-19Z" fill="#407BFF"/><path d="m482 69-99-9c-4 0-7 3-8 7l-2 24c0 4 3 8 7 8l99 8c4 1 7-2 8-6l2-24c0-4-3-8-7-8Z" fill="#407BFF"/><path opacity=".2" d="M385 96a1 1 0 0 1-1-1l3-29a1 1 0 0 1 1-1 1 1 0 0 1 0 1l-2 29a1 1 0 0 1-1 1ZM403 97a1 1 0 0 1-1-1l3-29a1 1 0 0 1 1-1 1 1 0 0 1 0 1l-2 29a1 1 0 0 1-1 1ZM421 99a1 1 0 0 1-1-1l2-29a1 1 0 0 1 1-1 1 1 0 0 1 1 1l-2 29a1 1 0 0 1-1 1ZM439 100a1 1 0 0 1-1-1l2-29a1 1 0 0 1 2-1 1 1 0 0 1 0 1l-2 29a1 1 0 0 1-1 1ZM456 101v-1l2-28a1 1 0 0 1 1-1 1 1 0 0 1 1 0v1l-3 29a1 1 0 0 1-1 0ZM474 103a1 1 0 0 1 0-1l2-29a1 1 0 0 1 1-1 1 1 0 0 1 1 1l-3 29a1 1 0 0 1-1 1Z" fill="#fff"/><path opacity=".2" d="M323 299c-3-16-25-15-27 1l-4 49a34 34 0 0 0 13 30 34 34 0 0 0-18 27l-15 192a34 34 0 0 0 31 37l42 3a30 30 0 0 0 33-35l-55-304Z" fill="#407BFF"/><path opacity=".3" d="M485 550a18 18 0 0 1-23 15 18 18 0 0 1-11-25 18 18 0 0 1 34 10ZM428 480a13 13 0 0 1-16 12 13 13 0 0 1-9-11 13 13 0 0 1 13-14 13 13 0 0 1 12 13ZM375 327a13 13 0 0 1-13-15 13 13 0 0 1 17-10 13 13 0 0 1 5 21 13 13 0 0 1-9 4ZM409 251a9 9 0 0 1-9-10 9 9 0 0 1 12-7 9 9 0 0 1 6 8 9 9 0 0 1-9 9ZM465 426a5 5 0 0 1-7 4 5 5 0 0 1-3-7 5 5 0 0 1 5-3 5 5 0 0 1 5 6Z" fill="#407BFF"/><path opacity=".7" d="M370 569h-1a11 11 0 0 1-7-4 10 10 0 0 1 0-13 11 11 0 1 1 14 15l-6 2Zm0-20a9 9 0 0 0-9 7 9 9 0 0 0 5 10 9 9 0 0 0 13-8 9 9 0 0 0-8-9h-1ZM484 355h-1a8 8 0 0 1-7-8 8 8 0 0 1 8-7 8 8 0 0 1 7 8c0 2-1 4-3 5-1 2-3 2-4 2Zm-7-8a6 6 0 0 0 7 7 6 6 0 0 0 6-9l-2-2a6 6 0 0 0-4-2 6 6 0 0 0-7 6ZM365 193a4 4 0 0 1-3-4 4 4 0 0 1 4-3 4 4 0 0 1 3 3 4 4 0 0 1-4 4Zm-2-3a2 2 0 0 0 2 2 2 2 0 0 0 2-2 2 2 0 0 0-2-2 2 2 0 0 0-2 1v1ZM446 288h-1a9 9 0 0 1-8-6 9 9 0 0 1 11-12 9 9 0 0 1 6 12 9 9 0 0 1-8 6Zm0-17a8 8 0 1 0 3 15 8 8 0 0 0 5-9 8 8 0 0 0-7-6h-1Z" fill="#fff"/><path opacity=".3" d="m521 368 12-144a7 7 0 0 0-9-7 7 7 0 0 0-5 6l-12 143a29 29 0 0 1-15 23l-7 4 7 6a29 29 0 0 1 11 25l-16 191c-1 12-8 17-19 22a3 3 0 0 0-1 3 3 3 0 0 0 2 3 29 29 0 0 0 32-27l16-191a29 29 0 0 0-11-25l-7-5 7-4a29 29 0 0 0 15-23Z" fill="#fff"/><path opacity=".3" d="M711 590c-2-9-26-3-31-2-10 1-20 4-29 8-11 4-23 10-33 4-6-4 15-11 17-12 9-3 18-7 26-12 4-2 10-6 7-11-2-4-10-4-16-3-15 2-30 5-45 11l-41 19c-6 3-11 5-17 6-7 1-15 0-17-4-3-4 1-8 1-11 1-5 1-9-1-13-1-3-3-5-6-6-7-4-17-3-24 0l-13 8c-7 7-12 16-14 25a23 23 0 0 1-10 15c-10 6-28 6-41 3-24-6-43-19-47-34-2-7-3-15-13-18-6-1-19 0-16 8l4 6c2 3 5 9-3 11l-7 1c-25-2-47-10-61-21-5-4-9-9-12-14l-5-9-7-6c-9-4-31-2-33 7 0 5 2 10 4 15v1c0 2-2 2-3 2-20 1-39-6-56-14-17-9-36-20-60-20l-15 2-4 2a4 4 0 0 0 0 4c0 2 1 3 3 5 7 5 18 8 27 11 28 9 55 20 80 35 3 1 7 4 4 7-4 2-11 1-16 0l-23-5c-10-3-22-5-33-3-6 1-11 4-14 7a6 6 0 0 0-1 7c4 7 21 10 31 13l35 14 29 15c35 17 84 19 128 21a1542 1542 0 0 0 247-13l30-4c10-1 19-3 29-6 3-1 7-2 9-5 3-2 4-5-1-6-10-2-20 0-29 2a573 573 0 0 0-47 10l-15-1-3-3 2-3c20-8 41-13 62-17l44-7c13-3 27-3 38-12 2-1 4-3 5-6v-4ZM145 516c-6-15-25-42-29-26-2 9 29 26 29 26ZM625 546c10-9 23-14 25-6 1 7-25 6-25 6ZM205 473c-7-4-12-10-8-12 4-3 8 12 8 12Z" fill="#407BFF"/></g><defs><clipPath id="a"><path fill="#fff" transform="translate(-51)" d="M0 0h916v680H0z"/></clipPath></defs></svg>