<svg style="position:absolute;width:0;height:0;overflow:hidden" xmlns="http://www.w3.org/2000/svg"><defs><symbol id="arrow-calendar-icon" viewBox="0 0 32 32"><path d="M10 17a1 1 0 0 1 0-2L20 5a1 1 0 0 1 1 0 1 1 0 0 1 1 1v1l-10 9 10 9a1 1 0 0 1 0 1 1 1 0 0 1-1 1 1 1 0 0 1-1 0L10 17z"/></symbol><symbol id="icon-outline" viewBox="0 0 32 32"><path stroke-width="1.1" d="M31 16a15 15 0 1 1-30 0 15 15 0 0 1 30 0z"/><path stroke-linejoin="round" stroke-linecap="round" stroke-width="1.1" d="m20 9-1 3-3 2-3-2-1-3 1-2 3-2 3 2 1 2zM8 25l2-6c1-2 4-2 6-2a8 8 0 0 1 8 8 19 19 0 0 1-16 0z"/></symbol><symbol id="icon-vector" viewBox="0 0 55 32"><path fill="#407bff" style="fill:var(--color1, #407bff)" d="M29 31a2 2 0 0 1-3 0L3 8a2 2 0 0 1 3-3l21 21L49 5a2 2 0 1 1 3 3L29 31z"/></symbol><symbol id="iconLogo" viewBox="0 0 27 32"><path fill="#9ebbff" style="fill:var(--color1, #9ebbff)" d="m11 5 1 1-3 3-2 2v1l-1-2 3-2V6l1 1 1-1V5zM22 9l2 1v1l-1 1v-1l-1-2zM18 4h2l-1 2V5l-1-1zM13 1v1l-2-1h-1 3zM9 5V4c0-1 0 0 0 0H8l1 1zM6 7v1-1zM4 10l1 2-2 1v-1l1-2zM25 16v4c1 1 2-1 1-1s0-2-1-3zM26 23v-1l-1 1h1zM1 24l1 1v2l-1-2v-1z"/><path fill="#9ebbff" style="fill:var(--color1, #9ebbff)" d="m24 25-1 2c0 1 0 2-2 2 0 0-1 2-3 2l-3 1-6-2H6l-1-3-2-1-1-2c1-1 0-1-1-3s1-1 1-2v-2l1-1v-2c1-1 1 1 1 2l-1 2 2-3 2-2c2-1 1-1 1-2l3-2 2-2 1-2-2-1-1-1h5c1 1 2 1 2 4v2-1h2v2l1 1 1 3 1-1 1 3v9z"/><path fill="#c6d7ff" style="fill:var(--color2, #c6d7ff)" d="M14 10c2-1 3 2 3 3s-1 5 1 4c2 0 0-4 1-4l2 5c1 1 3 7-1 10s-9 2-12 0a9 9 0 0 1-2-3v-1l-1-1-1-1v-3l1 1v-4h1c2-1 3 0 4-2l3-2 1-2z"/><path fill="#407bff" style="fill:var(--color3, #407bff)" d="m14 32-5-1-3-1-1-1v-1l-1-1-1-1v-1l-1-1v-1l-1-2v-2l1-2v-2l1-1h1v3l-1 1 1-1 1-2v-1l1-1 1-1 1-1 3-3 2-1V4h-2V3h5v1c1 0 2 1 2 3v2-1l1-1h1v3h1l1 1v3h1v-1h1v12l-1 2v1c0 1 0 2-2 2l-3 1h-1l-2 1h-1zM3 14v2l-1 1v6l1 1v2l1 1h1l1 2v1h3c4 2 5 2 6 1h3l3-2 2-1v-1l1-2v-9l-1-2v1l-1-1-1-2v-2h-1V8l-1-1-1 1h1v2h-1l-1-3c1-2 0-2-1-3h-1l-1-1h-3v1h2l1 1-1 1v1l-2 2-2 2-1 2H7l-1 1-1 1-1 2v1l-1 1v-5z"/><path fill="#407bff" style="fill:var(--color3, #407bff)" d="M7 12H6v-2l2-1V8l1-1V6h1v1-2h1l1 1-3 3-1 2-1 1zm2-5v1L8 9l-1 1-1 2h1v-1c0-1 0-2 2-2 2-1 2-2 2-3V5v1l-1 1v1-1H9zM23 12v-1l-1-1V9h1l1 1v2h-1zm0-3h-1l1 1v2h1v-2l-1-1zM19 6l-1-1V3h1l1 1v2h-1zm0-2h-1l1 1v1h1V4h-1zM12 2h-1l-1-1 1-1h3v1l-1 1h-1zm0-1 1 1V1h-2 1zM9 5 8 4l1-1 1 1-1 1zm0-1H8l1 1V4zM6 8H5l1-1v1zm0-1v1-1zM4 13H3v-2l1-1 1 2-1 1zm0-2v1l-1 1h1v-2zM26 21h-1v-5l1 2v3zm-1-4v3h1v-2l-1-1zM26 24l-1-1 1-1 1 1-1 1zm0-2-1 1h1v-1zM2 27l-1-1v-1l-1-1h1c0-1 0-1 0 0l1 1v2zm-1-3H0l1 1 1 1v1-2l-1-1zM15 22l-1 2-2-2 1 1 2-1z"/><path fill="#fff" style="fill:var(--color4, #fff)" opacity=".5" d="m7 23 1-2-2-1-1 1 2 2zM7 19l2-3 3-3c0-1 2-2 1-3s-1 0-2 1l-2 3c-1 0-4 4-2 5z"/><path fill="#407bff" style="fill:var(--color3, #407bff)" opacity=".2" d="m24 24-1 3c-1 0 0 2-2 2l-3 1-3 1-6-1-2-1-2-2-1-1-1-2-1-2v-4h1v3l2 3 2 3h4c2 0 2-1 3-2h5l3-1 1-1v-4a172 172 0 0 1 1 3v2z"/><path fill="#407bff" style="fill:var(--color3, #407bff)" d="M17 17c1 0 2 0 2 2l-2 2-1-2 1-2z"/><path fill="#fff" style="fill:var(--color4, #fff)" d="M17 17v2l-1-1 1-1z"/><path fill="#8baeff" style="fill:var(--color5, #8baeff)" d="M18 20h-1 1z"/><path fill="#407bff" style="fill:var(--color3, #407bff)" d="M10 17c-1 0-2 0-2 2l1 2 2-2-1-2z"/><path fill="#fff" style="fill:var(--color4, #fff)" d="M10 17v2l1-1-1-1z"/><path fill="#8baeff" style="fill:var(--color5, #8baeff)" d="M9 20z"/></symbol><symbol id="icon-close-btn" viewBox="0 0 32 32"><path fill="none" stroke="#407bff" style="stroke:var(--color1, #407bff)" stroke-linejoin="round" stroke-linecap="round" stroke-width="3.4" d="M2 30 30 2M2 2l28 28"/></symbol><symbol id="bottle-welcome-page" viewBox="0 0 107 32"><path fill="#9ebbff" style="fill:var(--color1, #9ebbff)" d="M0 11h4c3 1 11 1 18 5l22 11 23 3 18 2h4H0V11z"/><path fill="#ecf2ff" style="fill:var(--color2, #ecf2ff)" opacity=".8" d="M107 0h-3c-3 0-9 0-15 2-6 1-12 4-18 4S59 3 53 6 41 17 36 21s-12 5-18 4L3 20l-3-1v13h107V0z"/><path fill="#f5f5f5" style="fill:var(--color3, #f5f5f5)" d="m89 30 11-1H78l11 1z"/><path fill="#407bff" style="fill:var(--color4, #407bff)" opacity=".1" d="M83 25h2l-1-1v-1l1 1 1 1v-1l1-1v1l1 1v1h1l1-2v-1 2l2-2v-1h1v1l1-1 1-1v2l-2 1v1h1l1-1a1 1 0 0 1 0 1l-1 1-1 1v1l-3 1a11 11 0 0 1-5-1l-1-1h1v1h1v-1l-2-1h-1v-1zM93 21l1-2c1 1 0 1-1 2z"/><path fill="#407bff" style="fill:var(--color4, #407bff)" opacity=".3" d="M92 21a1 1 0 0 0 1-1v-4a2 2 0 0 0 0-2l-2-1v-1h-3a1 1 0 0 1 0 1l-1 1a2 2 0 0 0-1 1v5a1 1 0 0 0 0 1 1 1 0 0 0-1 0v6a1 1 0 0 0 1 1l5 1a1 1 0 0 0 1-1l1-6a1 1 0 0 0-1-1z"/><path fill="#407bff" style="fill:var(--color4, #407bff)" opacity=".3" d="m88 12 3 1v-1h-3z"/><path fill="#fff" style="fill:var(--color5, #fff)" opacity=".3" d="m93 15-2-2v1l2 1z"/><path fill="#407bff" style="fill:var(--color4, #407bff)" opacity=".2" d="M85 27a1 1 0 0 0 1 1l5 1a1 1 0 0 0 1 0 1 1 0 0 0 0-1l-7-1z"/><path fill="#407bff" style="fill:var(--color4, #407bff)" opacity=".3" d="M92 15a1 1 0 0 1 1 1l-1 4a1 1 0 0 1 0 1 1 1 0 0 1 0 1v6a1 1 0 0 1-1 0h-5a1 1 0 0 1-1-1l1-5a1 1 0 0 1 0-1h1l-1-1v-5a1 1 0 0 1 1-1l3 1h2z"/><path fill="#407bff" style="fill:var(--color4, #407bff)" opacity=".2" d="m90 15-3-1a7 7 0 0 0 5 1h-2zM86 20a1 1 0 0 0 0 1h6a1 1 0 0 0 1-1h-7z"/><path fill="#407bff" style="fill:var(--color4, #407bff)" d="M91 11h-3v1h4l-1-1z"/><path fill="#fff" style="fill:var(--color5, #fff)" opacity=".2" d="M88 12v-1h1c1 0 0 0 0 0l-1 1zM89 12v-1 1zM90 12v-1 1zM90 12v-1 1zM91 12v-1 1zM91 12v-1 1z"/><path fill="#407bff" style="fill:var(--color4, #407bff)" opacity=".2" d="M87 18h-1v2a1 1 0 0 0 0 1 1 1 0 0 0-1 0v6a1 1 0 0 0 1 1l1 1a1 1 0 0 0 1-2l-1-9z"/><path fill="#407bff" style="fill:var(--color4, #407bff)" opacity=".3" d="M91 26a1 1 0 0 1-1 0l1-1a1 1 0 0 1 0 1zM90 24h-1v-1h1v1zM88 19v-1l1 1h-1zM89 17v-1 1zM91 22z"/><path fill="#fff" style="fill:var(--color5, #fff)" opacity=".7" d="M88 26zm0 0zM91 20h1-1zm0 0h1-1zM88 15zm0 0zM90 18v-1l1 1h-1zm0-1v1h1l-1-1z"/><path fill="#fff" style="fill:var(--color5, #fff)" opacity=".3" d="M93 20v-4l-1 4a1 1 0 0 1 0 1h-1 1a1 1 0 0 1 0 1v6h-1v1c0 1 0 0 0 0a1 1 0 0 0 1-1v-6a1 1 0 0 0 0-1 1 1 0 0 0 1-1z"/><path fill="#407bff" style="fill:var(--color4, #407bff)" opacity=".3" d="M98 27h-3 2v-1l-2 1h-2v-1h-1v1h-1a1 1 0 0 1 0 1h-1l-2-1v-1h-1v1c1 0 1 0 0 0l-2-1h-3l-2-1h-1 1v1l3 1h-3l1 1h1l1 1h4a47 47 0 0 0 8 0h1l1-1h-1a18 18 0 0 0-2 1v-1h3l1-1zM81 25l-1-1 1 1zM96 26c0-1 0-1 0 0zM83 23z"/></symbol><symbol id="icon-bobble" viewBox="0 0 77 32"><path fill="#ecf2ff" style="fill:var(--color2, #ecf2ff)" d="M74 1a1 1 0 0 1-1 1 1 1 0 0 1-1-1 1 1 0 1 1 2 0zM33 2a1 1 0 0 1 0 1 1 1 0 0 1-1-1 1 1 0 1 1 1 0zM4 7H3h1z"/><path fill="#c6d7ff" style="fill:var(--color6, #c6d7ff)" d="M6 18a1 1 0 0 1-1 1 1 1 0 0 1-1 0 1 1 0 1 1 2-1zM41 29a1 1 0 0 1-1 0 1 1 0 0 1-1 0 1 1 0 1 1 2 0zM75 28a1 1 0 0 1-1 1 1 1 0 0 1 0-1 1 1 0 0 1 1 0z"/><path fill="#9ebbff" style="fill:var(--color1, #9ebbff)" opacity=".7" d="M39 7a1 1 0 0 1-1-1 1 1 0 0 1 1-1 1 1 0 0 1 1 0 1 1 0 0 1-1 2zm0-2zM12 9h-1a1 1 0 0 1 0-1 1 1 0 0 1 1 0 1 1 0 0 1 0 1zm0-1a1 1 0 0 0-1 1 1 1 0 1 0 1-1z"/><path fill="#c6d7ff" style="fill:var(--color6, #c6d7ff)" opacity=".7" d="M1 32a1 1 0 1 1 0-2 1 1 0 0 1 1 1 1 1 0 0 1-1 1zm0-2zM37 19a1 1 0 0 1-1-1 1 1 0 1 1 1 1zm0-2z"/><path fill="#9ebbff" style="fill:var(--color1, #9ebbff)" opacity=".7" d="M76 19a1 1 0 0 1-1 0 1 1 0 0 1 0-1 1 1 0 0 1 1-1 1 1 0 0 1 1 0 1 1 0 0 1-1 2zm0-2a1 1 0 0 0-1 1 1 1 0 0 0 1 1 1 1 0 0 0 0-2z"/></symbol><symbol id="icon-calendar" viewBox="0 0 32 32"><path fill="none" stroke="#407bff" style="stroke:var(--color1, #407bff)" stroke-linejoin="round" stroke-linecap="round" stroke-width="1.6" d="M9 4v3m14-3v3M4 25V10a3 3 0 0 1 3-3h18a3 3 0 0 1 3 3v15M4 25a3 3 0 0 0 3 3h18a3 3 0 0 0 3-3M4 25V15a3 3 0 0 1 3-3h18a3 3 0 0 1 3 3v10m-12-8h0v0h0v0zm0 3h0v0h0v0zm0 3h0v0h0v0zm-3-3h0v0h0v0zm0 3h0v0h0v0zm-3-3h0v0h0v0zm0 3h0v0h0v0zm9-6h0v0h0v0zm0 3h0v0h0v0zm0 3h0v0h0v0zm3-6h0v0h0v0zm0 3h0v0h0v0z"/></symbol><symbol id="icon-statisctic" viewBox="0 0 32 32"><path fill="none" stroke="#407bff" style="stroke:var(--color1, #407bff)" stroke-linejoin="round" stroke-linecap="round" stroke-width="1.5" d="M6 4v13a3 3 0 0 0 3 3h2M6 4H4m2 0h20M11 20h10m-10 0-1 4M26 4h2m-2 0v13a3 3 0 0 1-3 3h-2m0 0 1 4m-12 0h12m-12 0v1m12-1v1M12 14v1m4-4v4m4-7v7"/></symbol><symbol id="icon-wrench" viewBox="0 0 32 32"><path fill="none" stroke="#407bff" style="stroke:var(--color1, #407bff)" stroke-linejoin="round" stroke-linecap="round" stroke-width="1.6" d="m15 20 8 8a4 4 0 0 0 5-5l-8-8m-5 5 4-4 1-1h2a6 6 0 0 0 6-8l-4 4a4 4 0 0 1-3-3l4-4a6 6 0 0 0-8 6l-1 3v1m-1 6-6 8a3 3 0 1 1-5-5l9-8-5-5H6L3 5l2-2 5 3v2l6 6-3 1m12 10-4-4M6 26h1v0H6v-1z"/></symbol><symbol id="icon-point" viewBox="0 0 32 32"><path fill="#407bff" style="fill:var(--color1, #407bff)" d="M32 16a16 16 0 1 1-32 0 16 16 0 0 1 32 0z"/></symbol><symbol id="icon-arrow-up-tray" viewBox="0 0 32 32"><path stroke-linejoin="round" stroke-linecap="round" stroke-width="1.3" d="M4 22v3c0 2 1 3 3 3h18c2 0 3-1 3-3v-3M10 10l6-6m0 0 6 6m-6-6v18"/></symbol><symbol id="icon-eye-slash" viewBox="0 0 32 32"><path stroke-linejoin="round" stroke-linecap="round" stroke-width="1.3" d="m5 11-2 5a14 14 0 0 0 17 9M8 8l8-2c6 0 12 4 13 10l-5 8M8 8 4 4m4 4 5 5m11 11 4 4m-4-4-5-5a4 4 0 0 0-3-7l-3 1m6 6-6-6"/></symbol><symbol id="icon-eye" viewBox="0 0 32 32"><path stroke-linejoin="round" stroke-linecap="round" stroke-width="1.3" d="M3 16a14 14 0 0 1 26 0 14 14 0 0 1-26 0z"/><path stroke-linejoin="round" stroke-linecap="round" stroke-width="1.3" d="M20 16a4 4 0 0 1-8 0 4 4 0 0 1 8 0z"/></symbol><symbol id="icon-close" viewBox="0 0 32 32"><path stroke-linejoin="round" stroke-linecap="round" stroke-width="2" d="M8 24 24 8M8 8l16 16"/></symbol><symbol id="icon-minus" viewBox="0 0 32 32"><path fill="#407bff" style="fill:var(--color1, #407bff)" d="M7 16a1 1 0 0 1 1-1h16a1 1 0 0 1 1 2H8a1 1 0 0 1-1-1z"/></symbol></defs></svg>