<svg width="36" height="36" fill="none" xmlns="http://www.w3.org/2000/svg"><path d="m6 3 2 30h19l2-30H6Zm20 29H9L8 10l2 19v1h1v-1L9 10h19l-2 22Zm2-23H9V4H8v5L7 4h21v5Z" fill="#407BFF"/><path d="M13 14a1 1 0 0 0 1-1 1 1 0 0 0 0-1 1 1 0 0 0-3 1l1 1h1Zm0-2a1 1 0 0 1 0 1 1 1 0 0 1-1 0v-1h1ZM13 18a1 1 0 0 0 1 2 1 1 0 0 0 1-1 1 1 0 0 0-1-2 1 1 0 0 0-1 1Zm2 0a1 1 0 0 1-1 1 1 1 0 0 1 0-1h1ZM22 18a1 1 0 0 0 2 0 1 1 0 0 0-1-2 1 1 0 0 0-2 1v1h1Zm0-2a1 1 0 0 1 1 1 1 1 0 0 1-1 0v-1ZM18 16a1 1 0 0 0 1-1 1 1 0 0 0 0-1 1 1 0 0 0-3 0l1 1 1 1Zm0-2a1 1 0 0 1 0 1 1 1 0 0 1-1 0 1 1 0 0 1 0-1 1 1 0 0 1 1 0ZM15 24a1 1 0 0 0 1 1 1 1 0 0 0 1-1 1 1 0 0 0-1-2l-1 1v1Zm1-1v1-1ZM20 22a1 1 0 0 0 2 0 1 1 0 0 0-1-2 1 1 0 0 0-2 1l1 1Zm0-1h1-1ZM23 13a1 1 0 0 0 1-1 1 1 0 0 0 0-1 1 1 0 0 0-2 1v1h1Zm0-1h-1 1ZM12 31h-1 1l6-1a15 15 0 0 1 6 1l-6-2-6 2Z" fill="#407BFF"/></svg>