<svg aria-hidden="true" style="position: absolute; width: 0; height: 0; overflow: hidden;" version="1.1" xmlns="http://www.w3.org/2000/svg" xmlns:xlink="http://www.w3.org/1999/xlink">
<defs>

<symbol id="arrow-calendar-icon" viewBox="0 0 32 32">
<path d="M10.294 16.707c-0.187-0.188-0.292-0.442-0.292-0.707s0.105-0.519 0.292-0.707l10-10c0.092-0.098 0.202-0.177 0.325-0.232s0.255-0.084 0.389-0.086c0.134-0.002 0.268 0.022 0.392 0.073s0.238 0.125 0.333 0.22c0.095 0.095 0.17 0.208 0.22 0.333s0.075 0.258 0.073 0.392c-0.002 0.134-0.032 0.267-0.086 0.389s-0.133 0.233-0.232 0.325l-9.293 9.293 9.293 9.293c0.098 0.092 0.177 0.202 0.232 0.325s0.084 0.255 0.086 0.389-0.022 0.268-0.073 0.392c-0.050 0.124-0.125 0.238-0.22 0.333s-0.208 0.17-0.333 0.22-0.258 0.075-0.392 0.072c-0.134-0.002-0.267-0.032-0.389-0.086s-0.233-0.133-0.325-0.232l-10-10z"></path>
</symbol>

</defs>
</svg>
