<svg width="280" height="210" fill="none" xmlns="http://www.w3.org/2000/svg"><defs><clipPath id="a"><rect rx="0" width="279" height="209" transform="translate(1 1)" fill="#fff" fill-opacity="0"/></clipPath></defs><rect rx="0" width="279" height="209" transform="translate(1 1)" fill="none"/><g clip-path="url(#a)"><path d="M249 204c0 3-49 6-109 6s-109-3-109-6c0-4 49-7 109-7s109 3 109 7Z" fill="#F5F5F5" fill-rule="evenodd"/><path d="m77 159 1-1 1-1c5 0 9 4 13 7 1 1 2 2 3 1l1-1a4 4 0 0 0-1-3c-1-3-4-4-5-6l-3-5c0-1-2-4-1-6 0-2 2-2 3-1l9 6 9 10 3 4c1 0 3 0 3-3v-13l2-4c1-2 3-1 5 0l2 5c2 4 3 9 3 14l2 8c2 4 5 4 8 2 5-4 9-11 10-20l1-8c1-2 4-3 5-1v3l-1 4c0 2-1 5 1 6v1l1-1c5-1 10-5 13-12l2-7 1-5 2-4c2-2 6-1 6 4l-1 8c0 2 1 2 2 2 4 0 7-4 10-8 4-5 8-11 13-12 1 0 3 0 3 2v3c-1 5-3 7-6 9-6 6-12 13-16 20-1 1-2 3-1 4a1 1 0 0 0 1 1l7-4c2-2 4-3 7-2l1 2 1 2 1 4c-1 4-5 6-7 8l-7 8-6 9c-7 9-17 11-26 12a114 114 0 0 1-57-9c-3-1-7-2-7-7v-2c2-1 5 0 7 1l8 5a4 4 0 0 0 3 0l1-1v-2c-5-6-11-10-18-12l-6-3-4-4c-1-2-3-5-2-7ZM184 118a2 2 0 0 1-4-3c2-9 6-16 11-12 4 2-2 10-7 15Z" fill="#407BFF" opacity=".1"/><path d="M170 122a10 10 0 0 0 6-8l4-47a17 17 0 0 0-5-13l-12-13a7 7 0 0 1-1-5v-7l-30-2-1 7a7 7 0 0 1-2 5l-14 10a17 17 0 0 0-6 12l-4 47a11 11 0 0 0 4 9 11 11 0 0 0-6 8l-4 60c-1 2 0 5 2 7 2 3 5 4 7 4l50 4a10 10 0 0 0 8-2 11 11 0 0 0 4-8l4-59a11 11 0 0 0-4-9Z" fill="#407BFF" opacity=".3"/><path d="M132 32v-5l30 2v6l-30-3Z" fill="#407BFF" fill-rule="evenodd" opacity=".3"/><path d="m175 55-12-12s-7 0-1 9c4 8 13 7 13 3Z" fill="var(--prim-color-white)" opacity=".3"/><path d="M99 185a11 11 0 0 0 9 11l50 4a10 10 0 0 0 8-2 11 11 0 0 0 4-8l-71-5Z" fill="#407BFF" opacity=".2"/><path d="M173 56a14 14 0 0 1 3 11l-3 46-2 4-2 2-5 3 4 3a7 7 0 0 1 3 6l-5 59a7 7 0 0 1-8 7l-49-4a7 7 0 0 1-7-8l5-59a7 7 0 0 1 4-6l4-3-4-3a7 7 0 0 1-3-6l4-46a14 14 0 0 1 5-10c5-3 17 4 30 5 14 1 23-2 26-1Z" fill="#407BFF" opacity=".3"/><path d="M147 57c-13-1-25-8-30-5a71 71 0 0 0 56 4c-3-1-12 2-26 1ZM105 108a11 11 0 0 0 4 9l61 5a11 11 0 0 0 6-8l-71-6Z" fill="#407BFF" opacity=".2"/><path d="m133 19 30 2c1 0 2 1 2 3l-1 7-2 2-30-2-2-3v-7l3-2Z" fill="#407BFF" fill-rule="evenodd"/><path d="M133 30v-1l1-9v9l-1 1ZM139 30v-9l1-1v1l-1 9ZM144 30l1-9v9h-1ZM150 31h-1l1-9v-1h1v1l-1 9ZM155 31l1-9-1 9ZM161 32h-1v-1l1-8v-1h1v1l-1 9Z" fill="var(--prim-color-white)" opacity=".2"/><path d="M114 92c-1-4-7-4-8 1l-1 15a11 11 0 0 0 4 9 11 11 0 0 0-6 8l-4 60a11 11 0 0 0 9 11l13 1a9 9 0 0 0 10-11l-17-94Z" fill="#407BFF" opacity=".2"/><path d="M164 170a6 6 0 0 1-4 5 5 5 0 0 1-6-2 5 5 0 0 1-1-6 5 5 0 0 1 10-1l1 4ZM146 148v2l-2 2a4 4 0 0 1-4-1 4 4 0 0 1 3-7l2 2 1 2ZM130 101a4 4 0 0 1-1-8 4 4 0 0 1 4 2 4 4 0 0 1 1 3 4 4 0 0 1-2 3h-2ZM141 78a3 3 0 0 1-3-4 3 3 0 0 1 2-2h2l1 1v2a3 3 0 0 1-2 3ZM158 132h-1v1a2 2 0 0 1-2-1 2 2 0 0 1 1-2h1l1 2Z" fill="#407BFF" opacity=".3"/><path d="M129 176h-1a3 3 0 0 1-2-2 3 3 0 0 1-1-2l1-2a3 3 0 0 1 4-1 3 3 0 0 1-1 7Zm0-6a3 3 0 0 0-3 2v2l2 1h1l2-1 1-2a3 3 0 0 0-3-2ZM163 110a2 2 0 0 1-2-3l1-1 2-1 1 1 1 2-1 1-2 1Zm-2-3 1 1 1 1h2v-1a2 2 0 0 0 0-1v-1h-1v-1h-1l-1 1-1 1ZM127 60l-1-1v-1h1v-1l1 1v2h-1Zm0-1h1a1 1 0 0 0 0-1h-1v1ZM152 89a3 3 0 0 1-3-3l1-2 1-1a3 3 0 0 1 4 3v1a3 3 0 0 1-3 2Zm0-5h-2v4h2a2 2 0 0 0 2 0v-4h-2Z" fill="var(--prim-color-white)" opacity=".7"/><path d="m175 114 4-45-1-1a2 2 0 0 0-1-1 2 2 0 0 0-2 0 2 2 0 0 0-1 2l-3 44a9 9 0 0 1-5 7l-2 2 2 1a9 9 0 0 1 3 8l-5 59c0 4-2 5-5 7h-1v1a1 1 0 0 0 1 1 9 9 0 0 0 10-9l5-59a9 9 0 0 0-4-8l-2-1 2-1a9 9 0 0 0 5-7Z" fill="var(--prim-color-white)" opacity=".3"/><path d="M233 182c-1-2-8-1-10-1l-9 3c-3 1-6 3-10 1-1-1 5-3 6-3l8-4c1-1 3-2 2-4l-5-1-14 4-12 6-6 2c-2 0-4 0-5-2-1-1 0-2 1-3l-1-4-2-2h-7l-4 3c-2 2-4 4-4 7a7 7 0 0 1-3 5c-3 2-9 2-13 1-7-2-13-6-14-11-1-2-1-4-4-5-2-1-6 0-5 2l1 2c1 1 2 3-1 4h-2c-7-1-14-3-19-7l-3-4-2-3-2-1c-3-2-9-1-10 2l1 4v1h-1c-6 1-12-2-17-4-5-3-11-6-18-6h-5l-1 1v1l1 2 8 3c9 3 17 6 25 11 1 0 2 1 1 2h-5l-7-2H56l-4 2-1 1v1c2 2 7 3 10 4l10 4 9 5c11 5 26 6 40 6a467 467 0 0 0 75-4l9-1 9-2 3-1v-2h-9a177 177 0 0 0-15 4l-4-1-1-1v-1l19-5 14-2c4-1 8-1 11-4l2-1v-2ZM60 159c-2-4-8-13-9-8-1 3 9 8 9 8ZM207 169c3-3 7-5 7-2 1 2-7 2-7 2ZM78 146c-2-1-3-3-2-4s2 4 2 4Z" fill="#407BFF" opacity=".3"/></g></svg>