<svg width="280.000000" height="210.000000" viewBox="0 0 280 210" fill="none" xmlns="http://www.w3.org/2000/svg" xmlns:xlink="http://www.w3.org/1999/xlink">
	<desc>
			Created with Pixso.
	</desc>
	<defs>
		<clipPath id="clip115_1272">
			<rect id="Frame" rx="0.000000" width="279.000000" height="209.000000" transform="translate(0.500000 0.500000)" fill="white" fill-opacity="0"/>
		</clipPath>
	</defs>
	<rect id="Frame" rx="0.000000" width="279.000000" height="209.000000" transform="translate(0.500000 0.500000)" fill="#FFFFFF" fill-opacity="0"/>
	<g clip-path="url(#clip115_1272)">
		<path id="&lt;Path&gt;" d="M248.57 203.62C248.57 207.14 199.96 210 140 210C80.03 210 31.42 207.14 31.42 203.62C31.42 200.09 80.03 197.24 140 197.24C199.96 197.24 248.57 200.09 248.57 203.62Z" fill="#F5F5F5" fill-opacity="1.000000" fill-rule="evenodd"/>
		<g opacity="0.100000">
			<path id="Vector" d="M76.88 159.07C76.95 158.57 77.21 158.1 77.6 157.78C78 157.46 78.5 157.3 79.01 157.34C83.8 157.27 88.29 160.68 92.45 164.34C93.38 165.14 94.38 165.98 95.41 165.13C95.73 164.87 95.97 164.51 96.09 164.11C96.26 163.45 96.26 162.76 96.09 162.1C95.93 161.56 95.67 161.05 95.33 160.61C93.52 158.21 91.32 157.06 89.53 154.59C88.53 153.17 87.7 151.64 87.06 150.02C86.5 148.6 85.38 146.31 85.83 144.39C86.33 142.09 88.04 142.28 89.07 142.6C92.35 143.59 95.41 145.94 98.19 148.86C101.15 151.97 103.83 155.72 106.5 159.45C107.51 160.86 108.57 162.32 109.86 162.83C111.15 163.34 112.78 162.51 113.32 160.47C113.87 158.43 113.23 156.09 113.09 154.06C112.91 151.64 113.03 149.2 113.44 146.81C113.62 145.55 114.05 144.33 114.69 143.23C116.13 141.1 118.27 141.85 119.67 143.46C120.74 144.81 121.57 146.33 122.11 147.97C123.69 152.48 124.63 157.2 124.91 161.97C125.13 164.93 125.58 168.01 126.79 170.31C128.74 174.02 132.39 173.72 135.21 171.78C140.14 168.4 143.93 160.75 144.95 152.21C145.28 149.43 145.36 146.42 146.37 144.08C147.25 142.07 149.5 140.7 150.61 142.88C151.05 143.97 151.18 145.16 150.97 146.32C150.77 147.46 150.49 148.59 150.13 149.7C149.57 151.61 149.01 155.2 150.52 156.32C150.75 156.46 151 156.55 151.26 156.58C151.53 156.61 151.79 156.58 152.04 156.49C156.99 155.46 161.59 150.77 164.62 144.22C165.71 141.76 166.55 139.19 167.12 136.55C167.48 134.94 167.63 133.21 168.03 131.61C168.29 130.35 168.82 129.16 169.57 128.12C171.5 125.8 175.94 126.89 176.19 131.87C176.35 134.75 175.58 137.57 175.3 140.39C175.13 142.14 176.21 142.13 177.02 142.08C180.88 141.68 184.3 137.76 187.33 133.68C190.93 128.83 194.91 122.53 199.83 122.34C200.95 122.3 202.82 122.45 203.49 124.19C203.8 125.26 203.8 126.39 203.49 127.46C202.49 131.62 199.57 133.76 197.33 135.82C191.01 141.78 185.46 148.51 180.79 155.85C180.08 156.98 179.35 158.84 180.02 159.94C180.15 160.15 180.34 160.32 180.57 160.42C180.79 160.52 181.04 160.55 181.28 160.51C183.6 160.33 185.76 158.48 187.88 156.94C189.99 155.41 192.38 154.07 194.6 155.23C195.28 155.64 195.87 156.18 196.34 156.83C196.82 157.47 197.16 158.2 197.35 158.98C197.74 160.34 197.8 161.78 197.53 163.17C196.72 167 193.21 168.72 191.27 170.61C188.61 173.19 186.18 176 183.99 179C181.98 181.78 180.07 184.82 178.06 187.55C170.78 197.31 160.7 198.76 151.74 199.9C141.99 201.12 132.22 200.46 122.52 199.17C115.47 198.22 108.52 196.2 101.64 193.81C99.28 192.95 96.93 192.01 94.61 190.89C92.12 189.69 88.45 188.96 87.5 184.25C87.29 183.24 87.53 182.41 88.2 182.04C90.26 180.85 93.21 182.44 95.15 183.48C97.83 184.92 100.38 186.98 103.13 188.09C103.57 188.31 104.06 188.43 104.55 188.46C105.04 188.49 105.53 188.41 106 188.24C106.45 188.05 106.83 187.7 107.06 187.27C107.35 186.69 107.42 186.03 107.26 185.41C107.14 185.08 106.95 184.77 106.7 184.53C101.74 179.41 95.81 175.35 89.27 172.57C87.17 171.66 85.03 170.92 83 169.63C81.37 168.61 79.96 167.27 78.86 165.69C77.92 164.17 76.41 161.49 76.88 159.07Z" fill="#407BFF" fill-opacity="1.000000" fill-rule="nonzero"/>
		</g>
		<g opacity="0.100000">
			<path id="Vector" d="M183.99 117.65C183.62 118.04 183.13 118.29 182.6 118.38C182.07 118.46 181.52 118.37 181.04 118.12C180.57 117.86 180.19 117.46 179.96 116.97C179.73 116.47 179.67 115.92 179.78 115.39C181.72 105.95 185.92 99.09 190.91 102.65C194.64 105.3 188.79 112.62 183.99 117.65Z" fill="#407BFF" fill-opacity="1.000000" fill-rule="nonzero"/>
		</g>
		<g opacity="0.300000">
			<path id="Vector" d="M170.44 122.05C171.97 121.2 173.27 119.99 174.21 118.51C175.16 117.04 175.73 115.35 175.87 113.6L179.65 67.19C179.85 64.8 179.55 62.4 178.77 60.14C177.99 57.88 176.75 55.8 175.12 54.05L163.46 41.48C162.82 40.79 162.33 39.96 162.02 39.07C161.71 38.17 161.59 37.22 161.66 36.27L162.22 29.48L132.03 26.98L131.47 33.78C131.39 34.72 131.12 35.64 130.67 36.48C130.22 37.31 129.6 38.04 128.86 38.62L115.31 49.12C113.42 50.58 111.86 52.42 110.73 54.52C109.59 56.63 108.9 58.94 108.71 61.33L104.92 107.74C104.77 109.49 105.06 111.25 105.76 112.86C106.45 114.47 107.53 115.88 108.9 116.96C107.37 117.81 106.08 119.03 105.13 120.5C104.18 121.98 103.62 123.67 103.48 125.42L98.64 184.59C98.42 187.41 99.31 190.2 101.12 192.35C102.94 194.5 105.53 195.84 108.32 196.07L158.16 200.19C159.55 200.31 160.94 200.15 162.26 199.72C163.58 199.3 164.81 198.61 165.87 197.71C166.93 196.8 167.8 195.7 168.44 194.45C169.07 193.21 169.46 191.85 169.57 190.46L174.4 131.28C174.55 129.54 174.27 127.78 173.57 126.17C172.88 124.56 171.81 123.14 170.44 122.05Z" fill="#407BFF" fill-opacity="1.000000" fill-rule="nonzero"/>
		</g>
		<g opacity="0.300000">
			<path id="Vector" d="M131.61 32.23L132.04 26.99L162.22 29.49L161.8 34.73L131.61 32.23Z" fill="#407BFF" fill-opacity="1.000000" fill-rule="evenodd"/>
		</g>
		<g opacity="0.300000">
			<path id="Vector" d="M174.84 55.27L163.18 42.68C163.18 42.68 155.66 43.01 161.5 52.29C166.48 60.14 175.15 58.92 174.84 55.27Z" fill="#FFFFFF" fill-opacity="1.000000" fill-rule="nonzero"/>
		</g>
		<g opacity="0.200000">
			<path id="Vector" d="M98.65 184.57C98.42 187.39 99.31 190.17 101.13 192.33C102.94 194.48 105.53 195.82 108.33 196.05L158.17 200.17C159.55 200.29 160.94 200.13 162.27 199.7C163.59 199.27 164.82 198.59 165.87 197.68C166.93 196.78 167.81 195.67 168.44 194.43C169.08 193.19 169.46 191.83 169.57 190.44L98.65 184.57Z" fill="#407BFF" fill-opacity="1.000000" fill-rule="nonzero"/>
		</g>
		<g opacity="0.300000">
			<path id="Vector" d="M172.67 56.35C173.97 57.76 174.97 59.42 175.59 61.24C176.22 63.06 176.46 64.98 176.31 66.9L172.52 113.32C172.42 114.51 172.03 115.66 171.39 116.67C170.74 117.67 169.85 118.5 168.81 119.08L164.41 121.53L168.35 124.68C169.29 125.43 170.03 126.39 170.5 127.49C170.98 128.58 171.17 129.78 171.08 130.97L166.24 190.15C166.09 192.07 165.18 193.85 163.73 195.09C162.27 196.34 160.38 196.95 158.48 196.8L108.64 192.68C107.69 192.61 106.77 192.34 105.92 191.91C105.08 191.48 104.32 190.88 103.71 190.15C103.09 189.42 102.62 188.58 102.33 187.67C102.04 186.76 101.92 185.81 102 184.85L106.83 125.68C106.93 124.48 107.32 123.33 107.96 122.33C108.61 121.32 109.49 120.49 110.53 119.91L114.94 117.45L111.02 114.3C110.09 113.56 109.35 112.6 108.87 111.5C108.4 110.41 108.2 109.21 108.3 108.01L112.09 61.6C112.25 59.69 112.8 57.82 113.71 56.13C114.63 54.45 115.88 52.97 117.39 51.79C121.87 48.88 133.63 56.13 147.4 57.27C161.17 58.41 169.79 54.89 172.67 56.35Z" fill="#407BFF" fill-opacity="1.000000" fill-rule="nonzero"/>
		</g>
		<g opacity="0.200000">
			<path id="Vector" d="M147.38 57.28C133.61 56.15 121.84 48.88 117.36 51.79C125.2 56.13 134.16 58.82 147.16 59.9C160.16 60.98 172.67 56.35 172.67 56.35C169.79 54.89 161.14 58.42 147.38 57.28Z" fill="#407BFF" fill-opacity="1.000000" fill-rule="nonzero"/>
		</g>
		<g opacity="0.200000">
			<path id="Vector" d="M104.92 107.74C104.78 109.49 105.07 111.25 105.76 112.86C106.46 114.47 107.54 115.88 108.9 116.96L170.44 122.04C171.97 121.19 173.27 119.97 174.21 118.5C175.16 117.02 175.73 115.33 175.87 113.58L104.92 107.74Z" fill="#407BFF" fill-opacity="1.000000" fill-rule="nonzero"/>
		</g>
		<path id="Vector" d="M132.76 18.68L162.85 21.18C164.12 21.28 165.05 22.39 164.95 23.66L164.35 31.03C164.25 32.3 163.14 33.24 161.88 33.14L131.78 30.64C130.52 30.54 129.58 29.42 129.69 28.16L130.29 20.79C130.39 19.52 131.5 18.57 132.76 18.68Z" fill="#407BFF" fill-opacity="1.000000" fill-rule="evenodd"/>
		<g opacity="0.200000">
			<path id="Vector" d="M133.31 29.5C133.27 29.5 133.24 29.49 133.2 29.47C133.17 29.46 133.14 29.43 133.12 29.41C133.09 29.38 133.08 29.35 133.06 29.31C133.05 29.27 133.05 29.24 133.05 29.2L133.76 20.28C133.76 20.21 133.8 20.14 133.85 20.09C133.91 20.04 133.99 20.02 134.06 20.03C134.13 20.03 134.2 20.07 134.25 20.12C134.3 20.18 134.32 20.25 134.32 20.33L133.59 29.24C133.58 29.31 133.55 29.38 133.5 29.43C133.45 29.48 133.38 29.5 133.31 29.5Z" fill="#FFFFFF" fill-opacity="1.000000" fill-rule="nonzero"/>
		</g>
		<g opacity="0.200000">
			<path id="Vector" d="M138.77 29.96C138.73 29.95 138.7 29.94 138.66 29.93C138.63 29.91 138.6 29.89 138.58 29.86C138.55 29.83 138.53 29.8 138.52 29.76C138.51 29.73 138.51 29.69 138.51 29.65L139.24 20.74C139.25 20.67 139.28 20.6 139.34 20.55C139.39 20.5 139.47 20.48 139.54 20.48C139.58 20.48 139.61 20.49 139.65 20.51C139.68 20.53 139.71 20.55 139.73 20.58C139.75 20.61 139.77 20.64 139.78 20.68C139.79 20.71 139.8 20.75 139.79 20.79L139.05 29.7C139.04 29.77 139.01 29.83 138.96 29.88C138.91 29.93 138.84 29.95 138.77 29.96Z" fill="#FFFFFF" fill-opacity="1.000000" fill-rule="nonzero"/>
		</g>
		<g opacity="0.200000">
			<path id="Vector" d="M144.22 30.43C144.19 30.43 144.15 30.42 144.12 30.4C144.08 30.38 144.06 30.36 144.03 30.33C144.01 30.3 143.99 30.27 143.98 30.23C143.97 30.2 143.96 30.16 143.97 30.12L144.69 21.21C144.7 21.14 144.74 21.07 144.79 21.02C144.85 20.98 144.92 20.95 145 20.96C145.03 20.96 145.07 20.97 145.1 20.98C145.13 21 145.16 21.02 145.19 21.05C145.21 21.08 145.23 21.11 145.24 21.15C145.25 21.19 145.26 21.22 145.25 21.26L144.53 30.17C144.52 30.21 144.51 30.24 144.5 30.28C144.48 30.31 144.46 30.34 144.43 30.36C144.4 30.39 144.37 30.41 144.33 30.42C144.3 30.43 144.26 30.43 144.22 30.43Z" fill="#FFFFFF" fill-opacity="1.000000" fill-rule="nonzero"/>
		</g>
		<g opacity="0.200000">
			<path id="Vector" d="M149.68 30.86C149.65 30.85 149.61 30.84 149.58 30.83C149.54 30.81 149.52 30.79 149.49 30.76C149.47 30.73 149.45 30.7 149.44 30.66C149.43 30.63 149.42 30.59 149.42 30.55L150.15 21.64C150.16 21.57 150.2 21.5 150.25 21.45C150.31 21.4 150.38 21.38 150.46 21.38C150.49 21.39 150.53 21.4 150.56 21.41C150.59 21.43 150.62 21.45 150.65 21.48C150.67 21.51 150.69 21.54 150.7 21.58C150.71 21.61 150.71 21.65 150.71 21.69L149.98 30.6C149.98 30.63 149.97 30.67 149.95 30.7C149.94 30.74 149.91 30.77 149.89 30.79C149.86 30.81 149.83 30.83 149.79 30.84C149.76 30.86 149.72 30.86 149.68 30.86Z" fill="#FFFFFF" fill-opacity="1.000000" fill-rule="nonzero"/>
		</g>
		<g opacity="0.200000">
			<path id="Vector" d="M155.12 31.31C155.08 31.31 155.04 31.3 155.01 31.28C154.98 31.26 154.95 31.24 154.92 31.21C154.9 31.18 154.88 31.15 154.87 31.11C154.86 31.08 154.85 31.04 154.86 31L155.59 22.09C155.6 22.02 155.63 21.95 155.69 21.91C155.74 21.86 155.81 21.83 155.89 21.83C155.92 21.84 155.96 21.85 155.99 21.86C156.03 21.88 156.06 21.9 156.08 21.93C156.1 21.96 156.12 21.99 156.13 22.03C156.14 22.06 156.15 22.1 156.14 22.14L155.42 31.05C155.42 31.09 155.41 31.12 155.39 31.16C155.37 31.19 155.35 31.22 155.32 31.24C155.29 31.27 155.26 31.29 155.23 31.3C155.19 31.31 155.15 31.31 155.12 31.31Z" fill="#FFFFFF" fill-opacity="1.000000" fill-rule="nonzero"/>
		</g>
		<g opacity="0.200000">
			<path id="Vector" d="M160.6 31.76C160.56 31.76 160.53 31.75 160.49 31.73C160.46 31.71 160.43 31.69 160.41 31.66C160.38 31.63 160.36 31.6 160.35 31.56C160.34 31.53 160.34 31.49 160.34 31.45L161.05 22.54C161.05 22.46 161.09 22.4 161.14 22.35C161.2 22.3 161.27 22.27 161.35 22.28C161.42 22.29 161.49 22.32 161.54 22.38C161.58 22.44 161.61 22.51 161.6 22.58L160.88 31.5C160.87 31.57 160.84 31.64 160.79 31.68C160.74 31.73 160.67 31.76 160.6 31.76Z" fill="#FFFFFF" fill-opacity="1.000000" fill-rule="nonzero"/>
		</g>
		<g opacity="0.200000">
			<path id="Vector" d="M114.24 92.24C113.38 87.5 106.52 87.84 106.13 92.63L104.9 107.74C104.76 109.49 105.05 111.25 105.74 112.86C106.43 114.47 107.51 115.88 108.88 116.96C107.35 117.81 106.06 119.03 105.11 120.5C104.17 121.98 103.6 123.67 103.46 125.42L98.63 184.59C98.4 187.41 99.29 190.2 101.11 192.35C102.92 194.5 105.51 195.84 108.31 196.07L121.19 197.14C122.6 197.26 124.03 197.04 125.36 196.52C126.68 195.99 127.87 195.17 128.82 194.1C129.78 193.04 130.48 191.78 130.87 190.4C131.27 189.02 131.34 187.57 131.09 186.16L114.24 92.24Z" fill="#407BFF" fill-opacity="1.000000" fill-rule="nonzero"/>
		</g>
		<g opacity="0.300000">
			<path id="Vector" d="M163.8 169.73C163.71 170.81 163.3 171.85 162.63 172.7C161.95 173.56 161.04 174.19 160.01 174.52C158.98 174.86 157.87 174.87 156.83 174.57C155.79 174.27 154.86 173.67 154.16 172.84C153.46 172.01 153.02 170.99 152.9 169.9C152.77 168.82 152.97 167.73 153.47 166.76C153.96 165.79 154.73 164.99 155.68 164.46C156.62 163.93 157.7 163.69 158.78 163.78C160.23 163.9 161.57 164.6 162.51 165.71C163.45 166.83 163.91 168.27 163.8 169.73Z" fill="#407BFF" fill-opacity="1.000000" fill-rule="nonzero"/>
		</g>
		<g opacity="0.300000">
			<path id="Vector" d="M146.39 148.38C146.32 149.15 146.03 149.89 145.56 150.49C145.08 151.09 144.44 151.54 143.71 151.78C142.98 152.02 142.2 152.03 141.46 151.82C140.72 151.6 140.06 151.18 139.57 150.59C139.07 150 138.76 149.28 138.67 148.51C138.59 147.75 138.73 146.97 139.08 146.28C139.43 145.6 139.97 145.03 140.64 144.66C141.31 144.28 142.08 144.12 142.84 144.18C143.86 144.27 144.81 144.76 145.48 145.54C146.14 146.33 146.47 147.35 146.39 148.38Z" fill="#407BFF" fill-opacity="1.000000" fill-rule="nonzero"/>
		</g>
		<g opacity="0.300000">
			<path id="Vector" d="M130.18 100.88C129.42 100.91 128.66 100.72 128 100.32C127.35 99.92 126.82 99.34 126.5 98.64C126.17 97.94 126.06 97.17 126.17 96.4C126.29 95.64 126.62 94.93 127.14 94.36C127.65 93.79 128.32 93.38 129.07 93.2C129.81 93.01 130.59 93.05 131.31 93.31C132.03 93.57 132.66 94.04 133.12 94.66C133.57 95.28 133.84 96.02 133.87 96.79C133.9 97.3 133.82 97.82 133.65 98.3C133.48 98.78 133.21 99.23 132.87 99.61C132.53 99.98 132.12 100.29 131.65 100.51C131.19 100.73 130.69 100.85 130.18 100.88Z" fill="#407BFF" fill-opacity="1.000000" fill-rule="nonzero"/>
		</g>
		<g opacity="0.300000">
			<path id="Vector" d="M140.75 77.56C140.21 77.59 139.67 77.45 139.2 77.17C138.74 76.89 138.37 76.48 138.13 75.98C137.9 75.49 137.82 74.94 137.9 74.4C137.98 73.86 138.22 73.35 138.58 72.95C138.95 72.54 139.42 72.26 139.95 72.12C140.48 71.99 141.03 72.02 141.54 72.21C142.06 72.39 142.5 72.72 142.82 73.16C143.14 73.6 143.33 74.13 143.36 74.68C143.39 75.41 143.13 76.12 142.64 76.66C142.16 77.2 141.48 77.53 140.75 77.56Z" fill="#407BFF" fill-opacity="1.000000" fill-rule="nonzero"/>
		</g>
		<g opacity="0.300000">
			<path id="Vector" d="M157.75 131.53C157.73 131.84 157.61 132.15 157.41 132.39C157.21 132.64 156.95 132.83 156.64 132.93C156.34 133.02 156.02 133.03 155.72 132.94C155.41 132.85 155.14 132.68 154.94 132.43C154.73 132.19 154.6 131.89 154.57 131.58C154.53 131.26 154.59 130.94 154.73 130.66C154.88 130.37 155.1 130.14 155.38 129.98C155.65 129.83 155.97 129.76 156.28 129.78C156.71 129.82 157.1 130.02 157.38 130.35C157.65 130.68 157.79 131.1 157.75 131.53Z" fill="#407BFF" fill-opacity="1.000000" fill-rule="nonzero"/>
		</g>
		<g opacity="0.700000">
			<path id="Vector" d="M128.75 175.62L128.48 175.62C128.05 175.59 127.63 175.48 127.24 175.28C126.86 175.09 126.52 174.82 126.24 174.49C125.96 174.17 125.75 173.79 125.62 173.38C125.49 172.97 125.44 172.54 125.48 172.12C125.53 171.49 125.77 170.88 126.15 170.38C126.54 169.88 127.06 169.51 127.66 169.3C128.25 169.09 128.89 169.07 129.51 169.22C130.12 169.38 130.67 169.71 131.1 170.18C131.52 170.64 131.8 171.22 131.91 171.85C132.01 172.47 131.93 173.11 131.68 173.69C131.43 174.27 131.02 174.77 130.49 175.12C129.96 175.46 129.35 175.65 128.72 175.65L128.75 175.62ZM128.75 169.51C128.11 169.52 127.49 169.74 127 170.14C126.5 170.54 126.16 171.11 126.02 171.73C125.89 172.36 125.97 173.01 126.25 173.59C126.54 174.16 127.01 174.62 127.58 174.89C128.16 175.16 128.81 175.22 129.43 175.07C130.05 174.91 130.6 174.55 130.98 174.04C131.37 173.53 131.57 172.9 131.56 172.26C131.54 171.62 131.31 171.01 130.9 170.52C130.66 170.23 130.37 170 130.04 169.83C129.71 169.66 129.35 169.55 128.98 169.52L128.75 169.51Z" fill="#FFFFFF" fill-opacity="1.000000" fill-rule="nonzero"/>
		</g>
		<g opacity="0.700000">
			<path id="Vector" d="M163.38 109.67L163.19 109.67C162.56 109.62 161.99 109.32 161.58 108.84C161.18 108.36 160.98 107.74 161.03 107.12C161.08 106.49 161.38 105.91 161.85 105.5C162.33 105.1 162.95 104.9 163.57 104.95C164.19 105 164.77 105.3 165.17 105.78C165.58 106.25 165.78 106.87 165.73 107.5C165.67 108.13 165.38 108.71 164.9 109.12C164.48 109.48 163.94 109.67 163.38 109.67ZM161.45 107.14C161.42 107.52 161.51 107.91 161.69 108.24C161.88 108.58 162.16 108.85 162.5 109.02C162.84 109.19 163.23 109.26 163.61 109.22C163.99 109.17 164.34 109.02 164.64 108.77C164.83 108.6 164.99 108.4 165.11 108.17C165.22 107.94 165.29 107.7 165.31 107.44C165.33 107.18 165.31 106.93 165.23 106.68C165.15 106.44 165.02 106.21 164.86 106.02C164.69 105.83 164.48 105.67 164.25 105.57C164.02 105.46 163.77 105.4 163.52 105.39C163.26 105.37 163.01 105.39 162.76 105.47C162.52 105.55 162.3 105.68 162.1 105.84C161.91 106.01 161.75 106.21 161.63 106.44C161.52 106.66 161.45 106.91 161.43 107.17L161.45 107.14Z" fill="#FFFFFF" fill-opacity="1.000000" fill-rule="nonzero"/>
		</g>
		<g opacity="0.700000">
			<path id="Vector" d="M127.2 59.7L127.12 59.7C126.83 59.67 126.56 59.53 126.37 59.31C126.18 59.09 126.09 58.8 126.11 58.51C126.12 58.29 126.2 58.08 126.33 57.9C126.46 57.73 126.64 57.59 126.85 57.52C127.05 57.45 127.27 57.43 127.49 57.48C127.7 57.54 127.89 57.65 128.04 57.81C128.19 57.97 128.29 58.17 128.33 58.39C128.37 58.6 128.34 58.83 128.25 59.03C128.17 59.23 128.02 59.4 127.84 59.52C127.66 59.64 127.45 59.71 127.23 59.71L127.2 59.7ZM126.52 58.54C126.51 58.68 126.54 58.81 126.61 58.93C126.67 59.04 126.77 59.14 126.89 59.2C127.01 59.26 127.14 59.29 127.27 59.27C127.41 59.26 127.53 59.2 127.64 59.11C127.74 59.03 127.81 58.91 127.85 58.78C127.89 58.65 127.88 58.52 127.84 58.39C127.8 58.26 127.72 58.15 127.62 58.06C127.52 57.98 127.39 57.93 127.26 57.92C127.17 57.91 127.08 57.92 126.99 57.94C126.91 57.97 126.83 58.01 126.76 58.07C126.69 58.13 126.63 58.2 126.59 58.28C126.55 58.36 126.53 58.45 126.52 58.54Z" fill="#FFFFFF" fill-opacity="1.000000" fill-rule="nonzero"/>
		</g>
		<g opacity="0.700000">
			<path id="Vector" d="M151.96 88.89L151.73 88.89C151.36 88.86 151 88.76 150.67 88.59C150.34 88.42 150.05 88.19 149.81 87.9C149.57 87.62 149.39 87.29 149.28 86.93C149.17 86.58 149.12 86.21 149.16 85.84C149.2 85.29 149.41 84.77 149.74 84.34C150.08 83.91 150.53 83.59 151.05 83.42C151.56 83.24 152.11 83.22 152.64 83.35C153.16 83.49 153.64 83.77 154.01 84.18C154.38 84.58 154.62 85.08 154.71 85.62C154.8 86.16 154.73 86.71 154.51 87.21C154.29 87.71 153.94 88.14 153.48 88.44C153.03 88.74 152.5 88.9 151.96 88.9L151.96 88.89ZM151.96 83.65C151.4 83.65 150.85 83.85 150.42 84.21C149.94 84.62 149.64 85.21 149.58 85.85C149.55 86.24 149.62 86.64 149.77 87C149.93 87.36 150.17 87.68 150.48 87.93C150.79 88.17 151.15 88.34 151.54 88.41C151.92 88.48 152.32 88.45 152.7 88.33C153.07 88.21 153.41 88 153.68 87.72C153.96 87.43 154.16 87.09 154.26 86.71C154.37 86.33 154.39 85.92 154.3 85.54C154.22 85.15 154.05 84.79 153.79 84.49C153.59 84.25 153.34 84.05 153.06 83.9C152.78 83.76 152.48 83.67 152.16 83.65L151.96 83.65Z" fill="#FFFFFF" fill-opacity="1.000000" fill-rule="nonzero"/>
		</g>
		<g opacity="0.300000">
			<path id="Vector" d="M174.93 113.53L178.55 69.27C178.57 68.99 178.54 68.7 178.46 68.43C178.37 68.16 178.23 67.91 178.05 67.7C177.87 67.48 177.64 67.3 177.39 67.17C177.14 67.05 176.87 66.97 176.59 66.94C176.31 66.92 176.02 66.95 175.75 67.04C175.49 67.12 175.24 67.26 175.02 67.45C174.81 67.63 174.63 67.85 174.5 68.11C174.37 68.36 174.3 68.63 174.27 68.92L170.66 113.18C170.54 114.65 170.06 116.07 169.26 117.31C168.47 118.54 167.38 119.57 166.09 120.28L163.89 121.51L165.87 123.08C167.02 124 167.93 125.18 168.52 126.54C169.1 127.89 169.35 129.37 169.23 130.84L164.39 190.02C164.1 193.57 161.89 195.3 158.77 196.68C158.57 196.77 158.41 196.92 158.3 197.11C158.2 197.3 158.17 197.53 158.2 197.74C158.24 197.96 158.34 198.15 158.5 198.3C158.66 198.45 158.86 198.54 159.08 198.56C161.43 198.75 163.76 198 165.56 196.46C167.36 194.93 168.48 192.74 168.67 190.37L173.51 131.19C173.63 129.72 173.38 128.24 172.8 126.89C172.21 125.54 171.3 124.35 170.15 123.44L168.17 121.86L170.37 120.63C171.65 119.92 172.74 118.9 173.54 117.66C174.34 116.42 174.81 115 174.93 113.53Z" fill="#FFFFFF" fill-opacity="1.000000" fill-rule="nonzero"/>
		</g>
		<g opacity="0.300000">
			<path id="Vector" d="M233.06 182.31C232.46 179.55 224.91 181.18 223.35 181.44C220.31 181.99 217.34 182.86 214.48 184.01C211.32 185.26 207.66 187.09 204.4 185.2C202.51 184.1 209.06 181.95 209.65 181.73C212.44 180.74 215.13 179.5 217.68 178.02C218.72 177.4 220.73 175.92 219.86 174.41C219.15 173.16 216.58 173.28 215.01 173.47C210.28 174.06 205.63 175.23 201.19 176.96C196.86 178.69 192.63 180.64 188.5 182.81C186.9 183.72 185.16 184.35 183.35 184.67C181.38 184.96 178.97 184.53 178.19 183.43C177.41 182.33 178.41 181.05 178.64 179.94C178.97 178.62 178.83 177.23 178.25 176C177.87 175.17 177.23 174.5 176.43 174.07C174.3 172.94 171.08 173.36 168.93 174.25C167.54 174.84 166.27 175.69 165.18 176.74C163 178.79 161.46 181.45 160.77 184.38C160.6 185.3 160.25 186.17 159.74 186.95C159.23 187.73 158.57 188.4 157.8 188.93C154.8 190.96 149.3 190.84 145.1 189.82C137.75 188.07 132.16 183.97 130.81 179.35C130.15 177.14 129.83 174.84 126.89 173.98C124.98 173.41 120.99 173.81 121.85 176.23C122.15 176.89 122.56 177.51 123.04 178.06C123.82 179.09 124.65 181.03 122.34 181.66C121.59 181.82 120.82 181.86 120.06 181.77C112.62 181.27 105.78 178.77 101.34 175.26C99.9 174.11 98.67 172.71 97.73 171.12C97.2 170.25 97.01 169.31 96.43 168.45C95.88 167.62 95.1 166.97 94.19 166.57C91.34 165.34 84.63 165.98 84.16 168.68C83.91 170.15 84.81 171.74 85.28 173.13C85.36 173.31 85.38 173.51 85.33 173.69C85.2 174.05 84.67 174.15 84.21 174.18C78.22 174.58 72.4 172.23 67.36 169.79C62.03 167.2 56.16 163.82 48.75 163.78C47.22 163.71 45.69 163.89 44.21 164.31C43.84 164.41 43.49 164.59 43.19 164.83C43.01 165.02 42.89 165.26 42.85 165.52C42.8 165.78 42.84 166.05 42.95 166.29C43.19 166.79 43.55 167.21 43.99 167.54C46.23 169.38 49.36 170.12 52.23 171.07C60.72 173.84 68.93 177.41 76.74 181.75C77.53 182.19 78.93 183.22 77.82 184C76.72 184.78 74.46 184.28 73.14 184.06C70.73 183.66 68.42 183.03 66.07 182.44C62.97 181.65 59.35 180.94 55.99 181.59C54.21 181.93 52.63 182.67 51.8 183.66C51.51 183.95 51.32 184.32 51.25 184.73C51.19 185.13 51.25 185.55 51.44 185.91C52.59 187.98 57.85 188.87 60.72 189.86C64.4 191.12 68 192.61 71.49 194.33C74.48 195.82 77.25 197.44 80.27 198.9C91.07 204.12 106.16 204.79 119.65 205.3C134.29 205.86 149 205.38 163.61 204.56C174.25 203.97 184.69 202.79 195.12 201.4C198.12 201.01 201.1 200.52 204.08 200.11C207.11 199.76 210.11 199.16 213.04 198.32C214.1 198.05 215.08 197.56 215.93 196.87C216.73 196.12 216.98 195.14 215.55 194.86C212.54 194.25 209.45 194.94 206.52 195.48C203.23 196.09 199.96 196.79 196.73 197.58C195.26 197.98 193.76 198.28 192.25 198.5C190.73 198.71 189.19 198.61 187.71 198.21C187.23 198.05 186.7 197.78 186.67 197.35C186.64 196.93 187.05 196.66 187.46 196.49C193.5 194.08 199.92 192.55 206.38 191.14C210.77 190.18 215.23 189.59 219.65 188.84C223.68 188.16 227.92 188 231.41 185.43C232.1 184.98 232.64 184.33 232.96 183.56C233.11 183.16 233.14 182.73 233.06 182.31Z" fill="#407BFF" fill-opacity="1.000000" fill-rule="nonzero"/>
		</g>
		<g opacity="0.300000">
			<path id="Vector" d="M59.78 159.49C58.13 154.8 52.29 146.48 51.06 151.39C50.4 154.15 59.78 159.49 59.78 159.49Z" fill="#407BFF" fill-opacity="1.000000" fill-rule="nonzero"/>
		</g>
		<g opacity="0.300000">
			<path id="Vector" d="M206.6 168.73C209.72 165.87 213.62 164.16 214.12 166.68C214.59 169.07 206.6 168.73 206.6 168.73Z" fill="#407BFF" fill-opacity="1.000000" fill-rule="nonzero"/>
		</g>
		<g opacity="0.300000">
			<path id="Vector" d="M78.4 145.92C76.26 144.79 74.59 142.98 75.84 142.23C77.1 141.47 78.4 145.92 78.4 145.92Z" fill="#407BFF" fill-opacity="1.000000" fill-rule="nonzero"/>
		</g>
	</g>
</svg>
