<svg aria-hidden="true" style="position: absolute; width: 0; height: 0; overflow: hidden;" version="1.1" xmlns="http://www.w3.org/2000/svg" xmlns:xlink="http://www.w3.org/1999/xlink">
<defs>
<symbol id="bottle-welcome-page" viewBox="0 0 107 32">
<path fill="#9ebbff" style="fill: var(--color1, #9ebbff)" d="M0 10.667l3.704 0.444c3.704 0.444 11.111 1.333 18.519 4.444s14.815 8.444 22.222 11.111c7.407 2.667 14.815 2.667 22.222 3.111s14.815 1.333 18.519 1.778l3.704 0.444h-3.704c-3.704 0-11.111 0-18.519 0s-14.815 0-22.222 0c-7.407 0-14.815 0-22.222 0s-14.815 0-18.519 0h-3.704v-21.333z"></path>
<path fill="#ecf2ff" style="fill: var(--color2, #ecf2ff)" opacity="0.8" d="M106.667 0h-2.963c-2.963 0-8.889 0-14.815 1.63-5.926 1.556-11.852 4.741-17.778 4.741s-11.852-3.185-17.778-0.519c-5.926 2.667-11.852 11.185-17.778 15.481s-11.852 4.296-17.778 3.185c-5.926-1.037-11.852-3.185-14.815-4.222l-2.963-1.111v12.815h2.963c2.963 0 8.889 0 14.815 0s11.852 0 17.778 0c5.926 0 11.852 0 17.778 0s11.852 0 17.778 0c5.926 0 11.852 0 17.778 0s11.852 0 14.815 0h2.963v-32z"></path>
<path fill="#f5f5f5" style="fill: var(--color3, #f5f5f5)" d="M89.111 29.778c5.933 0 10.743-0.28 10.743-0.626s-4.81-0.626-10.743-0.626-10.743 0.28-10.743 0.626c0 0.346 4.81 0.626 10.743 0.626z"></path>
<path fill="#407bff" style="fill: var(--color4, #407bff)" opacity="0.1" d="M82.867 24.785c0.007-0.050 0.032-0.095 0.071-0.127s0.089-0.047 0.139-0.043c0.475-0.007 0.919 0.327 1.33 0.686 0.092 0.079 0.191 0.161 0.293 0.078 0.032-0.026 0.055-0.061 0.067-0.101 0.018-0.064 0.018-0.132 0-0.197-0.016-0.053-0.041-0.103-0.075-0.146-0.179-0.235-0.397-0.348-0.573-0.59-0.099-0.139-0.181-0.289-0.244-0.448-0.056-0.139-0.167-0.364-0.122-0.553 0.050-0.225 0.219-0.206 0.321-0.175 0.324 0.097 0.627 0.327 0.901 0.614 0.293 0.305 0.559 0.673 0.823 1.038 0.1 0.139 0.205 0.281 0.333 0.332s0.289-0.031 0.342-0.231c0.054-0.2-0.009-0.43-0.022-0.629-0.018-0.237-0.007-0.476 0.034-0.711 0.018-0.124 0.060-0.243 0.124-0.351 0.143-0.209 0.354-0.135 0.493 0.023 0.106 0.132 0.188 0.282 0.242 0.442 0.155 0.443 0.248 0.905 0.277 1.373 0.021 0.29 0.065 0.592 0.184 0.817 0.193 0.364 0.554 0.335 0.834 0.144 0.487-0.332 0.863-1.081 0.963-1.919 0.033-0.273 0.041-0.568 0.141-0.797 0.087-0.198 0.31-0.332 0.419-0.118 0.044 0.107 0.056 0.224 0.036 0.337-0.019 0.112-0.047 0.223-0.082 0.332-0.056 0.188-0.111 0.54 0.039 0.65 0.022 0.014 0.047 0.022 0.073 0.025s0.053 0 0.077-0.008c0.49-0.102 0.945-0.561 1.244-1.203 0.108-0.241 0.191-0.494 0.247-0.752 0.036-0.158 0.050-0.328 0.090-0.485 0.026-0.124 0.078-0.24 0.152-0.342 0.19-0.228 0.63-0.121 0.656 0.367 0.015 0.282-0.061 0.559-0.088 0.835-0.017 0.172 0.090 0.171 0.17 0.166 0.382-0.039 0.72-0.423 1.020-0.823 0.356-0.476 0.751-1.094 1.237-1.112 0.111-0.004 0.296 0.011 0.362 0.181 0.030 0.105 0.030 0.216 0 0.321-0.099 0.408-0.388 0.618-0.61 0.82-0.625 0.585-1.175 1.244-1.636 1.964-0.070 0.111-0.143 0.293-0.076 0.401 0.013 0.021 0.031 0.037 0.053 0.047s0.047 0.013 0.071 0.009c0.229-0.018 0.443-0.199 0.652-0.349s0.446-0.282 0.665-0.169c0.067 0.040 0.126 0.094 0.173 0.157s0.081 0.135 0.099 0.211c0.039 0.134 0.045 0.275 0.019 0.411-0.081 0.375-0.428 0.544-0.619 0.729-0.263 0.253-0.504 0.529-0.72 0.823-0.199 0.272-0.388 0.571-0.587 0.838-0.72 0.958-1.718 1.1-2.604 1.211-0.965 0.121-1.932 0.055-2.891-0.071-0.698-0.093-1.385-0.291-2.066-0.526-0.234-0.085-0.466-0.177-0.696-0.286-0.247-0.117-0.61-0.19-0.704-0.651-0.019-0.099 0.004-0.18 0.070-0.217 0.204-0.116 0.496 0.039 0.688 0.141 0.265 0.141 0.517 0.343 0.79 0.452 0.044 0.021 0.091 0.034 0.14 0.036s0.098-0.005 0.144-0.022c0.045-0.019 0.081-0.053 0.104-0.096 0.029-0.056 0.036-0.121 0.020-0.182-0.011-0.033-0.030-0.063-0.056-0.087-0.49-0.502-1.076-0.9-1.724-1.173-0.208-0.089-0.42-0.162-0.62-0.288-0.162-0.1-0.301-0.231-0.41-0.387-0.093-0.149-0.243-0.411-0.196-0.648z"></path>
<path fill="#407bff" style="fill: var(--color4, #407bff)" opacity="0.1" d="M93.464 20.722c-0.037 0.038-0.085 0.063-0.139 0.072s-0.106-0.001-0.153-0.026c-0.047-0.025-0.084-0.065-0.107-0.113s-0.028-0.102-0.017-0.154c0.191-0.926 0.607-1.599 1.101-1.25 0.369 0.26-0.21 0.978-0.684 1.471z"></path>
<path fill="#407bff" style="fill: var(--color4, #407bff)" opacity="0.3" d="M92.124 21.154c0.151-0.083 0.279-0.202 0.373-0.347s0.15-0.31 0.164-0.482l0.374-4.551c0.020-0.234-0.010-0.469-0.087-0.691s-0.2-0.425-0.361-0.597l-1.154-1.233c-0.064-0.068-0.112-0.149-0.143-0.237s-0.042-0.181-0.035-0.274l0.056-0.667-2.987-0.245-0.055 0.666c-0.008 0.093-0.035 0.183-0.079 0.265s-0.106 0.153-0.18 0.21l-1.341 1.030c-0.187 0.143-0.341 0.324-0.453 0.53s-0.18 0.434-0.199 0.668l-0.376 4.551c-0.014 0.171 0.015 0.344 0.084 0.501s0.176 0.296 0.31 0.403c-0.151 0.083-0.279 0.202-0.373 0.347s-0.15 0.31-0.164 0.482l-0.478 5.803c-0.023 0.276 0.065 0.549 0.245 0.76s0.436 0.343 0.712 0.365l4.931 0.404c0.137 0.011 0.275-0.004 0.406-0.046s0.252-0.109 0.357-0.198c0.104-0.089 0.191-0.197 0.254-0.319s0.101-0.255 0.112-0.391l0.479-5.803c0.014-0.171-0.014-0.344-0.082-0.502s-0.175-0.297-0.31-0.404z"></path>
<path fill="#407bff" style="fill: var(--color4, #407bff)" opacity="0.3" d="M88.324 11.832l-0.042 0.514 2.987 0.245 0.042-0.514-2.987-0.245z"></path>
<path fill="#fff" style="fill: var(--color5, #fff)" opacity="0.3" d="M92.559 14.605l-1.154-1.234c0 0-0.744 0.032-0.167 0.942 0.493 0.77 1.351 0.65 1.321 0.292z"></path>
<path fill="#407bff" style="fill: var(--color4, #407bff)" opacity="0.2" d="M85.021 27.285c-0.023 0.276 0.065 0.549 0.245 0.761s0.436 0.342 0.712 0.365l4.931 0.404c0.137 0.011 0.275-0.005 0.406-0.046s0.252-0.109 0.357-0.198c0.104-0.089 0.191-0.197 0.253-0.319s0.101-0.255 0.113-0.392l-7.017-0.575z"></path>
<path fill="#407bff" style="fill: var(--color4, #407bff)" opacity="0.3" d="M92.344 14.712c0.129 0.138 0.227 0.301 0.29 0.479s0.086 0.367 0.070 0.555l-0.375 4.552c-0.010 0.117-0.048 0.23-0.112 0.328s-0.152 0.18-0.255 0.237l-0.436 0.241 0.39 0.309c0.093 0.073 0.165 0.167 0.213 0.275s0.066 0.225 0.056 0.342l-0.478 5.803c-0.016 0.188-0.105 0.362-0.249 0.485s-0.331 0.183-0.52 0.168l-4.931-0.404c-0.093-0.007-0.184-0.033-0.268-0.076s-0.159-0.101-0.219-0.172c-0.061-0.071-0.107-0.154-0.136-0.243s-0.040-0.183-0.033-0.276l0.478-5.803c0.010-0.117 0.048-0.23 0.112-0.329s0.152-0.18 0.255-0.237l0.436-0.241-0.387-0.309c-0.093-0.073-0.165-0.167-0.213-0.275s-0.067-0.225-0.057-0.342l0.376-4.551c0.016-0.188 0.070-0.37 0.161-0.536s0.214-0.311 0.364-0.426c0.443-0.286 1.607 0.426 2.97 0.537s2.214-0.233 2.499-0.090z"></path>
<path fill="#407bff" style="fill: var(--color4, #407bff)" opacity="0.2" d="M89.841 14.802c-1.362-0.111-2.527-0.823-2.97-0.538 0.776 0.426 1.662 0.689 2.948 0.795s2.524-0.348 2.524-0.348c-0.285-0.143-1.141 0.203-2.502 0.091z"></path>
<path fill="#407bff" style="fill: var(--color4, #407bff)" opacity="0.2" d="M85.641 19.751c-0.014 0.171 0.015 0.344 0.083 0.501s0.176 0.296 0.311 0.403l6.089 0.497c0.151-0.083 0.279-0.203 0.373-0.347s0.15-0.31 0.164-0.482l-7.020-0.573z"></path>
<path fill="#407bff" style="fill: var(--color4, #407bff)" d="M91.373 11.262l-2.978-0.245c-0.124-0.010-0.234 0.082-0.244 0.207l-0.059 0.723c-0.010 0.124 0.082 0.234 0.207 0.244l2.978 0.245c0.125 0.010 0.234-0.082 0.244-0.207l0.059-0.723c0.010-0.124-0.082-0.234-0.207-0.244z"></path>
<path fill="#fff" style="fill: var(--color5, #fff)" opacity="0.2" d="M88.45 12.079c-0.004-0-0.007-0.001-0.010-0.003s-0.007-0.004-0.009-0.007c-0.002-0.003-0.004-0.006-0.005-0.009s-0.001-0.007-0.001-0.011l0.070-0.874c0.001-0.007 0.004-0.014 0.010-0.019s0.013-0.007 0.020-0.007 0.014 0.004 0.019 0.010c0.004 0.006 0.007 0.013 0.007 0.020l-0.073 0.874c0 0.007-0.003 0.014-0.008 0.018s-0.013 0.007-0.019 0.007z"></path>
<path fill="#fff" style="fill: var(--color5, #fff)" opacity="0.2" d="M88.99 12.123c-0.004-0-0.007-0.001-0.010-0.003s-0.006-0.004-0.008-0.007c-0.003-0.003-0.004-0.006-0.006-0.009s-0.001-0.007-0.001-0.011l0.072-0.874c0.001-0.007 0.004-0.014 0.010-0.019s0.013-0.007 0.020-0.007c0.004 0 0.007 0.001 0.010 0.003s0.007 0.004 0.009 0.007c0.002 0.003 0.004 0.006 0.005 0.009s0.001 0.007 0.001 0.011l-0.073 0.874c-0.001 0.007-0.004 0.013-0.010 0.018s-0.011 0.007-0.019 0.007z"></path>
<path fill="#fff" style="fill: var(--color5, #fff)" opacity="0.2" d="M89.53 12.17c-0.004-0-0.007-0.001-0.010-0.003s-0.007-0.004-0.009-0.007c-0.002-0.003-0.004-0.006-0.005-0.009s-0.001-0.007-0.001-0.011l0.073-0.874c0.001-0.007 0.004-0.014 0.010-0.019s0.013-0.007 0.020-0.007c0.004 0 0.007 0.001 0.010 0.003s0.006 0.004 0.009 0.007c0.002 0.003 0.004 0.006 0.005 0.009s0.001 0.007 0.001 0.011l-0.072 0.874c0 0.004-0.001 0.007-0.003 0.010s-0.004 0.006-0.007 0.009c-0.003 0.002-0.006 0.004-0.010 0.005s-0.007 0.002-0.010 0.001z"></path>
<path fill="#fff" style="fill: var(--color5, #fff)" opacity="0.2" d="M90.070 12.212c-0.004-0-0.007-0.001-0.010-0.003s-0.006-0.004-0.009-0.007c-0.002-0.003-0.004-0.006-0.005-0.009s-0.001-0.007-0.001-0.011l0.072-0.874c0.001-0.007 0.004-0.014 0.010-0.019s0.013-0.007 0.020-0.007c0.004 0 0.007 0.001 0.010 0.003s0.006 0.004 0.009 0.007c0.002 0.003 0.004 0.006 0.005 0.009s0.001 0.007 0.001 0.011l-0.072 0.874c-0.001 0.004-0.001 0.007-0.003 0.010s-0.004 0.006-0.007 0.009c-0.003 0.002-0.006 0.004-0.010 0.005s-0.007 0.002-0.010 0.001z"></path>
<path fill="#fff" style="fill: var(--color5, #fff)" opacity="0.2" d="M90.607 12.256c-0.004-0-0.007-0.001-0.011-0.003s-0.006-0.004-0.008-0.007c-0.002-0.003-0.004-0.006-0.005-0.009s-0.001-0.007-0.001-0.011l0.072-0.874c0.001-0.007 0.005-0.014 0.010-0.018s0.013-0.007 0.020-0.007c0.004 0 0.007 0.001 0.010 0.003s0.006 0.004 0.008 0.007c0.003 0.003 0.004 0.006 0.006 0.009s0.001 0.007 0.001 0.011l-0.072 0.874c0 0.004-0.001 0.007-0.003 0.011s-0.004 0.006-0.007 0.009-0.006 0.004-0.010 0.005c-0.003 0.001-0.007 0.001-0.010 0.001z"></path>
<path fill="#fff" style="fill: var(--color5, #fff)" opacity="0.2" d="M91.15 12.3c-0.004-0-0.007-0.001-0.010-0.003s-0.007-0.004-0.009-0.007c-0.002-0.003-0.004-0.006-0.005-0.009s-0.001-0.007-0.001-0.011l0.070-0.874c0.001-0.007 0.004-0.014 0.010-0.019s0.013-0.007 0.020-0.007c0.007 0.001 0.014 0.004 0.019 0.010s0.007 0.013 0.007 0.020l-0.072 0.874c-0.001 0.007-0.004 0.013-0.009 0.018s-0.012 0.007-0.019 0.007z"></path>
<path fill="#407bff" style="fill: var(--color4, #407bff)" opacity="0.2" d="M86.562 18.231c-0.084-0.465-0.763-0.432-0.801 0.039l-0.122 1.482c-0.014 0.171 0.015 0.344 0.083 0.501s0.176 0.296 0.311 0.403c-0.151 0.083-0.279 0.202-0.373 0.347s-0.15 0.31-0.164 0.482l-0.479 5.803c-0.022 0.276 0.066 0.549 0.245 0.76s0.436 0.343 0.713 0.365l1.274 0.104c0.141 0.011 0.282-0.009 0.413-0.061s0.249-0.133 0.344-0.237c0.094-0.104 0.164-0.228 0.203-0.363s0.046-0.277 0.021-0.415l-1.667-9.21z"></path>
<path fill="#407bff" style="fill: var(--color4, #407bff)" opacity="0.3" d="M91.466 25.829c-0.009 0.107-0.049 0.208-0.116 0.292s-0.157 0.146-0.259 0.179c-0.102 0.033-0.212 0.034-0.315 0.005s-0.195-0.089-0.264-0.17c-0.070-0.082-0.113-0.182-0.125-0.288s0.007-0.214 0.056-0.309c0.049-0.095 0.125-0.174 0.219-0.225s0.201-0.075 0.308-0.066c0.143 0.012 0.276 0.080 0.369 0.189s0.139 0.251 0.127 0.394z"></path>
<path fill="#407bff" style="fill: var(--color4, #407bff)" opacity="0.3" d="M89.743 23.736c-0.006 0.075-0.034 0.147-0.081 0.207s-0.111 0.103-0.183 0.126c-0.073 0.023-0.15 0.024-0.223 0.004s-0.138-0.063-0.187-0.12c-0.049-0.058-0.080-0.129-0.089-0.204s0.005-0.151 0.040-0.218 0.089-0.123 0.155-0.16c0.067-0.037 0.142-0.053 0.218-0.047 0.101 0.008 0.195 0.057 0.261 0.134s0.098 0.177 0.090 0.278z"></path>
<path fill="#407bff" style="fill: var(--color4, #407bff)" opacity="0.3" d="M88.14 19.078c-0.076 0.003-0.15-0.015-0.216-0.054s-0.116-0.096-0.149-0.165c-0.033-0.068-0.044-0.145-0.033-0.22s0.045-0.145 0.096-0.2c0.051-0.056 0.118-0.096 0.191-0.114s0.151-0.014 0.222 0.011c0.071 0.025 0.133 0.072 0.179 0.132s0.071 0.133 0.075 0.209c0.003 0.050-0.004 0.1-0.021 0.148s-0.044 0.091-0.078 0.128c-0.033 0.037-0.075 0.067-0.12 0.089s-0.096 0.034-0.146 0.036z"></path>
<path fill="#407bff" style="fill: var(--color4, #407bff)" opacity="0.3" d="M89.186 16.791c-0.054 0.003-0.107-0.011-0.153-0.038s-0.083-0.068-0.106-0.117c-0.023-0.049-0.031-0.103-0.023-0.156s0.032-0.102 0.067-0.142c0.036-0.040 0.084-0.068 0.136-0.081s0.107-0.010 0.158 0.008 0.094 0.051 0.127 0.094c0.032 0.043 0.050 0.095 0.053 0.148 0.003 0.072-0.022 0.142-0.070 0.195s-0.116 0.085-0.187 0.088z"></path>
<path fill="#407bff" style="fill: var(--color4, #407bff)" opacity="0.3" d="M90.868 22.083c-0.003 0.031-0.015 0.061-0.034 0.085s-0.046 0.043-0.076 0.052c-0.030 0.010-0.062 0.010-0.092 0.001s-0.057-0.026-0.078-0.050c-0.020-0.024-0.033-0.053-0.036-0.084s0.002-0.062 0.016-0.090c0.015-0.028 0.037-0.051 0.064-0.066s0.059-0.022 0.090-0.019c0.041 0.003 0.081 0.023 0.108 0.055s0.040 0.073 0.037 0.115z"></path>
<path fill="#fff" style="fill: var(--color5, #fff)" opacity="0.7" d="M87.998 26.407h-0.027c-0.042-0.003-0.084-0.014-0.121-0.033s-0.072-0.045-0.1-0.077c-0.027-0.032-0.048-0.069-0.061-0.109s-0.018-0.082-0.014-0.124c0.005-0.062 0.028-0.121 0.067-0.17s0.090-0.086 0.149-0.106c0.059-0.020 0.122-0.023 0.183-0.008s0.115 0.048 0.157 0.093c0.042 0.046 0.070 0.103 0.081 0.164s0.002 0.124-0.022 0.181c-0.025 0.057-0.066 0.105-0.119 0.139s-0.113 0.052-0.175 0.052l0.002-0.003zM87.998 25.808c-0.063 0-0.124 0.022-0.173 0.062s-0.083 0.095-0.096 0.156c-0.013 0.061-0.006 0.126 0.022 0.182s0.075 0.101 0.132 0.128c0.057 0.026 0.121 0.033 0.183 0.017s0.116-0.051 0.153-0.101c0.039-0.050 0.059-0.111 0.057-0.174s-0.024-0.123-0.065-0.171c-0.024-0.028-0.053-0.051-0.085-0.068s-0.068-0.027-0.104-0.030l-0.024-0.001z"></path>
<path fill="#fff" style="fill: var(--color5, #fff)" opacity="0.7" d="M91.425 19.94h-0.020c-0.061-0.005-0.119-0.034-0.159-0.081s-0.059-0.108-0.055-0.169c0.005-0.061 0.035-0.118 0.082-0.158s0.108-0.059 0.17-0.054c0.061 0.005 0.119 0.034 0.159 0.081s0.060 0.108 0.055 0.169c-0.005 0.061-0.035 0.118-0.081 0.159-0.042 0.035-0.096 0.055-0.15 0.054zM91.234 19.692c-0.003 0.038 0.005 0.075 0.024 0.108s0.047 0.059 0.081 0.077c0.033 0.017 0.071 0.024 0.109 0.019s0.073-0.020 0.101-0.044c0.019-0.016 0.036-0.036 0.047-0.058s0.019-0.047 0.021-0.072c0.002-0.025-0.001-0.050-0.009-0.074s-0.020-0.046-0.036-0.065c-0.017-0.019-0.037-0.034-0.060-0.044s-0.047-0.017-0.073-0.018c-0.025-0.002-0.050 0.001-0.075 0.008s-0.046 0.020-0.065 0.036-0.035 0.036-0.047 0.058c-0.011 0.022-0.019 0.047-0.020 0.072l0.002-0.003z"></path>
<path fill="#fff" style="fill: var(--color5, #fff)" opacity="0.7" d="M87.845 15.040h-0.008c-0.029-0.003-0.056-0.017-0.074-0.038s-0.028-0.050-0.026-0.079c0.001-0.021 0.009-0.042 0.022-0.059s0.030-0.030 0.051-0.038c0.020-0.007 0.042-0.008 0.063-0.003s0.040 0.016 0.055 0.032 0.025 0.035 0.029 0.057c0.004 0.021 0.001 0.043-0.007 0.063s-0.023 0.037-0.041 0.049c-0.019 0.012-0.039 0.018-0.061 0.018l-0.003-0.001zM87.778 14.926c-0.001 0.013 0.002 0.026 0.008 0.038s0.016 0.021 0.028 0.027 0.025 0.008 0.039 0.007c0.013-0.002 0.025-0.007 0.036-0.015s0.018-0.020 0.021-0.033c0.003-0.013 0.003-0.026-0.001-0.039s-0.012-0.024-0.022-0.032c-0.010-0.008-0.023-0.013-0.036-0.014-0.009-0.001-0.018 0-0.026 0.003s-0.016 0.007-0.023 0.013-0.013 0.013-0.016 0.021c-0.004 0.008-0.007 0.016-0.007 0.025z"></path>
<path fill="#fff" style="fill: var(--color5, #fff)" opacity="0.7" d="M90.295 17.902h-0.023c-0.036-0.003-0.072-0.013-0.104-0.029s-0.061-0.040-0.085-0.067-0.041-0.060-0.053-0.095c-0.011-0.035-0.016-0.071-0.012-0.108 0.004-0.053 0.024-0.104 0.058-0.146s0.078-0.074 0.129-0.091c0.051-0.017 0.106-0.019 0.158-0.006s0.099 0.041 0.136 0.081c0.036 0.039 0.060 0.089 0.069 0.141s0.002 0.107-0.019 0.156-0.057 0.091-0.101 0.12c-0.045 0.029-0.098 0.045-0.151 0.045v-0.001zM90.295 17.388c-0.056-0-0.11 0.019-0.152 0.055-0.048 0.040-0.078 0.098-0.083 0.16-0.004 0.039 0.003 0.077 0.019 0.113s0.039 0.067 0.070 0.091c0.031 0.024 0.067 0.040 0.105 0.047s0.077 0.004 0.114-0.007c0.037-0.012 0.071-0.033 0.098-0.060s0.047-0.062 0.058-0.099c0.010-0.037 0.012-0.077 0.004-0.115s-0.025-0.073-0.050-0.103c-0.020-0.024-0.044-0.043-0.073-0.057s-0.058-0.023-0.089-0.025h-0.020z"></path>
<path fill="#fff" style="fill: var(--color5, #fff)" opacity="0.3" d="M92.568 20.319l0.358-4.34c0.002-0.028-0.001-0.056-0.010-0.082s-0.022-0.051-0.040-0.072c-0.019-0.021-0.040-0.039-0.065-0.051s-0.052-0.020-0.080-0.023c-0.027-0.002-0.056 0.001-0.082 0.009s-0.051 0.022-0.072 0.040c-0.021 0.018-0.039 0.040-0.052 0.065s-0.021 0.052-0.023 0.079l-0.358 4.34c-0.011 0.144-0.059 0.283-0.138 0.405s-0.187 0.222-0.313 0.291l-0.218 0.121 0.196 0.154c0.114 0.090 0.204 0.206 0.261 0.339s0.082 0.278 0.071 0.422l-0.479 5.803c-0.029 0.348-0.248 0.518-0.557 0.653-0.019 0.009-0.036 0.024-0.046 0.043s-0.013 0.041-0.010 0.062c0.003 0.021 0.014 0.040 0.030 0.055s0.036 0.023 0.057 0.025c0.233 0.019 0.463-0.055 0.641-0.206s0.289-0.365 0.307-0.597l0.479-5.803c0.012-0.144-0.013-0.289-0.070-0.422s-0.148-0.249-0.262-0.339l-0.196-0.155 0.218-0.121c0.127-0.070 0.235-0.17 0.313-0.291s0.127-0.261 0.139-0.405z"></path>
<path fill="#407bff" style="fill: var(--color4, #407bff)" opacity="0.3" d="M98.319 27.063c-0.060-0.271-0.807-0.111-0.961-0.086-0.3 0.054-0.594 0.139-0.878 0.253-0.312 0.122-0.674 0.302-0.997 0.116-0.187-0.107 0.461-0.319 0.52-0.34 0.276-0.097 0.541-0.218 0.795-0.364 0.102-0.061 0.301-0.206 0.216-0.354-0.071-0.122-0.325-0.111-0.48-0.092-0.468 0.057-0.927 0.172-1.368 0.342-0.427 0.17-0.847 0.361-1.256 0.573-0.158 0.089-0.33 0.151-0.509 0.183-0.195 0.028-0.434-0.014-0.511-0.122s0.022-0.234 0.045-0.342c0.032-0.13 0.019-0.266-0.039-0.387-0.038-0.081-0.101-0.147-0.18-0.189-0.211-0.111-0.53-0.070-0.742 0.018-0.138 0.058-0.263 0.141-0.37 0.244-0.217 0.201-0.369 0.462-0.437 0.749-0.017 0.090-0.052 0.176-0.102 0.252s-0.116 0.142-0.191 0.194c-0.297 0.2-0.841 0.188-1.258 0.088-0.726-0.172-1.28-0.574-1.413-1.027-0.065-0.216-0.097-0.442-0.388-0.527-0.188-0.055-0.583-0.017-0.499 0.221 0.030 0.065 0.070 0.125 0.119 0.179 0.077 0.101 0.159 0.292-0.070 0.353-0.074 0.016-0.15 0.019-0.226 0.011-0.736-0.049-1.413-0.294-1.852-0.639-0.143-0.112-0.264-0.249-0.358-0.405-0.052-0.086-0.071-0.178-0.128-0.263-0.054-0.081-0.131-0.145-0.221-0.184-0.282-0.121-0.946-0.058-0.993 0.207-0.025 0.144 0.064 0.299 0.11 0.436 0.008 0.017 0.010 0.037 0.006 0.055-0.013 0.035-0.066 0.045-0.111 0.048-0.593 0.039-1.169-0.191-1.667-0.431-0.527-0.254-1.108-0.585-1.841-0.589-0.152-0.007-0.304 0.010-0.45 0.051-0.037 0.010-0.071 0.028-0.101 0.052-0.018 0.019-0.030 0.042-0.034 0.068s-0.001 0.052 0.010 0.075c0.024 0.049 0.059 0.091 0.103 0.123 0.221 0.18 0.532 0.253 0.816 0.346 0.84 0.272 1.652 0.622 2.425 1.047 0.079 0.044 0.217 0.145 0.107 0.221s-0.333 0.027-0.464 0.006c-0.239-0.039-0.467-0.101-0.699-0.159-0.307-0.077-0.665-0.148-0.998-0.083-0.176 0.034-0.333 0.106-0.415 0.203-0.028 0.028-0.047 0.065-0.053 0.105s0 0.080 0.018 0.116c0.114 0.203 0.635 0.29 0.919 0.387 0.364 0.124 0.72 0.27 1.066 0.438 0.295 0.146 0.57 0.306 0.869 0.449 1.068 0.511 2.561 0.577 3.896 0.627 1.449 0.055 2.904 0.008 4.349-0.072 1.053-0.059 2.087-0.174 3.118-0.31 0.296-0.039 0.591-0.086 0.887-0.127 0.3-0.034 0.596-0.093 0.887-0.175 0.104-0.027 0.201-0.075 0.285-0.143 0.079-0.074 0.104-0.17-0.038-0.197-0.297-0.059-0.603 0.008-0.893 0.061-0.325 0.060-0.648 0.128-0.968 0.206-0.146 0.039-0.294 0.069-0.443 0.090-0.15 0.021-0.304 0.011-0.45-0.029-0.047-0.015-0.1-0.041-0.102-0.083s0.037-0.069 0.078-0.085c0.598-0.237 1.233-0.387 1.873-0.525 0.433-0.094 0.875-0.151 1.313-0.225 0.398-0.067 0.818-0.082 1.163-0.334 0.069-0.044 0.122-0.108 0.153-0.184 0.015-0.039 0.019-0.081 0.010-0.122z"></path>
<path fill="#407bff" style="fill: var(--color4, #407bff)" opacity="0.3" d="M81.174 24.825c-0.162-0.46-0.741-1.276-0.863-0.794-0.065 0.27 0.863 0.794 0.863 0.794z"></path>
<path fill="#407bff" style="fill: var(--color4, #407bff)" opacity="0.3" d="M95.701 25.732c0.309-0.281 0.695-0.449 0.744-0.201 0.047 0.234-0.744 0.201-0.744 0.201z"></path>
<path fill="#407bff" style="fill: var(--color4, #407bff)" opacity="0.3" d="M83.016 23.495c-0.212-0.111-0.377-0.288-0.253-0.362s0.253 0.362 0.253 0.362z"></path>
</symbol>

<symbol id="icon-bobble" viewBox="0 0 77 32">
<path fill="#ecf2ff" style="fill: var(--color2, #ecf2ff)" d="M73.729 0.833c-0.012 0.152-0.069 0.296-0.164 0.416s-0.222 0.208-0.367 0.254-0.3 0.049-0.447 0.007c-0.146-0.042-0.277-0.126-0.376-0.242s-0.16-0.259-0.178-0.41c-0.017-0.151 0.010-0.304 0.080-0.44s0.178-0.247 0.311-0.321 0.285-0.107 0.437-0.094c0.203 0.017 0.392 0.114 0.524 0.269s0.197 0.357 0.18 0.561z"></path>
<path fill="#ecf2ff" style="fill: var(--color2, #ecf2ff)" d="M33.097 1.878c-0.012 0.152-0.070 0.296-0.164 0.416s-0.223 0.208-0.367 0.254-0.3 0.049-0.447 0.007c-0.146-0.042-0.277-0.126-0.376-0.242s-0.16-0.259-0.178-0.41c-0.017-0.151 0.010-0.304 0.080-0.44s0.178-0.247 0.311-0.321c0.133-0.074 0.285-0.107 0.437-0.094 0.203 0.017 0.392 0.114 0.524 0.269s0.197 0.357 0.18 0.561z"></path>
<path fill="#ecf2ff" style="fill: var(--color2, #ecf2ff)" d="M3.627 7.078c-0.008 0.098-0.045 0.19-0.106 0.267s-0.143 0.133-0.236 0.163c-0.093 0.030-0.193 0.032-0.287 0.005s-0.178-0.081-0.241-0.156c-0.063-0.075-0.103-0.166-0.114-0.264s0.007-0.196 0.051-0.283c0.045-0.087 0.114-0.159 0.2-0.206s0.183-0.069 0.281-0.061c0.131 0.011 0.252 0.073 0.337 0.173s0.127 0.23 0.116 0.361z"></path>
<path fill="#c6d7ff" style="fill: var(--color6, #c6d7ff)" d="M5.661 18.372c-0.012 0.152-0.070 0.296-0.164 0.416s-0.223 0.208-0.367 0.254c-0.145 0.047-0.3 0.049-0.447 0.007s-0.277-0.126-0.376-0.242-0.16-0.259-0.178-0.41c-0.017-0.151 0.010-0.304 0.080-0.44s0.178-0.247 0.311-0.321 0.285-0.107 0.437-0.094c0.203 0.017 0.392 0.114 0.524 0.269s0.197 0.357 0.18 0.561z"></path>
<path fill="#c6d7ff" style="fill: var(--color6, #c6d7ff)" d="M40.685 28.709c-0.012 0.152-0.070 0.296-0.164 0.416s-0.223 0.208-0.367 0.254c-0.145 0.047-0.3 0.049-0.447 0.007s-0.277-0.126-0.376-0.242-0.16-0.259-0.178-0.41c-0.017-0.151 0.010-0.304 0.080-0.44s0.178-0.247 0.311-0.321 0.285-0.107 0.437-0.094c0.203 0.017 0.392 0.114 0.524 0.269s0.197 0.357 0.18 0.561z"></path>
<path fill="#c6d7ff" style="fill: var(--color6, #c6d7ff)" d="M75.269 27.994c-0.012 0.152-0.069 0.296-0.164 0.416s-0.222 0.208-0.367 0.254c-0.145 0.047-0.3 0.049-0.447 0.007s-0.277-0.126-0.376-0.242c-0.098-0.116-0.16-0.259-0.178-0.41s0.010-0.304 0.080-0.44c0.069-0.135 0.178-0.247 0.311-0.321s0.285-0.107 0.437-0.094c0.203 0.017 0.392 0.114 0.524 0.269s0.197 0.357 0.18 0.561z"></path>
<path fill="#9ebbff" style="fill: var(--color1, #9ebbff)" opacity="0.7" d="M39.269 6.644h-0.087c-0.138-0.010-0.273-0.046-0.397-0.108s-0.234-0.148-0.325-0.253c-0.089-0.104-0.156-0.226-0.198-0.356s-0.057-0.268-0.045-0.405c0.017-0.202 0.092-0.395 0.217-0.555s0.293-0.28 0.485-0.346c0.192-0.066 0.399-0.075 0.595-0.025s0.375 0.156 0.512 0.305c0.138 0.149 0.229 0.335 0.262 0.535s0.008 0.406-0.073 0.591c-0.081 0.186-0.215 0.344-0.385 0.455s-0.368 0.171-0.571 0.171l0.009-0.009zM39.269 4.688c-0.205 0.001-0.404 0.072-0.563 0.201s-0.27 0.309-0.314 0.509c-0.044 0.2-0.018 0.41 0.074 0.594s0.243 0.331 0.429 0.417c0.186 0.086 0.396 0.106 0.595 0.057s0.376-0.165 0.5-0.328c0.125-0.163 0.19-0.364 0.185-0.569s-0.080-0.402-0.212-0.559c-0.077-0.091-0.171-0.166-0.278-0.221s-0.222-0.087-0.341-0.097l-0.076-0.004z"></path>
<path fill="#9ebbff" style="fill: var(--color1, #9ebbff)" opacity="0.7" d="M11.555 9.175h-0.068c-0.109-0.007-0.216-0.037-0.313-0.085s-0.185-0.117-0.256-0.199c-0.070-0.082-0.123-0.178-0.156-0.281s-0.045-0.212-0.036-0.32c0.013-0.16 0.073-0.312 0.171-0.438s0.231-0.221 0.383-0.273c0.151-0.052 0.315-0.059 0.47-0.020s0.296 0.123 0.404 0.241c0.109 0.118 0.18 0.265 0.207 0.423s0.007 0.32-0.058 0.467c-0.064 0.147-0.17 0.272-0.304 0.359s-0.29 0.135-0.451 0.135l0.007-0.007zM11.555 7.631c-0.162 0.001-0.319 0.057-0.445 0.159s-0.213 0.244-0.248 0.402c-0.034 0.158-0.014 0.324 0.058 0.469s0.192 0.261 0.339 0.329c0.147 0.068 0.313 0.084 0.47 0.045s0.296-0.13 0.395-0.259 0.15-0.287 0.146-0.449c-0.004-0.162-0.063-0.318-0.167-0.442-0.061-0.072-0.135-0.131-0.219-0.174s-0.175-0.069-0.269-0.076l-0.060-0.003z"></path>
<path fill="#c6d7ff" style="fill: var(--color6, #c6d7ff)" opacity="0.7" d="M1.056 31.991h-0.087c-0.138-0.009-0.273-0.046-0.397-0.108s-0.234-0.148-0.325-0.253c-0.089-0.104-0.156-0.226-0.198-0.356s-0.057-0.268-0.045-0.405c0.017-0.202 0.092-0.395 0.217-0.555s0.293-0.28 0.485-0.346c0.192-0.066 0.399-0.075 0.595-0.025s0.375 0.156 0.512 0.305c0.137 0.149 0.229 0.335 0.262 0.535s0.008 0.406-0.073 0.591c-0.081 0.186-0.215 0.344-0.384 0.455s-0.368 0.171-0.571 0.171l0.009-0.009zM1.056 30.035c-0.205 0.001-0.404 0.072-0.563 0.201s-0.27 0.309-0.314 0.509-0.018 0.41 0.074 0.594c0.091 0.184 0.243 0.331 0.429 0.417s0.396 0.106 0.595 0.057c0.199-0.049 0.376-0.165 0.5-0.328s0.19-0.364 0.185-0.569-0.080-0.402-0.212-0.559c-0.077-0.091-0.171-0.166-0.278-0.221s-0.222-0.087-0.341-0.097l-0.076-0.004z"></path>
<path fill="#c6d7ff" style="fill: var(--color6, #c6d7ff)" opacity="0.7" d="M36.853 19.397h-0.114c-0.182-0.012-0.359-0.061-0.522-0.142s-0.308-0.195-0.427-0.332c-0.117-0.137-0.206-0.297-0.261-0.469s-0.075-0.353-0.060-0.533c0.022-0.266 0.121-0.52 0.285-0.73s0.386-0.369 0.638-0.456c0.252-0.087 0.525-0.098 0.783-0.033s0.493 0.205 0.674 0.401 0.301 0.441 0.345 0.704c0.044 0.263 0.011 0.534-0.096 0.778s-0.283 0.453-0.506 0.599c-0.223 0.146-0.484 0.224-0.751 0.225l0.012-0.012zM36.853 16.824c-0.27 0.001-0.531 0.095-0.741 0.265s-0.355 0.406-0.413 0.67-0.023 0.539 0.097 0.781c0.12 0.242 0.319 0.435 0.564 0.549s0.521 0.14 0.783 0.075c0.262-0.065 0.494-0.217 0.658-0.432s0.25-0.479 0.243-0.749-0.105-0.53-0.279-0.736c-0.101-0.12-0.225-0.219-0.365-0.291s-0.292-0.115-0.449-0.127l-0.1-0.005z"></path>
<path fill="#9ebbff" style="fill: var(--color1, #9ebbff)" opacity="0.7" d="M75.999 19.179h-0.1c-0.16-0.011-0.316-0.054-0.46-0.125s-0.271-0.171-0.376-0.293c-0.103-0.121-0.181-0.261-0.229-0.413s-0.067-0.311-0.053-0.469c0.020-0.234 0.107-0.457 0.251-0.643s0.339-0.325 0.561-0.401c0.222-0.076 0.461-0.086 0.689-0.029s0.434 0.18 0.593 0.353c0.159 0.173 0.264 0.388 0.303 0.62s0.009 0.47-0.085 0.685-0.249 0.398-0.445 0.527c-0.196 0.129-0.426 0.198-0.661 0.198l0.010-0.010zM75.999 16.914c-0.238 0.001-0.467 0.083-0.652 0.233s-0.313 0.358-0.363 0.59c-0.050 0.232-0.020 0.475 0.086 0.687s0.281 0.383 0.496 0.483c0.216 0.1 0.459 0.123 0.689 0.066s0.435-0.191 0.579-0.38c0.145-0.189 0.22-0.421 0.214-0.659s-0.092-0.466-0.245-0.648c-0.089-0.106-0.198-0.193-0.322-0.256s-0.257-0.101-0.395-0.112l-0.088-0.004z"></path>
</symbol>

<symbol id="icon-calendar" viewBox="0 0 32 32">
<path fill="none" stroke="#407bff" style="stroke: var(--color1, #407bff)" stroke-linejoin="round" stroke-linecap="round" stroke-miterlimit="4" stroke-width="1.6" d="M9 4v3M23 4v3M4 25v-15c0-0.796 0.316-1.559 0.879-2.121s1.326-0.879 2.121-0.879h18c0.796 0 1.559 0.316 2.121 0.879s0.879 1.326 0.879 2.121v15M4 25c0 0.796 0.316 1.559 0.879 2.121s1.326 0.879 2.121 0.879h18c0.796 0 1.559-0.316 2.121-0.879s0.879-1.326 0.879-2.121M4 25v-10c0-0.796 0.316-1.559 0.879-2.121s1.326-0.879 2.121-0.879h18c0.796 0 1.559 0.316 2.121 0.879s0.879 1.326 0.879 2.121v10M16 17h0.011v0.011h-0.011v-0.011zM16 20h0.011v0.011h-0.011v-0.011zM16 23h0.011v0.011h-0.011v-0.011zM13 20h0.011v0.011h-0.011v-0.011zM13 23h0.011v0.011h-0.011v-0.011zM10 20h0.011v0.011h-0.011v-0.011zM10 23h0.011v0.011h-0.011v-0.011zM19 17h0.011v0.011h-0.011v-0.011zM19 20h0.011v0.011h-0.011v-0.011zM19 23h0.011v0.011h-0.011v-0.011zM22 17h0.011v0.011h-0.011v-0.011zM22 20h0.011v0.011h-0.011v-0.011z"></path>
</symbol>

<symbol id="icon-statisctic" viewBox="0 0 32 32">
<path fill="none" stroke="#407bff" style="stroke: var(--color1, #407bff)" stroke-linejoin="round" stroke-linecap="round" stroke-miterlimit="4" stroke-width="1.4545" d="M6 3.636v13.636c0 0.723 0.287 1.417 0.799 1.928s1.205 0.799 1.928 0.799h2.727M6 3.636h-1.818M6 3.636h20M11.455 20h9.091M11.455 20l-1.212 3.636M26 3.636h1.818M26 3.636v13.636c0 0.723-0.287 1.417-0.799 1.928s-1.205 0.799-1.928 0.799h-2.727M20.545 20l1.212 3.636M10.242 23.636h11.515M10.242 23.636l-0.606 1.818M21.758 23.636l0.606 1.818M12.364 13.636v1.818M16 10.909v4.545M19.636 8.182v7.273"></path>
</symbol>

<symbol id="icon-wrench" viewBox="0 0 32 32">
<path fill="none" stroke="#407bff" style="stroke: var(--color1, #407bff)" stroke-linejoin="round" stroke-linecap="round" stroke-miterlimit="4" stroke-width="1.6" d="M15.227 20.227l7.773 7.773c0.667 0.645 1.56 1.003 2.488 0.995s1.816-0.379 2.472-1.036c0.656-0.656 1.028-1.544 1.036-2.472s-0.35-1.821-0.995-2.488l-7.836-7.836M15.227 20.227l3.328-4.040c0.423-0.512 0.987-0.835 1.611-1.021 0.733-0.219 1.551-0.251 2.324-0.187 1.042 0.090 2.090-0.095 3.039-0.536s1.766-1.121 2.371-1.975 0.975-1.851 1.076-2.893c0.1-1.041-0.074-2.091-0.504-3.045l-4.368 4.369c-0.731-0.169-1.399-0.54-1.93-1.070s-0.901-1.199-1.070-1.93l4.368-4.368c-0.954-0.431-2.003-0.605-3.044-0.504s-2.039 0.471-2.893 1.076-1.535 1.422-1.975 2.371c-0.44 0.949-0.625 1.997-0.536 3.039 0.121 1.435-0.095 3.019-1.205 3.933l-0.136 0.113M15.227 20.227l-6.207 7.537c-0.301 0.367-0.675 0.666-1.099 0.88s-0.887 0.336-1.361 0.359c-0.474 0.023-0.947-0.053-1.39-0.224s-0.844-0.432-1.18-0.767-0.597-0.737-0.767-1.18c-0.171-0.442-0.247-0.916-0.223-1.39s0.146-0.937 0.359-1.361c0.213-0.424 0.513-0.798 0.88-1.099l9.116-7.507-5.476-5.476h-1.879l-3-5 2-2 5 3v1.879l5.68 5.68-2.327 1.916M24.5 24.5l-3.5-3.5M6.489 25.5h0.011v0.011h-0.011v-0.011z"></path>
</symbol>

<symbol id="icon-point" viewBox="0 0 32 32">
<path fill="#407bff" style="fill: var(--color1, #407bff)" d="M32 16c0 8.837-7.163 16-16 16s-16-7.163-16-16c0-8.837 7.163-16 16-16s16 7.163 16 16z"></path>
</symbol>

<symbol id="input_icon" viewBox="0 0 32 32">
<path fill="none" stroke="#407bff" style="stroke: var(--color1, #407bff)" stroke-linejoin="round" stroke-linecap="round" stroke-miterlimit="4" stroke-width="2" d="M5.307 10.964c-1.247 1.472-2.176 3.187-2.728 5.036 1.723 5.784 7.080 10 13.421 10 1.324 0 2.604-0.184 3.817-0.527M8.304 8.304c2.284-1.507 4.96-2.308 7.696-2.304 6.341 0 11.697 4.216 13.42 9.997-0.944 3.159-2.971 5.885-5.724 7.699M8.304 8.304l-4.304-4.304M8.304 8.304l4.867 4.867M23.696 23.696l4.304 4.304M23.696 23.696l-4.867-4.867c0.371-0.371 0.666-0.812 0.867-1.298s0.305-1.006 0.305-1.531c0-0.525-0.103-1.046-0.305-1.531s-0.496-0.926-0.867-1.298c-0.371-0.371-0.812-0.666-1.298-0.867s-1.006-0.305-1.531-0.305c-0.525 0-1.046 0.103-1.531 0.305s-0.926 0.496-1.298 0.867M18.828 18.828l-5.655-5.655"></path>
</symbol>

</defs>
</svg>
