<svg width="736" height="548" fill="none" xmlns="http://www.w3.org/2000/svg"><defs><clipPath id="a"><rect rx="0" width="735" height="547" transform="translate(1 1)" fill="#fff" fill-opacity="0"/></clipPath></defs><rect rx="0" width="735" height="547" transform="translate(1 1)" fill="none"/><g clip-path="url(#a)"><path d="M202 415a5 5 0 0 1 6-4c12-1 24 8 35 18 2 2 5 4 8 2l2-3v-5l-2-4c-5-6-11-9-16-16l-6-11c-2-4-5-10-3-15 1-6 5-6 8-5 9 3 17 9 24 16l22 28c3 4 5 8 9 9 3 1 7-1 9-6 1-6 0-12-1-17l1-19 3-9c4-6 10-4 14 0l6 12c4 12 7 24 7 37 1 7 2 15 5 21 5 10 15 9 22 4 13-9 23-28 26-51 1-7 1-15 4-21 2-5 8-9 11-3l1 9-2 9c-2 5-3 14 1 17a5 5 0 0 0 4 0c13-2 25-15 33-32 3-6 5-13 6-20l3-13c0-3 2-6 4-9 5-6 16-3 17 10 1 8-1 15-2 22-1 5 2 5 4 5 10-1 19-11 27-22 10-13 20-29 33-30 3 0 8 1 10 5v9c-3 10-10 16-16 21-17 16-31 34-44 53-2 3-4 8-2 10l2 2h2c6-1 11-5 17-9 5-4 12-8 18-5a16 16 0 0 1 7 10v11c-2 10-11 14-16 19-7 7-14 14-19 22l-16 22c-19 26-46 30-69 33a300 300 0 0 1-150-24c-7-3-16-5-19-17-1-3 0-5 2-6 5-3 13 1 18 4l21 12a10 10 0 0 0 8 0l2-2 1-5-2-2c-13-14-28-24-45-32l-17-7c-4-3-8-6-11-11-2-4-6-11-5-17ZM484 307l-4 2a6 6 0 0 1-7-4v-4c5-25 16-42 29-33 10 7-6 26-18 39Z" fill="#407BFF" opacity=".1"/><path d="M448 319a28 28 0 0 0 14-23l10-121a45 45 0 0 0-12-34l-30-33a18 18 0 0 1-5-13l1-18-79-7-1 18a18 18 0 0 1-7 13l-36 27a45 45 0 0 0-17 32l-10 121a28 28 0 0 0 10 24 28 28 0 0 0-14 22l-13 155a28 28 0 0 0 26 30l131 10a28 28 0 0 0 30-25l12-154a28 28 0 0 0-10-24Z" fill="#407BFF" opacity=".3"/><path d="m346 84 1-14 79 7-1 14-79-7Z" fill="#407BFF" fill-rule="evenodd" opacity=".3"/><path d="m460 144-31-33s-20 1-4 25c13 21 35 18 35 8Z" fill="var(--prim-color-white)" opacity=".3"/><path d="M259 482a28 28 0 0 0 26 30l131 10a28 28 0 0 0 30-25l-187-15Z" fill="#407BFF" opacity=".2"/><path d="M454 147a36 36 0 0 1 9 28l-10 121a19 19 0 0 1-9 15l-12 6 11 8a19 19 0 0 1 7 17l-13 154a19 19 0 0 1-20 18l-131-11a19 19 0 0 1-18-21l13-154a19 19 0 0 1 10-15l11-6-10-9a19 19 0 0 1-7-16l10-121a36 36 0 0 1 14-26c11-7 42 11 78 14 37 3 59-6 67-2Z" fill="#407BFF" opacity=".3"/><path d="M387 149c-36-2-67-21-78-14 20 11 44 19 78 21 34 3 67-9 67-9-8-4-30 5-67 2ZM276 281a28 28 0 0 0 10 24l162 13a28 28 0 0 0 14-22l-186-15Z" fill="#407BFF" opacity=".2"/><path d="m349 49 79 6c3 1 6 3 6 7l-2 19c0 3-3 6-6 5l-80-6c-3 0-5-3-5-7l1-19c1-3 4-6 7-5Z" fill="#407BFF" fill-rule="evenodd"/><path d="M350 77v-1l2-23a1 1 0 0 1 0-1l1 1-2 23v1h-1ZM365 78h-1v-1l2-23 1-1v1l-1 24h-1ZM379 79h-1l2-24h2l-2 24h-1ZM393 81v-1l2-24h1v1l-2 23v1h-1ZM408 82h-1v-1l2-23v-1h1v1l-1 23h-1v1ZM422 83v-1h-1l2-23 1-1h1v1l-2 23v1h-1Z" fill="var(--prim-color-white)" opacity=".2"/><path d="M300 241c-2-13-20-12-21 1l-3 39a28 28 0 0 0 10 24 28 28 0 0 0-14 22l-13 155a28 28 0 0 0 26 30l34 2a24 24 0 0 0 26-28l-45-245Z" fill="#407BFF" opacity=".2"/><path d="M431 443a14 14 0 0 1-26 8 14 14 0 1 1 26-8ZM385 387a10 10 0 0 1-7 9 10 10 0 0 1-11-3 10 10 0 1 1 18-6ZM342 263a10 10 0 0 1-9-6c-1-1-2-3-1-5a10 10 0 0 1 13-8 10 10 0 0 1-3 19ZM370 202a7 7 0 0 1-7-4l-1-4a7 7 0 0 1 6-6 7 7 0 1 1 2 14ZM415 343a4 4 0 0 1-8 3 4 4 0 0 1 1-7h3a4 4 0 0 1 4 4Z" fill="#407BFF" opacity=".3"/><path d="M338 458a9 9 0 0 1-6-3 8 8 0 0 1 0-10 9 9 0 0 1 13-1 9 9 0 0 1-7 14Zm0-16a7 7 0 0 0-6 11 7 7 0 1 0 7-11h-1ZM429 286a6 6 0 0 1-6-6 6 6 0 0 1 7-6 6 6 0 0 1 6 7l-3 4-4 1Zm-5-6a5 5 0 0 0 3 5h3a5 5 0 0 0 3-8 5 5 0 0 0-3-2 5 5 0 0 0-5 3l-1 2ZM334 156a3 3 0 0 1-3-3l1-2 1-1h2l2 1a3 3 0 0 1 0 3l-1 1-2 1Zm-1-3a2 2 0 0 0 3 0 2 2 0 0 0-1-1 2 2 0 0 0-2 1ZM399 232a7 7 0 0 1-5-3 7 7 0 0 1-2-5 7 7 0 1 1 7 8Zm0-14-4 2a6 6 0 0 0 1 9 6 6 0 0 0 5 2 6 6 0 0 0 5-8l-2-3a6 6 0 0 0-4-2h-1Z" fill="var(--prim-color-white)" opacity=".7"/><path d="m460 296 9-115a6 6 0 0 0-3-6 6 6 0 0 0-6 1 6 6 0 0 0-2 4l-9 115a23 23 0 0 1-12 19l-6 3 5 4a23 23 0 0 1 9 20l-13 155c-1 9-6 14-15 17a3 3 0 0 0-1 3 3 3 0 0 0 2 2 23 23 0 0 0 25-21l13-155a23 23 0 0 0-9-20l-5-4 6-3a23 23 0 0 0 12-19Z" fill="var(--prim-color-white)" opacity=".3"/><path d="M613 476c-2-7-22-3-26-3l-23 7c-9 3-18 8-27 3-5-3 13-8 14-9l21-9c3-2 8-6 6-10-2-3-9-3-13-2-12 1-24 4-36 9-12 4-23 9-34 15l-13 5c-5 1-12 0-14-3s1-7 2-9l-1-11-5-5c-6-3-14-2-20 1-4 1-7 3-10 6-6 6-10 13-11 20a18 18 0 0 1-8 12c-8 5-23 5-34 2-19-4-34-15-37-27-2-6-3-12-10-14-5-1-16 0-14 6l3 5c2 2 5 7-1 9h-6c-20-1-38-7-50-17-3-3-7-6-9-10l-4-7c-1-3-3-4-5-5-8-4-26-2-27 5l3 12v1l-3 2c-15 1-31-6-44-12-14-7-29-15-49-16l-12 2-2 1-1 2v2l3 3c6 5 14 7 21 9 23 8 44 17 65 28 2 1 5 4 3 6-3 2-9 1-13 0l-18-4c-8-2-18-4-27-2l-11 5a5 5 0 0 0-1 6c3 6 17 8 25 10l28 12 23 12c28 14 68 15 104 17a1237 1237 0 0 0 198-10l23-4 24-4 8-4c2-2 2-5-1-6-8-1-16 1-24 2a470 470 0 0 0-38 8c-4 1-8 0-12-1l-2-2 2-2c16-7 33-11 50-14 11-3 23-4 34-6s22-2 31-9c2-1 4-3 4-5l1-3ZM157 416c-4-12-20-34-23-21-2 7 23 21 23 21ZM543 440c8-7 19-12 20-5 1 6-20 5-20 5ZM206 381c-6-3-10-8-7-10 4-2 7 10 7 10Z" fill="#407BFF" opacity=".3"/></g></svg>