<svg width="736.000000" height="548.000000" viewBox="0 0 736 548" fill="none" xmlns="http://www.w3.org/2000/svg" xmlns:xlink="http://www.w3.org/1999/xlink">
	<desc>
			Created with Pixso.
	</desc>
	<defs>
		<clipPath id="clip149_510">
			<rect id="Frame" rx="0.000000" width="735.000000" height="547.000000" transform="translate(0.500000 0.500000)" fill="white" fill-opacity="0"/>
		</clipPath>
	</defs>
	<rect id="Frame" rx="0.000000" width="735.000000" height="547.000000" transform="translate(0.500000 0.500000)" fill="var(--prim-color-white)" fill-opacity="0"/>
	<g clip-path="url(#clip149_510)">
		<g opacity="0.100000">
			<path id="Vector" d="M202.1 415.12C202.28 413.79 202.96 412.59 204 411.75C205.04 410.91 206.36 410.5 207.69 410.6C220.29 410.41 232.09 419.31 243.02 428.85C245.45 430.96 248.09 433.13 250.81 430.93C251.65 430.23 252.27 429.3 252.58 428.25C253.05 426.54 253.05 424.73 252.58 423.01C252.17 421.6 251.5 420.28 250.59 419.12C245.83 412.87 240.05 409.87 235.35 403.41C232.72 399.71 230.54 395.71 228.86 391.5C227.39 387.79 224.45 381.81 225.62 376.79C226.93 370.79 231.42 371.3 234.15 372.13C242.76 374.7 250.79 380.84 258.1 388.47C265.88 396.59 272.93 406.37 279.95 416.09C282.6 419.78 285.4 423.57 288.79 424.91C292.17 426.25 296.46 424.09 297.88 418.76C299.31 413.44 297.63 407.32 297.28 402.03C296.81 395.71 297.11 389.36 298.19 383.11C298.67 379.81 299.79 376.64 301.48 373.76C305.27 368.2 310.9 370.16 314.58 374.36C317.39 377.88 319.56 381.86 320.99 386.13C325.12 397.91 327.6 410.21 328.35 422.68C328.91 430.4 330.09 438.44 333.27 444.43C338.41 454.11 347.99 453.34 355.42 448.27C368.36 439.44 378.34 419.5 381.01 397.2C381.88 389.94 382.1 382.09 384.75 376C387.06 370.73 392.99 367.17 395.89 372.85C397.06 375.69 397.38 378.8 396.83 381.82C396.31 384.81 395.58 387.76 394.64 390.64C393.17 395.65 391.69 405.01 395.67 407.94C396.26 408.3 396.93 408.53 397.61 408.6C398.3 408.68 399 408.6 399.66 408.38C412.67 405.68 424.77 393.44 432.72 376.36C435.6 369.94 437.8 363.23 439.28 356.35C440.24 352.14 440.64 347.63 441.7 343.45C442.38 340.16 443.75 337.06 445.73 334.35C450.8 328.29 462.48 331.14 463.15 344.13C463.54 351.64 461.54 359 460.81 366.35C460.35 370.94 463.19 370.91 465.31 370.76C475.47 369.73 484.45 359.5 492.41 348.85C501.87 336.18 512.35 319.74 525.28 319.26C528.22 319.15 533.12 319.54 534.89 324.08C535.71 326.86 535.71 329.83 534.89 332.61C532.27 343.46 524.59 349.07 518.7 354.44C502.1 369.99 487.5 387.55 475.23 406.7C473.36 409.65 471.43 414.5 473.21 417.38C473.56 417.93 474.05 418.36 474.64 418.63C475.23 418.89 475.89 418.97 476.53 418.85C482.61 418.38 488.3 413.56 493.85 409.56C499.4 405.56 505.7 402.06 511.52 405.07C513.31 406.15 514.87 407.57 516.11 409.25C517.35 410.93 518.25 412.84 518.74 414.87C519.78 418.42 519.95 422.18 519.23 425.81C517.09 435.8 507.86 440.28 502.79 445.21C495.79 451.95 489.39 459.27 483.65 467.11C478.35 474.36 473.35 482.3 468.05 489.42C448.91 514.9 422.42 518.68 398.86 521.64C373.24 524.85 347.55 523.11 322.07 519.74C303.54 517.27 285.27 512.01 267.18 505.76C260.97 503.51 254.8 501.05 248.7 498.14C242.15 495.02 232.51 493.09 230 480.81C229.47 478.17 230.08 476.02 231.84 475.03C237.27 471.95 245.01 476.08 250.12 478.8C257.17 482.56 263.85 487.93 271.09 490.83C272.26 491.4 273.53 491.73 274.82 491.8C276.12 491.87 277.41 491.67 278.63 491.23C279.82 490.73 280.81 489.83 281.41 488.68C282.18 487.19 282.37 485.47 281.94 483.84C281.64 482.97 281.14 482.18 280.47 481.53C267.43 468.19 251.86 457.58 234.66 450.33C229.14 447.96 223.5 446.02 218.19 442.66C213.89 440.01 210.19 436.51 207.3 432.37C204.82 428.41 200.85 421.43 202.1 415.12Z" fill="#407BFF" fill-opacity="1.000000" fill-rule="nonzero"/>
		</g>
		<g opacity="0.100000">
			<path id="Vector" d="M483.65 307.01C482.67 308.02 481.38 308.69 479.98 308.92C478.58 309.14 477.15 308.9 475.9 308.23C474.65 307.57 473.65 306.51 473.05 305.23C472.45 303.95 472.29 302.51 472.58 301.12C477.66 276.49 488.7 258.57 501.83 267.87C511.63 274.8 496.27 293.9 483.65 307.01Z" fill="#407BFF" fill-opacity="1.000000" fill-rule="nonzero"/>
		</g>
		<g opacity="0.300000">
			<path id="Vector" d="M448.03 318.51C452.04 316.29 455.45 313.12 457.94 309.27C460.43 305.42 461.92 301.01 462.29 296.45L472.24 175.33C472.76 169.11 471.97 162.84 469.92 156.94C467.86 151.04 464.6 145.63 460.33 141.07L429.67 108.25C427.99 106.44 426.69 104.29 425.88 101.96C425.07 99.62 424.75 97.13 424.95 94.66L426.42 76.93L347.06 70.41L345.59 88.15C345.39 90.62 344.67 93.02 343.49 95.19C342.31 97.37 340.68 99.27 338.72 100.78L303.1 128.18C298.14 132 294.04 136.8 291.06 142.29C288.07 147.78 286.26 153.83 285.76 160.05L275.79 281.17C275.41 285.73 276.17 290.31 278 294.51C279.82 298.71 282.66 302.39 286.26 305.23C282.24 307.44 278.84 310.61 276.35 314.46C273.86 318.31 272.37 322.72 272.01 327.29L259.3 481.71C258.7 489.05 261.05 496.33 265.82 501.95C270.59 507.57 277.39 511.06 284.74 511.67L415.75 522.42C419.39 522.72 423.05 522.3 426.52 521.19C430 520.07 433.22 518.28 436.01 515.93C438.79 513.57 441.08 510.68 442.75 507.44C444.42 504.2 445.43 500.66 445.73 497.02L458.44 342.6C458.82 338.03 458.08 333.45 456.26 329.25C454.45 325.04 451.62 321.35 448.03 318.51Z" fill="#407BFF" fill-opacity="1.000000" fill-rule="nonzero"/>
		</g>
		<g opacity="0.300000">
			<path id="Vector" d="M345.96 84.12L347.09 70.44L426.42 76.96L425.3 90.63L345.96 84.12Z" fill="#407BFF" fill-opacity="1.000000" fill-rule="evenodd"/>
		</g>
		<g opacity="0.300000">
			<path id="Vector" d="M459.6 144.23L428.94 111.39C428.94 111.39 409.17 112.24 424.52 136.46C437.61 156.95 460.41 153.76 459.6 144.23Z" fill="var(--prim-color-white)" fill-opacity="1.000000" fill-rule="nonzero"/>
		</g>
		<g opacity="0.200000">
			<path id="Vector" d="M259.32 481.65C258.72 488.99 261.06 496.27 265.83 501.89C270.6 507.51 277.41 511 284.75 511.61L415.76 522.36C419.4 522.66 423.06 522.24 426.54 521.13C430.01 520.01 433.24 518.23 436.02 515.87C438.81 513.51 441.1 510.63 442.77 507.38C444.43 504.14 445.45 500.6 445.75 496.96L259.32 481.65Z" fill="#407BFF" fill-opacity="1.000000" fill-rule="nonzero"/>
		</g>
		<g opacity="0.300000">
			<path id="Vector" d="M453.87 147.07C457.3 150.73 459.92 155.08 461.56 159.82C463.21 164.55 463.85 169.58 463.44 174.58L453.49 295.71C453.23 298.82 452.21 301.82 450.51 304.45C448.81 307.07 446.48 309.23 443.74 310.74L432.16 317.15L442.54 325.37C444.99 327.31 446.93 329.82 448.18 332.68C449.43 335.55 449.95 338.67 449.69 341.79L436.99 496.21C436.58 501.22 434.2 505.85 430.37 509.11C426.54 512.36 421.58 513.96 416.57 513.57L285.56 502.82C283.07 502.62 280.65 501.93 278.43 500.8C276.2 499.67 274.23 498.11 272.61 496.21C270.99 494.31 269.76 492.12 268.99 489.74C268.22 487.37 267.92 484.87 268.12 482.39L280.82 327.96C281.08 324.85 282.1 321.84 283.8 319.22C285.49 316.59 287.82 314.43 290.55 312.92L302.14 306.51L291.83 298.28C289.38 296.35 287.44 293.84 286.19 290.98C284.94 288.11 284.42 284.98 284.68 281.87L294.65 160.76C295.06 155.76 296.51 150.9 298.91 146.49C301.31 142.09 304.61 138.23 308.59 135.17C320.36 127.56 351.27 146.49 387.47 149.46C423.67 152.43 446.31 143.26 453.87 147.07Z" fill="#407BFF" fill-opacity="1.000000" fill-rule="nonzero"/>
		</g>
		<g opacity="0.200000">
			<path id="Vector" d="M387.4 149.48C351.21 146.54 320.27 127.56 308.5 135.17C329.11 146.49 352.66 153.51 386.82 156.32C420.99 159.13 453.87 147.07 453.87 147.07C446.31 143.26 423.58 152.46 387.4 149.48Z" fill="#407BFF" fill-opacity="1.000000" fill-rule="nonzero"/>
		</g>
		<g opacity="0.200000">
			<path id="Vector" d="M275.8 281.17C275.43 285.73 276.19 290.31 278.01 294.51C279.84 298.71 282.67 302.39 286.27 305.23L448.03 318.46C452.04 316.25 455.45 313.07 457.94 309.22C460.43 305.38 461.92 300.97 462.29 296.4L275.8 281.17Z" fill="#407BFF" fill-opacity="1.000000" fill-rule="nonzero"/>
		</g>
		<path id="Vector" d="M348.97 48.75L428.08 55.27C431.4 55.54 433.86 58.44 433.59 61.76L432.01 80.99C431.74 84.3 428.84 86.76 425.52 86.49L346.41 79.97C343.09 79.7 340.63 76.79 340.9 73.48L342.47 54.25C342.75 50.94 345.65 48.47 348.97 48.75Z" fill="#407BFF" fill-opacity="1.000000" fill-rule="evenodd"/>
		<g opacity="0.200000">
			<path id="Vector" d="M350.42 77C350.32 76.99 350.23 76.97 350.14 76.92C350.06 76.88 349.98 76.82 349.92 76.74C349.85 76.67 349.81 76.59 349.78 76.49C349.75 76.4 349.73 76.3 349.74 76.21L351.6 52.94C351.61 52.75 351.71 52.56 351.85 52.44C352 52.31 352.2 52.25 352.39 52.26C352.59 52.28 352.77 52.37 352.9 52.52C353.02 52.67 353.08 52.86 353.07 53.06L351.16 76.31C351.14 76.5 351.06 76.67 350.93 76.8C350.79 76.93 350.61 77 350.42 77Z" fill="var(--prim-color-white)" fill-opacity="1.000000" fill-rule="nonzero"/>
		</g>
		<g opacity="0.200000">
			<path id="Vector" d="M364.77 78.18C364.68 78.17 364.58 78.14 364.49 78.1C364.41 78.06 364.33 78 364.27 77.92C364.2 77.85 364.16 77.76 364.13 77.67C364.1 77.58 364.09 77.48 364.09 77.38L366.01 54.13C366.03 53.94 366.12 53.76 366.27 53.63C366.42 53.51 366.61 53.44 366.8 53.46C366.9 53.46 366.99 53.49 367.08 53.53C367.16 53.58 367.24 53.64 367.3 53.71C367.36 53.79 367.41 53.87 367.44 53.96C367.47 54.06 367.48 54.15 367.47 54.25L365.51 77.5C365.49 77.68 365.4 77.86 365.27 77.98C365.13 78.1 364.96 78.18 364.77 78.18Z" fill="var(--prim-color-white)" fill-opacity="1.000000" fill-rule="nonzero"/>
		</g>
		<g opacity="0.200000">
			<path id="Vector" d="M379.11 79.41C379.01 79.41 378.92 79.38 378.83 79.34C378.75 79.29 378.67 79.23 378.61 79.16C378.54 79.08 378.49 79 378.46 78.91C378.44 78.81 378.42 78.72 378.43 78.62L380.35 55.37C380.37 55.17 380.46 55 380.61 54.87C380.76 54.75 380.95 54.68 381.14 54.69C381.24 54.7 381.33 54.72 381.42 54.77C381.5 54.81 381.58 54.87 381.64 54.95C381.71 55.02 381.76 55.11 381.79 55.2C381.81 55.29 381.83 55.39 381.82 55.48L379.9 78.74C379.9 78.83 379.87 78.93 379.83 79.01C379.78 79.1 379.72 79.18 379.65 79.24C379.57 79.3 379.49 79.35 379.4 79.38C379.3 79.41 379.21 79.42 379.11 79.41Z" fill="var(--prim-color-white)" fill-opacity="1.000000" fill-rule="nonzero"/>
		</g>
		<g opacity="0.200000">
			<path id="Vector" d="M393.46 80.53C393.36 80.52 393.27 80.5 393.18 80.45C393.1 80.41 393.02 80.35 392.96 80.27C392.89 80.2 392.85 80.12 392.82 80.02C392.79 79.93 392.78 79.83 392.78 79.74L394.7 56.48C394.72 56.29 394.81 56.11 394.96 55.99C395.11 55.86 395.3 55.8 395.49 55.81C395.59 55.82 395.68 55.84 395.77 55.89C395.85 55.93 395.93 55.99 395.99 56.07C396.05 56.14 396.1 56.23 396.13 56.32C396.16 56.41 396.17 56.51 396.16 56.6L394.24 79.85C394.24 79.95 394.21 80.04 394.17 80.13C394.13 80.22 394.07 80.29 393.99 80.36C393.92 80.42 393.84 80.47 393.75 80.5C393.65 80.53 393.56 80.54 393.46 80.53Z" fill="var(--prim-color-white)" fill-opacity="1.000000" fill-rule="nonzero"/>
		</g>
		<g opacity="0.200000">
			<path id="Vector" d="M407.74 81.71C407.64 81.7 407.55 81.67 407.46 81.63C407.38 81.59 407.3 81.52 407.24 81.45C407.17 81.38 407.12 81.29 407.1 81.2C407.07 81.11 407.05 81.01 407.06 80.91L408.98 57.66C409 57.47 409.1 57.3 409.24 57.17C409.39 57.05 409.58 56.98 409.77 56.98C409.87 56.99 409.96 57.02 410.05 57.06C410.14 57.11 410.21 57.17 410.27 57.24C410.34 57.32 410.39 57.4 410.42 57.49C410.44 57.59 410.46 57.68 410.45 57.78L408.53 81.03C408.53 81.13 408.5 81.22 408.46 81.31C408.42 81.4 408.36 81.48 408.28 81.54C408.21 81.6 408.12 81.65 408.03 81.68C407.93 81.71 407.84 81.72 407.74 81.71Z" fill="var(--prim-color-white)" fill-opacity="1.000000" fill-rule="nonzero"/>
		</g>
		<g opacity="0.200000">
			<path id="Vector" d="M422.15 82.88C422.05 82.88 421.96 82.85 421.87 82.81C421.79 82.76 421.71 82.7 421.65 82.63C421.58 82.55 421.54 82.47 421.51 82.38C421.48 82.28 421.47 82.19 421.47 82.09L423.33 58.82C423.35 58.63 423.44 58.45 423.59 58.32C423.74 58.2 423.93 58.13 424.12 58.15C424.32 58.17 424.49 58.26 424.62 58.41C424.74 58.56 424.8 58.75 424.79 58.94L422.89 82.21C422.87 82.39 422.78 82.56 422.65 82.69C422.51 82.81 422.33 82.88 422.15 82.88Z" fill="var(--prim-color-white)" fill-opacity="1.000000" fill-rule="nonzero"/>
		</g>
		<g opacity="0.200000">
			<path id="Vector" d="M300.28 240.71C298.04 228.34 280.01 229.22 278.98 241.74L275.75 281.17C275.37 285.73 276.13 290.31 277.95 294.51C279.78 298.71 282.62 302.39 286.21 305.23C282.2 307.44 278.79 310.61 276.31 314.46C273.82 318.31 272.33 322.72 271.96 327.29L259.26 481.71C258.66 489.05 261 496.33 265.77 501.95C270.54 507.57 277.35 511.06 284.69 511.67L318.55 514.45C322.28 514.75 326.03 514.2 329.51 512.82C332.99 511.45 336.11 509.3 338.63 506.53C341.14 503.76 342.99 500.45 344.02 496.86C345.05 493.26 345.24 489.48 344.58 485.8L300.28 240.71Z" fill="#407BFF" fill-opacity="1.000000" fill-rule="nonzero"/>
		</g>
		<g opacity="0.300000">
			<path id="Vector" d="M430.56 442.91C430.32 445.75 429.25 448.45 427.48 450.68C425.71 452.91 423.32 454.56 420.61 455.43C417.9 456.3 414.99 456.34 412.25 455.56C409.52 454.78 407.07 453.21 405.23 451.04C403.39 448.87 402.23 446.2 401.91 443.38C401.58 440.55 402.1 437.69 403.4 435.16C404.7 432.63 406.72 430.54 409.21 429.16C411.7 427.78 414.54 427.17 417.38 427.4C421.19 427.71 424.71 429.52 427.18 432.43C429.65 435.34 430.87 439.11 430.56 442.91Z" fill="#407BFF" fill-opacity="1.000000" fill-rule="nonzero"/>
		</g>
		<g opacity="0.300000">
			<path id="Vector" d="M384.79 387.22C384.63 389.22 383.87 391.14 382.62 392.71C381.37 394.29 379.67 395.46 377.76 396.08C375.84 396.69 373.78 396.73 371.84 396.18C369.91 395.62 368.18 394.51 366.87 392.97C365.57 391.44 364.75 389.55 364.52 387.55C364.29 385.55 364.66 383.53 365.58 381.74C366.5 379.95 367.93 378.47 369.69 377.49C371.45 376.52 373.47 376.08 375.47 376.25C378.16 376.47 380.65 377.75 382.4 379.81C384.15 381.87 385.01 384.53 384.79 387.22Z" fill="#407BFF" fill-opacity="1.000000" fill-rule="nonzero"/>
		</g>
		<g opacity="0.300000">
			<path id="Vector" d="M342.21 263.25C340.19 263.35 338.2 262.84 336.48 261.8C334.75 260.76 333.37 259.24 332.52 257.42C331.66 255.6 331.36 253.56 331.66 251.58C331.96 249.59 332.84 247.73 334.19 246.24C335.55 244.75 337.31 243.7 339.27 243.21C341.22 242.72 343.28 242.83 345.17 243.51C347.07 244.19 348.72 245.41 349.92 247.03C351.12 248.64 351.81 250.58 351.91 252.59C351.97 253.93 351.77 255.26 351.32 256.52C350.87 257.78 350.17 258.94 349.27 259.93C348.37 260.92 347.28 261.72 346.07 262.29C344.86 262.86 343.54 263.19 342.21 263.25Z" fill="#407BFF" fill-opacity="1.000000" fill-rule="nonzero"/>
		</g>
		<g opacity="0.300000">
			<path id="Vector" d="M369.98 202.41C368.56 202.48 367.14 202.13 365.92 201.39C364.69 200.66 363.71 199.58 363.1 198.29C362.49 197 362.28 195.56 362.49 194.15C362.7 192.74 363.32 191.42 364.28 190.37C365.24 189.31 366.5 188.56 367.88 188.22C369.27 187.87 370.72 187.95 372.07 188.43C373.41 188.91 374.58 189.78 375.43 190.93C376.27 192.08 376.76 193.45 376.83 194.88C376.92 196.78 376.24 198.65 374.96 200.06C373.68 201.47 371.89 202.31 369.98 202.41Z" fill="#407BFF" fill-opacity="1.000000" fill-rule="nonzero"/>
		</g>
		<g opacity="0.300000">
			<path id="Vector" d="M414.67 343.23C414.6 344.06 414.29 344.85 413.77 345.5C413.25 346.15 412.55 346.63 411.76 346.88C410.97 347.14 410.12 347.15 409.32 346.92C408.52 346.69 407.8 346.23 407.27 345.6C406.73 344.96 406.39 344.18 406.3 343.36C406.2 342.53 406.35 341.7 406.73 340.96C407.11 340.22 407.7 339.61 408.43 339.2C409.16 338.8 409.99 338.62 410.82 338.68C411.93 338.78 412.96 339.31 413.68 340.16C414.41 341.01 414.76 342.12 414.67 343.23Z" fill="#407BFF" fill-opacity="1.000000" fill-rule="nonzero"/>
		</g>
		<g opacity="0.700000">
			<path id="Vector" d="M338.42 458.3L337.72 458.3C336.59 458.22 335.49 457.92 334.48 457.42C333.47 456.91 332.57 456.21 331.83 455.36C331.1 454.5 330.55 453.52 330.21 452.45C329.87 451.39 329.74 450.26 329.84 449.15C329.98 447.5 330.59 445.93 331.61 444.62C332.63 443.32 334 442.34 335.57 441.8C337.13 441.26 338.82 441.19 340.42 441.6C342.03 442 343.48 442.87 344.6 444.08C345.72 445.3 346.47 446.81 346.74 448.45C347.01 450.08 346.81 451.75 346.14 453.27C345.48 454.78 344.39 456.07 343.01 456.98C341.62 457.88 340 458.37 338.35 458.37L338.42 458.3ZM338.42 442.35C336.75 442.36 335.13 442.94 333.83 443.99C332.53 445.05 331.62 446.51 331.27 448.15C330.91 449.78 331.12 451.49 331.87 452.98C332.62 454.48 333.85 455.68 335.37 456.38C336.89 457.08 338.6 457.25 340.23 456.85C341.85 456.44 343.29 455.5 344.31 454.17C345.33 452.84 345.86 451.21 345.82 449.53C345.78 447.86 345.17 446.25 344.09 444.97C343.46 444.23 342.69 443.62 341.83 443.17C340.96 442.73 340.01 442.46 339.04 442.38L338.42 442.35Z" fill="var(--prim-color-white)" fill-opacity="1.000000" fill-rule="nonzero"/>
		</g>
		<g opacity="0.700000">
			<path id="Vector" d="M429.47 286.2L428.95 286.2C427.32 286.06 425.8 285.28 424.74 284.03C423.68 282.79 423.15 281.17 423.28 279.53C423.42 277.9 424.2 276.38 425.45 275.32C426.7 274.26 428.33 273.74 429.97 273.87C431.6 274.01 433.12 274.78 434.18 276.03C435.24 277.28 435.76 278.9 435.63 280.53C435.49 282.17 434.72 283.68 433.47 284.75C432.35 285.69 430.93 286.2 429.47 286.2ZM424.39 279.59C424.31 280.59 424.54 281.59 425.03 282.46C425.53 283.34 426.27 284.04 427.16 284.5C428.06 284.95 429.06 285.13 430.06 285.02C431.06 284.9 432 284.49 432.76 283.84C433.27 283.41 433.69 282.88 434 282.29C434.31 281.69 434.49 281.04 434.55 280.38C434.6 279.71 434.52 279.04 434.32 278.4C434.11 277.76 433.79 277.17 433.35 276.66C432.9 276.17 432.36 275.77 431.75 275.49C431.15 275.2 430.49 275.04 429.82 275.02C429.15 274.96 428.48 275.04 427.85 275.24C427.21 275.44 426.62 275.77 426.11 276.2C425.6 276.63 425.18 277.16 424.87 277.76C424.57 278.35 424.38 279 424.33 279.67L424.39 279.59Z" fill="var(--prim-color-white)" fill-opacity="1.000000" fill-rule="nonzero"/>
		</g>
		<g opacity="0.700000">
			<path id="Vector" d="M334.36 155.8L334.14 155.8C333.38 155.73 332.68 155.36 332.18 154.78C331.69 154.2 331.44 153.45 331.49 152.68C331.53 152.11 331.73 151.56 332.08 151.11C332.42 150.65 332.89 150.3 333.43 150.11C333.97 149.91 334.56 149.88 335.12 150.02C335.67 150.15 336.18 150.44 336.57 150.86C336.97 151.28 337.23 151.8 337.33 152.37C337.43 152.93 337.36 153.51 337.13 154.04C336.9 154.57 336.53 155.02 336.05 155.33C335.57 155.65 335.01 155.82 334.43 155.82L334.36 155.8ZM332.58 152.77C332.55 153.12 332.63 153.47 332.8 153.78C332.97 154.09 333.23 154.34 333.54 154.5C333.86 154.66 334.21 154.72 334.56 154.68C334.91 154.64 335.24 154.5 335.51 154.27C335.77 154.04 335.97 153.74 336.07 153.4C336.16 153.07 336.16 152.71 336.05 152.37C335.95 152.04 335.74 151.74 335.47 151.52C335.19 151.3 334.86 151.17 334.51 151.14C334.27 151.12 334.04 151.14 333.81 151.21C333.59 151.28 333.38 151.4 333.2 151.55C333.02 151.7 332.87 151.89 332.77 152.1C332.66 152.31 332.6 152.54 332.58 152.77Z" fill="var(--prim-color-white)" fill-opacity="1.000000" fill-rule="nonzero"/>
		</g>
		<g opacity="0.700000">
			<path id="Vector" d="M399.45 231.97L398.83 231.97C397.86 231.89 396.92 231.63 396.06 231.18C395.19 230.74 394.42 230.13 393.79 229.39C393.16 228.65 392.69 227.79 392.39 226.87C392.1 225.94 391.99 224.97 392.08 224C392.2 222.58 392.74 221.23 393.62 220.1C394.5 218.98 395.69 218.14 397.04 217.68C398.39 217.22 399.85 217.17 401.23 217.52C402.61 217.87 403.86 218.62 404.83 219.67C405.79 220.72 406.43 222.03 406.67 223.43C406.9 224.84 406.72 226.28 406.15 227.59C405.58 228.9 404.64 230.01 403.45 230.79C402.26 231.57 400.86 231.99 399.44 232L399.45 231.97ZM399.45 218.29C397.97 218.29 396.54 218.81 395.4 219.76C394.13 220.84 393.34 222.37 393.2 224.03C393.11 225.06 393.28 226.09 393.7 227.04C394.11 227.98 394.75 228.81 395.56 229.45C396.36 230.09 397.32 230.53 398.33 230.71C399.35 230.9 400.4 230.83 401.38 230.51C402.36 230.2 403.25 229.65 403.97 228.91C404.69 228.17 405.22 227.26 405.5 226.27C405.79 225.28 405.82 224.23 405.61 223.22C405.39 222.21 404.93 221.27 404.27 220.48C403.73 219.85 403.08 219.33 402.34 218.96C401.61 218.58 400.81 218.36 399.98 218.29L399.45 218.29Z" fill="var(--prim-color-white)" fill-opacity="1.000000" fill-rule="nonzero"/>
		</g>
		<g opacity="0.300000">
			<path id="Vector" d="M459.83 296.27L469.34 180.77C469.4 180.04 469.32 179.29 469.09 178.59C468.86 177.88 468.5 177.23 468.02 176.67C467.54 176.1 466.95 175.64 466.29 175.3C465.63 174.96 464.91 174.76 464.18 174.7C463.44 174.64 462.7 174.72 461.99 174.95C461.28 175.17 460.63 175.53 460.07 176.01C459.5 176.49 459.04 177.08 458.7 177.73C458.36 178.39 458.16 179.11 458.1 179.85L448.59 295.34C448.28 299.18 447.02 302.88 444.93 306.12C442.83 309.35 439.97 312.02 436.59 313.87L430.81 317.09L436 321.2C439.03 323.58 441.42 326.68 442.96 330.21C444.5 333.74 445.15 337.6 444.83 341.43L432.13 495.86C431.37 505.12 425.54 509.64 417.34 513.24C416.82 513.48 416.39 513.87 416.12 514.38C415.85 514.88 415.76 515.46 415.85 516.02C415.94 516.58 416.22 517.09 416.64 517.48C417.06 517.87 417.59 518.1 418.16 518.15C424.34 518.66 430.47 516.69 435.2 512.68C439.92 508.68 442.87 502.96 443.38 496.79L456.08 342.36C456.39 338.52 455.75 334.66 454.21 331.13C452.67 327.6 450.28 324.51 447.25 322.12L442.05 318.01L447.84 314.8C451.21 312.94 454.07 310.28 456.17 307.04C458.26 303.81 459.52 300.11 459.83 296.27Z" fill="var(--prim-color-white)" fill-opacity="1.000000" fill-rule="nonzero"/>
		</g>
		<g opacity="0.300000">
			<path id="Vector" d="M612.63 475.75C611.04 468.55 591.19 472.81 587.09 473.47C579.11 474.92 571.3 477.17 563.77 480.2C555.48 483.45 545.86 488.23 537.28 483.28C532.31 480.43 549.54 474.8 551.1 474.22C558.42 471.66 565.48 468.42 572.21 464.55C574.93 462.93 580.2 459.06 577.93 455.14C576.05 451.88 569.29 452.19 565.18 452.69C552.74 454.22 540.53 457.27 528.84 461.8C517.47 466.31 506.34 471.4 495.49 477.05C491.28 479.42 486.71 481.06 481.96 481.92C476.78 482.65 470.43 481.55 468.39 478.68C466.34 475.81 468.97 472.46 469.58 469.58C470.43 466.13 470.07 462.5 468.56 459.28C467.56 457.13 465.88 455.36 463.78 454.25C458.17 451.31 449.69 452.4 444.05 454.72C440.4 456.27 437.06 458.47 434.21 461.22C428.45 466.57 424.42 473.51 422.61 481.15C422.15 483.55 421.23 485.83 419.89 487.86C418.55 489.9 416.82 491.65 414.81 493.02C406.91 498.33 392.46 498.02 381.41 495.36C362.11 490.79 347.39 480.09 343.84 468.02C342.12 462.27 341.28 456.25 333.54 454C328.53 452.53 318.05 453.56 320.29 459.89C321.1 461.62 322.16 463.22 323.44 464.65C325.48 467.34 327.66 472.42 321.58 474.05C319.61 474.47 317.59 474.57 315.59 474.34C296.04 473.03 278.06 466.52 266.4 457.34C262.6 454.36 259.37 450.7 256.89 446.56C255.51 444.28 255 441.83 253.49 439.58C252.04 437.41 250 435.71 247.6 434.68C240.09 431.46 222.46 433.13 221.22 440.19C220.56 444.02 222.94 448.16 224.17 451.8C224.39 452.25 224.44 452.77 224.31 453.27C223.96 454.19 222.56 454.46 221.37 454.53C205.6 455.58 190.31 449.46 177.08 443.08C163.06 436.31 147.64 427.5 128.16 427.4C124.14 427.21 120.1 427.68 116.22 428.77C115.24 429.03 114.33 429.5 113.55 430.15C113.07 430.64 112.75 431.27 112.64 431.95C112.52 432.62 112.61 433.32 112.9 433.94C113.53 435.24 114.47 436.36 115.64 437.21C121.52 442 129.77 443.94 137.29 446.41C159.61 453.64 181.18 462.97 201.73 474.28C203.81 475.45 207.49 478.14 204.57 480.17C201.66 482.2 195.74 480.89 192.25 480.31C185.92 479.28 179.84 477.64 173.68 476.09C165.52 474.03 156.01 472.17 147.18 473.87C142.51 474.77 138.35 476.68 136.16 479.27C135.4 480.03 134.9 481 134.73 482.06C134.56 483.11 134.73 484.2 135.21 485.15C138.25 490.55 152.07 492.87 159.62 495.45C169.29 498.74 178.74 502.64 187.93 507.11C195.77 510.99 203.06 515.24 211.01 519.05C239.4 532.66 279.06 534.41 314.52 535.73C353.01 537.2 391.68 535.95 430.07 533.82C458.04 532.26 485.49 529.19 512.9 525.57C520.77 524.54 528.61 523.27 536.45 522.2C544.42 521.29 552.29 519.73 560 517.54C562.77 516.83 565.36 515.54 567.58 513.74C569.69 511.79 570.35 509.23 566.58 508.49C558.69 506.92 550.57 508.71 542.85 510.11C534.2 511.7 525.62 513.53 517.12 515.59C513.25 516.63 509.32 517.43 505.35 517.99C501.36 518.55 497.3 518.29 493.41 517.23C492.14 516.83 490.76 516.13 490.69 515.01C490.61 513.89 491.67 513.18 492.76 512.76C508.64 506.46 525.51 502.46 542.5 498.79C554.03 496.29 565.76 494.76 577.37 492.8C587.96 491.02 599.11 490.61 608.28 483.9C610.11 482.72 611.53 481.02 612.35 479C612.75 477.97 612.84 476.84 612.63 475.75Z" fill="#407BFF" fill-opacity="1.000000" fill-rule="nonzero"/>
		</g>
		<g opacity="0.300000">
			<path id="Vector" d="M157.13 416.21C152.82 403.95 137.45 382.26 134.21 395.07C132.47 402.26 157.13 416.21 157.13 416.21Z" fill="#407BFF" fill-opacity="1.000000" fill-rule="nonzero"/>
		</g>
		<g opacity="0.300000">
			<path id="Vector" d="M543.06 440.32C551.27 432.84 561.52 428.38 562.84 434.97C564.08 441.21 543.06 440.32 543.06 440.32Z" fill="#407BFF" fill-opacity="1.000000" fill-rule="nonzero"/>
		</g>
		<g opacity="0.300000">
			<path id="Vector" d="M206.08 380.79C200.45 377.85 196.07 373.13 199.36 371.16C202.66 369.19 206.08 380.79 206.08 380.79Z" fill="#407BFF" fill-opacity="1.000000" fill-rule="nonzero"/>
		</g>
	</g>
</svg>
