<svg width="768" height="1280" fill="none" xmlns="http://www.w3.org/2000/svg"><g clip-path="url(#a)"><path opacity=".7" d="M47 665h-1a19 19 0 0 1-17-13 19 19 0 0 1 3-18 19 19 0 1 1 15 31Zm0-36a16 16 0 1 0 2 0h-2Z" fill="#C6D7FF"/><path d="M28 464a14 14 0 1 1-28-2 14 14 0 0 1 28 2Z" fill="#C6D7FF"/><path d="M32 155a9 9 0 1 1-18-2 9 9 0 0 1 18 2Z" fill="#ECF2FF"/><path opacity=".7" d="M47 309h-1a15 15 0 0 1-13-10 15 15 0 0 1 2-14 15 15 0 1 1 12 24Zm0-28a13 13 0 1 0 1 0h-1Z" fill="#9EBBFF"/><path d="M398 141a14 14 0 1 1-28-2 14 14 0 0 1 28 2Z" fill="#ECF2FF"/><path opacity=".7" d="M608 50h-2a25 25 0 0 1-22-17 25 25 0 0 1 4-23 25 25 0 1 1 20 40Zm0-47a22 22 0 1 0 2 0h-2Z" fill="#C6D7FF"/><path opacity=".7" d="M198 728h-1a19 19 0 0 1-17-13 19 19 0 0 1 3-18 19 19 0 1 1 15 31Zm0-36a16 16 0 1 0 2 0h-2Z" fill="#9EBBFF"/><path d="M633 260a14 14 0 1 1-28-2 14 14 0 0 1 28 2Z" fill="#C6D7FF"/><path opacity=".7" d="M782 185h-2a22 22 0 0 1-19-15 22 22 0 0 1 4-21 22 22 0 1 1 17 36Zm0-41a19 19 0 1 0 2 0h-2Z" fill="#9EBBFF"/><path d="M503 666a14 14 0 1 1-28-2 14 14 0 0 1 28 2Z" fill="#C6D7FF"/><path opacity=".7" d="M29 1260h-1a19 19 0 0 1-13-7 19 19 0 0 1-1-24 19 19 0 1 1 15 31Zm0-36a16 16 0 1 0 2 0h-2Z" fill="#C6D7FF"/><path d="M10 1059a14 14 0 1 1-28-2 14 14 0 0 1 28 2Z" fill="#C6D7FF"/><path d="M14 750a9 9 0 1 1-18-2 9 9 0 0 1 18 2Z" fill="#ECF2FF"/><path opacity=".7" d="M29 904h-1a15 15 0 0 1-13-10 15 15 0 0 1 2-14 15 15 0 1 1 12 24Zm0-28a13 13 0 1 0 1 0h-1Z" fill="#9EBBFF"/><path d="M380 736a14 14 0 1 1-28-2 14 14 0 0 1 28 2Z" fill="#ECF2FF"/><path opacity=".7" d="M590 645h-2a25 25 0 0 1-22-17 25 25 0 0 1 4-23 25 25 0 1 1 20 40Zm0-47a22 22 0 1 0 2 0h-2Z" fill="#C6D7FF"/><path d="M615 855a14 14 0 1 1-28-2 14 14 0 0 1 28 2Z" fill="#C6D7FF"/><path opacity=".7" d="M764 780h-2a22 22 0 0 1-19-15 22 22 0 0 1 4-21 22 22 0 1 1 17 36Zm0-41a19 19 0 1 0 2 0h-2Z" fill="#9EBBFF"/><path d="M485 1261a14 14 0 1 1-28-2 14 14 0 0 1 28 2Z" fill="#C6D7FF"/></g><defs><clipPath id="a"><path fill="#fff" d="M0 0h768v1280H0z"/></clipPath></defs></svg>