<svg width="320" height="1328" fill="none" xmlns="http://www.w3.org/2000/svg"><g clip-path="url(#a)"><path opacity=".7" d="M302 49h-2a25 25 0 0 1-17-8 25 25 0 0 1-1-31 25 25 0 0 1 43 25 25 25 0 0 1-23 15v-1Zm0-46a22 22 0 0 0-21 17 21 21 0 0 0 13 24 22 22 0 0 0 26-7 21 21 0 0 0-16-34h-2Z" fill="#C6D7FF"/><path d="M289 409a12 12 0 0 1-8 10 12 12 0 0 1-16-10 12 12 0 0 1 6-11 12 12 0 0 1 15 2l3 9Z" fill="#C6D7FF"/><path d="M37 75a12 12 0 0 1-8 10 12 12 0 0 1-16-10 12 12 0 0 1 6-11 12 12 0 0 1 15 2l3 9ZM228 199a8 8 0 0 1-5 7 8 8 0 0 1-11-6 8 8 0 0 1 4-8 8 8 0 0 1 10 2c2 1 2 3 2 5Z" fill="#ECF2FF"/><path opacity=".7" d="M53 642h-1a16 16 0 0 1-11-5 16 16 0 0 1-1-20 16 16 0 0 1 27 16 16 16 0 0 1-14 10v-1Zm0-29a14 14 0 0 0-13 10 14 14 0 0 0 7 16 14 14 0 0 0 17-4 14 14 0 0 0-10-22h-1Z" fill="#C6D7FF"/><path d="M311 913a12 12 0 0 1-9 10 12 12 0 0 1-15-10 12 12 0 0 1 6-11 12 12 0 0 1 15 2l3 9Z" fill="#C6D7FF"/><path opacity=".7" d="M19 1095h-1a19 19 0 0 1-17-13 19 19 0 0 1 3-17 19 19 0 0 1 32 19 19 19 0 0 1-17 11Zm0-35a16 16 0 0 0-16 13 16 16 0 0 0 9 18 16 16 0 0 0 20-5 16 16 0 0 0-11-26h-2Z" fill="#9EBBFF"/><path d="M164 1297a13 13 0 0 1-9 12 13 13 0 0 1-17-11 13 13 0 0 1 6-13 13 13 0 0 1 20 12Z" fill="#C6D7FF"/><path opacity=".7" d="M277 1263h-1a16 16 0 0 1-11-6 16 16 0 0 1-1-20 16 16 0 0 1 17-6 16 16 0 0 1 12 13 16 16 0 0 1-7 16l-9 3Zm0-30a14 14 0 0 0-13 11 14 14 0 0 0 7 15 14 14 0 0 0 17-4 14 14 0 0 0-10-22h-1Z" fill="#9EBBFF"/></g><defs><clipPath id="a"><path fill="#fff" d="M0 0h320v1328H0z"/></clipPath></defs></svg>