<svg width="320" height="844" fill="none" xmlns="http://www.w3.org/2000/svg"><g clip-path="url(#a)"><path opacity=".7" d="M302 50h-2a25 25 0 0 1-22-17 25 25 0 0 1 4-23 25 25 0 1 1 20 40Zm0-47a22 22 0 1 0 2 0h-2Z" fill="#C6D7FF"/><path d="M289 265a12 12 0 1 1-24-2 12 12 0 0 1 24 2Z" fill="#C6D7FF"/><path d="M37 52a12 12 0 1 1-24-2 12 12 0 0 1 24 2ZM228 130a8 8 0 1 1-16-1 8 8 0 0 1 16 1Z" fill="#ECF2FF"/><path opacity=".7" d="M53 420h-1a16 16 0 0 1-14-11 16 16 0 0 1 2-15 16 16 0 1 1 13 26Zm0-30a14 14 0 1 0 1 0h-1Z" fill="#C6D7FF"/><path d="M311 585a12 12 0 1 1-24-2 12 12 0 0 1 24 2Z" fill="#C6D7FF"/><path opacity=".7" d="M19 710h-1a19 19 0 0 1-17-13 19 19 0 0 1 3-18 19 19 0 1 1 15 31Zm0-36a16 16 0 1 0 2 0h-2Z" fill="#9EBBFF"/><path d="M164 830a13 13 0 1 1-26-2 13 13 0 0 1 26 2Z" fill="#C6D7FF"/><path opacity=".7" d="M277 814h-1a16 16 0 0 1-14-11 16 16 0 0 1 2-14 16 16 0 1 1 13 25Zm0-30a14 14 0 1 0 1 0h-1Z" fill="#9EBBFF"/></g><defs><clipPath id="a"><path fill="#fff" d="M0 0h320v844H0z"/></clipPath></defs></svg>