<svg width="738" height="548" fill="none" xmlns="http://www.w3.org/2000/svg"><g clip-path="url(#a)"><path d="M369 548c158 0 286-7 286-17 0-9-128-16-286-16s-286 7-286 16c0 10 128 17 286 17Z" fill="#F5F5F5"/><path opacity=".1" d="M203 415a5 5 0 0 1 5-4c13-1 25 8 36 18 2 2 5 4 7 2l2-3v-5l-2-4c-4-6-10-9-15-16l-7-11c-1-4-4-10-3-15 2-6 6-6 9-5 8 3 16 9 24 16l22 28c2 4 5 8 9 9 3 1 7-1 9-6 1-6-1-12-1-17l1-19 3-9c4-6 10-4 13 0l7 12c4 12 6 24 7 37 1 7 2 15 5 21 5 10 15 9 22 4 13-9 23-28 26-51 1-7 1-15 4-21 2-5 8-9 11-3l1 9-2 9c-2 5-3 14 1 17a5 5 0 0 0 4 0c13-2 25-15 33-32 3-6 5-13 6-20l3-13 4-9c5-6 17-3 17 10 1 8-1 15-2 22 0 5 2 5 5 5 10-1 19-11 27-22 9-13 20-29 33-30 3 0 8 1 9 5v9c-2 10-10 16-16 21-17 16-31 34-43 53-2 3-4 8-2 10a3 3 0 0 0 3 2c6-1 12-5 17-9 6-4 12-8 18-5a16 16 0 0 1 7 10l1 11c-2 10-12 14-17 19l-19 22-16 22c-19 26-45 30-69 33a302 302 0 0 1-151-24c-6-3-16-5-18-17-1-3 0-5 1-6 6-3 14 1 19 4l21 12a10 10 0 0 0 7 0c2 0 3-1 3-2l1-5-2-2c-13-14-28-24-46-32l-16-7c-5-3-8-6-11-11-3-4-7-11-5-17ZM485 307a7 7 0 0 1-11-6c5-25 16-42 29-33 10 7-5 26-18 39Z" fill="#407BFF"/><path opacity=".3" d="M449 319a28 28 0 0 0 15-23l10-121a45 45 0 0 0-12-34l-31-33a18 18 0 0 1-5-13l2-18-80-7-1 18a18 18 0 0 1-7 13l-36 27a45 45 0 0 0-17 32l-10 121a28 28 0 0 0 10 24 28 28 0 0 0-14 22l-13 155a28 28 0 0 0 26 30l131 10a28 28 0 0 0 30-25l13-154a28 28 0 0 0-11-24Z" fill="#407BFF"/><path opacity=".3" d="m348 70-1 14 79 7 2-14-80-7Z" fill="#407BFF"/><path opacity=".3" d="m461 144-31-33s-20 1-4 25c13 21 36 18 35 8Z" fill="#fff"/><path opacity=".2" d="M260 482a28 28 0 0 0 26 30l131 10a28 28 0 0 0 30-25l-187-15Z" fill="#407BFF"/><path opacity=".3" d="M455 147a36 36 0 0 1 10 28l-10 121a19 19 0 0 1-10 15l-12 6 11 8a19 19 0 0 1 7 17l-13 154a19 19 0 0 1-20 18l-132-11a19 19 0 0 1-17-21l13-154a19 19 0 0 1 9-15l12-6-10-9a19 19 0 0 1-8-16l10-121a36 36 0 0 1 14-26c12-7 43 11 80 14 36 3 59-6 66-2Z" fill="#407BFF"/><path opacity=".2" d="M388 149c-36-2-67-21-79-14 21 11 45 19 79 21 34 3 67-9 67-9-7-4-30 5-67 2ZM277 281a28 28 0 0 0 10 24l162 13a28 28 0 0 0 15-22l-187-15Z" fill="#407BFF"/><path d="m429 55-79-6c-3-1-6 2-7 5l-1 19c0 4 2 7 5 7l80 6c3 1 6-2 6-5l2-19c0-4-2-6-6-7Z" fill="#407BFF"/><path opacity=".2" d="M351 77a1 1 0 0 1 0-1l2-23v-1a1 1 0 0 1 1 1l-2 23a1 1 0 0 1-1 1ZM366 78a1 1 0 0 1-1-1l2-23a1 1 0 0 1 1 0l-1 24h-1ZM380 79a1 1 0 0 1-1 0l2-24a1 1 0 0 1 1 0 1 1 0 0 1 1 0l-2 24a1 1 0 0 1-1 0ZM395 81a1 1 0 0 1-1-1l2-24a1 1 0 0 1 1 0v1l-2 23a1 1 0 0 1 0 1ZM409 82a1 1 0 0 1-1-1l2-23a1 1 0 0 1 1-1 1 1 0 0 1 1 0v1l-2 23a1 1 0 0 1-1 1ZM423 83a1 1 0 0 1 0-1l1-23a1 1 0 0 1 1-1 1 1 0 0 1 1 1l-2 23a1 1 0 0 1-1 1Z" fill="#fff"/><path opacity=".2" d="M301 241c-2-13-20-12-21 1l-4 39a28 28 0 0 0 11 24 28 28 0 0 0-14 22l-13 155a28 28 0 0 0 25 30l34 2a25 25 0 0 0 27-28l-45-245Z" fill="#407BFF"/><path opacity=".3" d="M432 443a14 14 0 0 1-19 13 14 14 0 0 1-8-21 14 14 0 0 1 27 8ZM386 387a10 10 0 0 1-13 9 10 10 0 0 1-6-14 10 10 0 0 1 19 5ZM343 263a10 10 0 0 1-10-11 10 10 0 0 1 13-8 10 10 0 0 1 6 13 10 10 0 0 1-9 6ZM371 202a7 7 0 0 1-8-8 7 7 0 0 1 10-6 7 7 0 0 1 3 12l-5 2ZM416 343a4 4 0 0 1-3 4 4 4 0 0 1-5-1 4 4 0 0 1 4-7 4 4 0 0 1 4 4Z" fill="#407BFF"/><path opacity=".7" d="M339 458a9 9 0 0 1-6-3 8 8 0 0 1 0-10 9 9 0 0 1 14 8 9 9 0 0 1-8 5Zm0-16a7 7 0 0 0-7 6 7 7 0 0 0 9 9 7 7 0 0 0 4-12 7 7 0 0 0-5-3h-1ZM431 286h-1a6 6 0 0 1-6-6 6 6 0 0 1 7-6 6 6 0 0 1 6 7l-2 4-4 1Zm-5-6a5 5 0 0 0 5 5 5 5 0 0 0 5-7l-1-1a5 5 0 0 0-4-2 5 5 0 0 0-6 5h1ZM335 156a3 3 0 0 1-3-3 3 3 0 0 1 4-3 3 3 0 0 1 2 4 3 3 0 0 1-3 2Zm-2-3a2 2 0 0 0 2 2 2 2 0 0 0 2-2 2 2 0 0 0-2-2 2 2 0 0 0-2 2ZM401 232h-1a7 7 0 0 1-7-8 7 7 0 0 1 9-6 7 7 0 0 1 5 10 7 7 0 0 1-6 4Zm0-14a6 6 0 1 0 1 13 6 6 0 0 0 5-8 6 6 0 0 0-6-5Z" fill="#fff"/><path opacity=".3" d="m461 296 10-115a6 6 0 0 0-8-6 6 6 0 0 0-4 5l-9 115a23 23 0 0 1-12 19l-6 3 5 4a23 23 0 0 1 9 20l-13 155c0 9-6 14-15 17l-1 1v2a3 3 0 0 0 2 2 24 24 0 0 0 26-21l12-155a23 23 0 0 0-9-20l-5-4 6-3a23 23 0 0 0 12-19Z" fill="#fff"/><path opacity=".3" d="M614 476c-1-7-21-3-25-3l-24 7c-8 3-18 8-26 3-5-3 12-8 14-9l21-9c2-2 8-6 6-10-2-3-9-3-13-2-13 1-25 4-37 9l-33 15-14 5c-5 1-11 0-13-3s0-7 1-9c1-4 0-7-1-11l-5-5c-6-3-14-2-20 1-3 1-7 3-10 6-5 6-9 13-11 20a18 18 0 0 1-8 12c-8 5-22 5-34 2-19-4-34-15-37-27-2-6-3-12-11-14-5-1-15 0-13 6l3 5c2 2 5 7-2 9h-6c-19-1-37-7-49-17-4-3-7-6-9-10l-4-7c-1-3-3-4-6-5-7-4-25-2-26 5-1 4 2 8 3 12v1l-3 2c-16 1-31-6-44-12-14-7-30-15-49-16l-12 2-3 1a3 3 0 0 0-1 4l3 3c6 5 14 7 22 9 22 8 44 17 64 28 2 1 6 4 3 6s-9 1-12 0l-19-4c-8-2-18-4-26-2-5 1-9 3-11 5a5 5 0 0 0-1 6c3 6 16 8 24 10l28 12 24 12c28 14 68 15 103 17a1242 1242 0 0 0 199-10l24-4 24-4 7-4c2-2 3-5-1-6-8-1-16 1-24 2a461 461 0 0 0-37 8c-4 1-8 0-12-1-2 0-3-1-3-2l2-2c16-7 33-11 50-14l35-6c11-2 22-2 31-9l4-5v-3ZM158 416c-5-12-20-34-23-21-2 7 23 21 23 21ZM545 440c8-7 18-12 19-5 2 6-19 5-19 5ZM207 381c-6-3-10-8-7-10s7 10 7 10Z" fill="#407BFF"/></g><defs><clipPath id="a"><path fill="#fff" d="M0 0h738v548H0z"/></clipPath></defs></svg>