<svg width="320" height="952" fill="none" xmlns="http://www.w3.org/2000/svg"><g clip-path="url(#a)"><path fill-rule="evenodd" clip-rule="evenodd" d="m-747 294 114 14c113 13 340 41 567 137s454 260 682 343c227 82 454 82 681 95 227 14 454 42 567 55l114 14H-747V294Z" fill="#9EBBFF"/><path opacity=".8" fill-rule="evenodd" clip-rule="evenodd" d="M2389-182h-91c-91 0-272 0-454 58-182 55-364 168-545 168-182 0-364-113-545-19-182 95-364 397-546 549C27 726-155 726-337 687c-182-37-363-113-454-150l-91-39v454h3271V-182Z" fill="#ECF2FF"/><g clip-path="url(#b)"><path opacity=".7" d="M302 158h-2a25 25 0 0 1-22-17 25 25 0 0 1 4-23 25 25 0 1 1 20 40Zm0-47a22 22 0 1 0 2 0h-2Z" fill="#C6D7FF"/><path d="M289 373a12 12 0 1 1-24-2 12 12 0 0 1 24 2Z" fill="#C6D7FF"/><path d="M37 160a12 12 0 1 1-24-2 12 12 0 0 1 24 2ZM228 238a8 8 0 1 1-16-1 8 8 0 0 1 16 1Z" fill="#ECF2FF"/><path opacity=".7" d="M53 528h-1a16 16 0 0 1-14-11 16 16 0 0 1 2-15 16 16 0 1 1 13 26Zm0-30a14 14 0 1 0 1 0h-1Z" fill="#C6D7FF"/><path d="M311 693a12 12 0 1 1-24-2 12 12 0 0 1 24 2Z" fill="#C6D7FF"/><path opacity=".7" d="M19 818h-1a19 19 0 0 1-17-13 19 19 0 0 1 3-18 19 19 0 1 1 15 31Zm0-36a16 16 0 1 0 2 0h-2Z" fill="#9EBBFF"/><path d="M164 938a13 13 0 1 1-26-2 13 13 0 0 1 26 2Z" fill="#C6D7FF"/><path opacity=".7" d="M277 922h-1a16 16 0 0 1-14-11 16 16 0 0 1 2-14 16 16 0 1 1 13 25Zm0-30a14 14 0 1 0 1 0h-1Z" fill="#9EBBFF"/></g></g><defs><clipPath id="a"><path fill="#fff" d="M0 0h320v952H0z"/></clipPath><clipPath id="b"><path fill="#fff" transform="translate(0 108)" d="M0 0h320v844H0z"/></clipPath></defs></svg>