<svg width="1440" height="432" fill="none" xmlns="http://www.w3.org/2000/svg"><g clip-path="url(#a)"><path fill-rule="evenodd" clip-rule="evenodd" d="m0 144 50 6c50 6 150 18 250 60s200 114 300 150 200 36 300 42 200 18 250 24l50 6H0V144Z" fill="#9EBBFF"/><path opacity=".8" fill-rule="evenodd" clip-rule="evenodd" d="M1440 0h-40c-40 0-120 0-200 22-80 21-160 64-240 64s-160-43-240-7-160 151-240 209-160 58-240 43c-80-14-160-43-200-57L0 259v173h1440V0Z" fill="#ECF2FF"/><g clip-path="url(#b)"><path d="M1203 402c80 0 145-4 145-8 0-5-65-9-145-9s-145 4-145 9c0 4 65 8 145 8Z" fill="#F5F5F5"/><path opacity=".1" d="M1119 335a3 3 0 0 1 3-3c6 0 12 5 17 10 2 1 3 2 4 1l1-2v-2l-1-2c-2-4-5-5-7-8l-4-6c0-2-2-5-1-8 0-3 3-3 4-2 4 1 8 4 12 8l11 14 5 5c1 0 4-1 4-4v-8l1-10 1-4c2-3 5-2 7 0l3 6 4 18 2 11c3 5 8 5 12 2 6-4 11-14 13-25 0-4 0-8 2-11 1-3 4-5 5-2l1 5-1 4c-1 3-2 7 0 9a2 2 0 0 0 2 0c7-1 13-7 17-16l3-10 1-7 3-4c2-3 8-2 8 5 1 3 0 7-1 11 0 2 1 2 2 2 6 0 10-6 14-11 5-6 10-15 17-15 1 0 4 0 5 2v5c-2 5-5 8-8 11-9 8-16 17-23 26l-1 6a2 2 0 0 0 2 0c3 0 6-2 9-4s6-4 9-3a8 8 0 0 1 4 5v6c-1 5-6 7-9 10l-9 11-8 11c-10 13-23 15-35 17a153 153 0 0 1-77-12c-3-2-8-3-9-9l1-3c3-2 7 1 9 2 4 2 7 5 11 6a5 5 0 0 0 4 0l1-1v-4c-7-6-15-12-24-16l-8-3-6-6c-1-2-3-5-2-8ZM1262 280a3 3 0 0 1-4 0 3 3 0 0 1-2-3c3-13 8-22 15-17 5 3-3 13-9 20Z" fill="#407BFF"/><path opacity=".3" d="M1244 286a14 14 0 0 0 7-12l5-61a23 23 0 0 0-6-17l-16-17a9 9 0 0 1-2-7l1-9-41-3v9a9 9 0 0 1-4 6l-18 14a23 23 0 0 0-9 16l-5 62a14 14 0 0 0 5 12 14 14 0 0 0-7 11l-6 78a14 14 0 0 0 13 16l66 5a14 14 0 0 0 16-13l6-78a14 14 0 0 0-5-12Z" fill="#407BFF"/><path opacity=".3" d="M1192 160v7l40 3 1-7-41-3Z" fill="#407BFF"/><path opacity=".3" d="m1250 197-16-16s-10 0-2 12c6 11 18 9 18 4Z" fill="#fff"/><path opacity=".2" d="M1148 368a14 14 0 0 0 13 16l66 5a14 14 0 0 0 16-13l-95-8Z" fill="#407BFF"/><path opacity=".3" d="M1247 199a18 18 0 0 1 5 14l-6 61a10 10 0 0 1-5 8l-5 3 5 4a10 10 0 0 1 4 8l-7 79a10 10 0 0 1-10 9l-67-6a10 10 0 0 1-9-10l7-79a10 10 0 0 1 5-7l6-4-6-4a10 10 0 0 1-3-8l5-61a18 18 0 0 1 7-13c6-4 22 5 40 7 18 1 30-3 34-1Z" fill="#407BFF"/><path opacity=".2" d="M1213 200c-19-2-34-11-40-7 10 5 22 9 40 10 17 2 34-4 34-4-4-2-16 2-34 1ZM1156 267a14 14 0 0 0 5 12l83 7a14 14 0 0 0 7-12l-95-7Z" fill="#407BFF"/><path d="m1234 152-41-3c-1 0-3 1-3 3l-1 9c0 2 1 3 3 4l40 3c2 0 3-1 4-3v-10l-2-3Z" fill="#407BFF"/><path opacity=".2" d="m1194 163 1-12-1 12ZM1201 164v-1l1-12h1v1l-1 11v1h-1ZM1209 164h-1l1-12h1l-1 12ZM1216 165v-1l1-11v-1 1l-1 12ZM1223 165l1-12h1l-1 12h-1ZM1231 166h-1l1-12h1l-1 12Z" fill="#fff"/><path opacity=".2" d="M1169 246c-2-6-11-6-11 1l-2 20a14 14 0 0 0 5 12 14 14 0 0 0-7 11l-6 78a14 14 0 0 0 13 16l17 1a12 12 0 0 0 13-15l-22-124Z" fill="#407BFF"/><path opacity=".3" d="M1235 349a7 7 0 0 1-13 4 7 7 0 1 1 11-10l2 6ZM1212 320a5 5 0 0 1-4 5 5 5 0 0 1-7-4 5 5 0 0 1 6-6 5 5 0 0 1 5 5ZM1190 258a5 5 0 0 1-5-6l1-3a5 5 0 0 1 8 0 5 5 0 0 1-4 9ZM1204 227a4 4 0 0 1-3-2 4 4 0 0 1 0-4 4 4 0 0 1 4-1l2 1v2a4 4 0 0 1-3 4ZM1227 298l-1 1a2 2 0 0 1-2 1l-1-1a2 2 0 0 1 0-2l1-1a2 2 0 0 1 3 2Z" fill="#407BFF"/><path opacity=".7" d="M1188 356a4 4 0 0 1-4-4 4 4 0 0 1 3-4 4 4 0 0 1 5 3 4 4 0 0 1-2 5l-2 1v-1Zm0-8ZM1234 269a3 3 0 0 1-3-3 3 3 0 0 1 3-3 3 3 0 0 1 2 5l-2 1Zm-2-3a3 3 0 0 0 1 2 3 3 0 0 0 4-1 3 3 0 0 0-2-3h-1a3 3 0 0 0-1 0l-1 1v1ZM1186 203h-1a1 1 0 0 1 0-2v-1a1 1 0 0 1 2 1v2h-1Zm-1-1a1 1 0 0 0 1 0 1 1 0 0 0 1 0v-1h-1a1 1 0 0 0-1 0v1ZM1219 242a4 4 0 0 1-4-4 4 4 0 0 1 3-4 4 4 0 0 1 4 1 4 4 0 0 1-3 7Zm0-7h-2a3 3 0 0 0 0 5 3 3 0 0 0 3 1 3 3 0 0 0 2-2 3 3 0 0 0-1-3 3 3 0 0 0-2-1Z" fill="#fff"/><path opacity=".3" d="m1250 274 5-58-1-1a3 3 0 0 0-2-2 3 3 0 0 0-3 2l-5 59a12 12 0 0 1-6 9l-3 2 3 2a12 12 0 0 1 4 10l-6 79c-1 4-4 7-8 8l-1 1a1 1 0 0 0 1 2 12 12 0 0 0 13-11l7-78a12 12 0 0 0-5-11l-2-2 3-1a12 12 0 0 0 6-10Z" fill="#fff"/><path opacity=".3" d="M1327 365c0-3-11-1-13-1l-12 4c-4 1-9 4-13 1-2-1 6-4 7-4l11-5c1-1 4-3 3-5s-5-2-7-1c-6 0-12 2-18 4l-17 8-7 2c-3 1-6 0-7-1-1-2 0-3 1-5l-1-5-2-3c-3-1-7 0-10 1-2 0-4 2-5 3-3 3-5 6-6 10a9 9 0 0 1-4 6c-4 3-12 3-17 1-10-2-17-7-19-14-1-2-2-6-6-7-2 0-7 0-6 3l1 3c1 1 3 4-1 4l-3 1c-10-1-19-4-25-9l-4-5-2-4-3-2c-4-2-13-1-14 2l2 6v1l-2 1c-8 0-15-3-22-6-7-4-15-8-25-8l-6 1h-1a2 2 0 0 0-1 2l2 2 11 4 33 15c1 0 2 2 1 3h-6l-10-2c-4-2-9-2-13-2l-6 3a3 3 0 0 0 0 3c1 3 8 4 12 5l15 6 11 6c15 7 35 8 53 9a629 629 0 0 0 101-5l12-2 12-2 3-2c1-1 2-3 0-3-4-1-8 0-12 1a235 235 0 0 0-19 4l-6-1-2-1 1-1 26-7 17-3c6-1 11-1 16-5l2-2v-2ZM1096 335c-2-6-10-17-12-11-1 4 12 11 12 11ZM1292 347c4-3 9-6 10-2 1 3-10 2-10 2ZM1121 317c-3-1-5-4-4-5 2-1 4 5 4 5Z" fill="#407BFF"/></g></g><defs><clipPath id="a"><path fill="#fff" d="M0 0h1440v432H0z"/></clipPath><clipPath id="b"><path fill="#fff" transform="translate(1016 124)" d="M0 0h374v278H0z"/></clipPath></defs></svg>